<?xml version="1.0" encoding="UTF-8" standalone="no"?>
<!-- Created with Inkscape (http://www.inkscape.org/) -->

<svg
   width="210mm"
   height="297mm"
   viewBox="0 0 210 297"
   version="1.1"
   id="svg1496"
   inkscape:version="1.2.2 (732a01da63, 2022-12-09)"
   sodipodi:docname="aladim_1.svg"
   xmlns:inkscape="http://www.inkscape.org/namespaces/inkscape"
   xmlns:sodipodi="http://sodipodi.sourceforge.net/DTD/sodipodi-0.dtd"
   xmlns="http://www.w3.org/2000/svg"
   xmlns:svg="http://www.w3.org/2000/svg">
  <sodipodi:namedview
     id="namedview1498"
     pagecolor="#ffffff"
     bordercolor="#cccccc"
     borderopacity="1"
     inkscape:showpageshadow="0"
     inkscape:pageopacity="1"
     inkscape:pagecheckerboard="0"
     inkscape:deskcolor="#d1d1d1"
     inkscape:document-units="mm"
     showgrid="false"
     inkscape:zoom="0.97102974"
     inkscape:cx="397.51615"
     inkscape:cy="232.74261"
     inkscape:window-width="1360"
     inkscape:window-height="697"
     inkscape:window-x="-8"
     inkscape:window-y="-8"
     inkscape:window-maximized="1"
     inkscape:current-layer="layer1" />
  <defs
     id="defs1493" />
  <g
     inkscape:label="Layer 1"
     inkscape:groupmode="layer"
     id="layer1">
    <path
       id="path218-8-1"
       style="opacity:0.36;fill:#aa0000;stroke-width:0.264583"
       d="m -4.501e-4,0 a 22.043421,3.0347552 0 0 0 -21.7469899,2.566768 44.905429,4.6104936 0 0 0 -23.15828,4.028178 44.905429,4.6104936 0 0 0 0.48111,0.641821 h -0.42323 v 3.851961 h 0.84181 a 44.613078,5.719346 0 0 0 -0.60772,0.887285 44.613078,5.719346 0 0 0 4.95784,2.61431 h -0.76998 v 16.574698 h 0.0631 a 40.424962,19.725907 0 0 0 21.47207,16.934368 20.113891,24.289429 0 0 1 12.82454,22.570199 20.113891,24.289429 0 0 1 -13.89941,23.015649 45.978886,12.879002 0 0 0 -25.95552,11.573973 45.978886,12.879002 0 0 0 0.003,0.0145 H -46.038 v 2.38383 H -5.001e-4 Z" />
  </g>
</svg>
