<?xml version="1.0" encoding="UTF-8" standalone="no"?>
<!-- Created with Inkscape (http://www.inkscape.org/) -->

<svg
   width="210mm"
   height="297mm"
   viewBox="0 0 210 297"
   version="1.1"
   id="svg313"
   xml:space="preserve"
   sodipodi:docname="ladybug2.svg"
   inkscape:version="1.2.2 (732a01da63, 2022-12-09)"
   xmlns:inkscape="http://www.inkscape.org/namespaces/inkscape"
   xmlns:sodipodi="http://sodipodi.sourceforge.net/DTD/sodipodi-0.dtd"
   xmlns="http://www.w3.org/2000/svg"
   xmlns:svg="http://www.w3.org/2000/svg"><sodipodi:namedview
     id="namedview315"
     pagecolor="#ffffff"
     bordercolor="#cccccc"
     borderopacity="1"
     inkscape:showpageshadow="0"
     inkscape:pageopacity="1"
     inkscape:pagecheckerboard="0"
     inkscape:deskcolor="#d1d1d1"
     inkscape:document-units="mm"
     showgrid="false"
     inkscape:zoom="0.46502525"
     inkscape:cx="397.82786"
     inkscape:cy="217.19251"
     inkscape:window-width="1360"
     inkscape:window-height="697"
     inkscape:window-x="-8"
     inkscape:window-y="-8"
     inkscape:window-maximized="1"
     inkscape:current-layer="layer1" /><defs
     id="defs310" /><g
     inkscape:label="Layer 1"
     inkscape:groupmode="layer"
     id="layer1"><g
       id="g323"
       transform="matrix(0.0396875,0,0,0.0396875,-3.0818746,-0.36349225)"
       style="stroke-width:6.66667">
	<path
   d="M 756.09,645.99 C 671,828.47 464.15,897.77 295.43,828.05 122.04,756.3 32.88,566.91 100.1,383.84 152.52,241.33 267.04,197.86 268.47,190.52 c 6.3,-33.15 29.76,-59.67 56.61,-79.58 11.67,-8.69 -22.16,-33 -31.37,-33.38 -18.4,-0.92 -17.13,-0.81 -17.82,-1 -21.51,-6.94 -29.71,-21.11 -24.61,-42.52 11.85,-49.93 112.42,-17.73 138.31,43.34 0.51,1.17 1.71,1.87 2.95,1.71 74.88,-8.4 74.01,5.73 77.56,0.41 19.08,-28.57 36.17,-50.36 77.23,-64.47 73.12,-25.21 84.67,37.76 49.12,56.83 -9.95,5.34 -26.15,3.01 -34.2,7.68 -11.77,6.9 -30.14,25.59 -25.77,28.86 45.77,33.72 54.08,71.19 58.47,81.3 3.48,7.61 44.15,17.23 98.9,78.53 91.36,102.33 120.94,251.91 62.24,377.76 z"
   id="path319"
   style="stroke-width:6.66667" />
	<path
   class="st0"
   d="M 395.59,279.12 C 325.31,270.39 301.27,247.64 295.24,251.3 133.08,349.4 96.86,558.2 215.85,690.82 c 70.73,78.94 170.02,98.35 181.39,93.38 1.37,-0.63 0.8,-504.74 -1.65,-505.08 z m -113.77,40.35 c 38.55,0 69.58,31.25 69.58,69.59 0,38.43 -31.15,69.59 -69.59,69.59 -38.43,0 -69.59,-31.15 -69.59,-69.59 0,-38.44 31.17,-69.59 69.6,-69.59 z m 67.56,378.85 c -9.36,45.79 -77.37,39.03 -77.37,-7.87 0,-21.58 17.5,-39.08 39.08,-39.08 24.81,0 43.24,22.78 38.29,46.95 z m 3.96,-137.27 c -2.83,61.97 -81.11,89.71 -124.15,43.95 -45.92,-57.4 0.1,-119.61 55.82,-117.01 40.07,1.81 70.06,35.19 68.33,73.06 z M 658.27,331.03 c -33.99,-45.27 -88.32,-83.96 -94.16,-81.14 -61.89,29.12 -98.45,25.37 -98.45,30.05 0,541.15 -0.47,504.49 0.9,505.11 7.21,3.23 106.17,-9.33 181.83,-94.08 91.96,-102.93 91.33,-251.49 9.88,-359.94 z m -124.58,7.43 c 25.61,-25.61 66.35,-27.38 94.07,-4.52 50.64,41.82 20.68,124.07 -44.54,124.07 -62.3,0 -93.36,-75.75 -49.53,-119.55 z m 56.41,358.59 c -4.6,27.47 -35.4,41.34 -58.54,26.53 -27.18,-17.47 -22.12,-59.01 8.26,-69.63 27.45,-9.62 55.16,13.97 50.28,43.1 z m -0.67,-68.95 c -39.16,2.87 -73.51,-26.21 -76.3,-65.12 -4.91,-68.35 83.17,-102.93 127,-49.24 35.64,43.63 7.29,110.12 -50.7,114.36 z"
   id="path321"
   style="stroke-width:6.66667" />
</g></g><style
     type="text/css"
     id="style317">
	.st0{fill:#ED1C24;}
</style></svg>
