<?xml version="1.0" encoding="UTF-8" standalone="no"?>
<!-- Created with Inkscape (http://www.inkscape.org/) -->

<svg
   width="210mm"
   height="297mm"
   viewBox="0 0 210 297"
   version="1.1"
   id="svg5"
   xml:space="preserve"
   inkscape:version="1.2.2 (732a01da63, 2022-12-09)"
   sodipodi:docname="sinuca2.svg"
   xmlns:inkscape="http://www.inkscape.org/namespaces/inkscape"
   xmlns:sodipodi="http://sodipodi.sourceforge.net/DTD/sodipodi-0.dtd"
   xmlns="http://www.w3.org/2000/svg"
   xmlns:svg="http://www.w3.org/2000/svg"><sodipodi:namedview
     id="namedview7"
     pagecolor="#ffffff"
     bordercolor="#cccccc"
     borderopacity="1"
     inkscape:showpageshadow="0"
     inkscape:pageopacity="1"
     inkscape:pagecheckerboard="0"
     inkscape:deskcolor="#d1d1d1"
     inkscape:document-units="mm"
     showgrid="false"
     inkscape:zoom="1.1476306"
     inkscape:cx="399.51881"
     inkscape:cy="184.72843"
     inkscape:window-width="1360"
     inkscape:window-height="697"
     inkscape:window-x="-8"
     inkscape:window-y="-8"
     inkscape:window-maximized="1"
     inkscape:current-layer="layer1" /><defs
     id="defs2" /><g
     inkscape:label="Layer 1"
     inkscape:groupmode="layer"
     id="layer1"><path
       id="rect287"
       style="opacity:1;fill:#3c5e40;fill-opacity:1;stroke-width:0.26"
       d="M 5.0002116 0 A 5 5 0 0 1 10.000423 5.0002116 A 5 5 0 0 1 5.0002116 9.9999064 A 5 5 0 0 1 0 5.0002116 L 0 94.999886 A 5 5 0 0 1 5.0002116 90.000191 A 5 5 0 0 1 10.000423 94.999886 A 5 5 0 0 1 5.0002116 100.0001 L 95.000403 100.0001 A 5 5 0 0 1 90.000191 94.999886 A 5 5 0 0 1 95.000403 90.000191 A 5 5 0 0 1 100.0001 94.999886 A 5 5 0 0 1 95.000403 100.0001 L 185.00008 100.0001 A 5 5 0 0 1 180.00038 94.999886 A 5 5 0 0 1 185.00008 90.000191 A 5 5 0 0 1 190.00029 94.999886 L 190.00029 5.0002116 A 5 5 0 0 1 185.00008 9.9999064 A 5 5 0 0 1 180.00038 5.0002116 A 5 5 0 0 1 185.00008 0 L 95.000403 0 A 5 5 0 0 1 100.0001 5.0002116 A 5 5 0 0 1 95.000403 9.9999064 A 5 5 0 0 1 90.000191 5.0002116 A 5 5 0 0 1 95.000403 0 L 5.0002116 0 z " /><path
       style="opacity:0.5;fill:#00320e;stroke-width:0.26;fill-opacity:1"
       d="m 102.99991,91.00013 -2.99981,2.999817 h 79.99977 l -2.99982,-2.999817 z"
       id="path1975" /><path
       style="opacity:0.5;fill:#00320e;stroke-width:0.26;fill-opacity:1"
       d="M 13.00024,91.00013 9.9999064,93.999947 H 90.000191 L 86.999858,91.00013 Z"
       id="path1973" /><path
       style="opacity:0.5;fill:#00320e;fill-opacity:1;stroke-width:0.26"
       d="M 5.5304118,9.4707397 V 90.470963 L 8.5002563,87.47063 V 12.471073 Z"
       id="path1971" /><path
       style="opacity:0.5;fill:#00320e;fill-opacity:1;stroke-width:0.26"
       d="m 183.91487,9.7017335 -2.96984,2.9998175 v 75.000074 l 2.96984,3.000333 z"
       id="path1969" /><path
       style="opacity:0.5;fill:#00320e;stroke-width:0.26;fill-opacity:1"
       d="m 100.05746,5.5939738 2.99982,2.9998169 h 74.30037 l 2.99982,-2.9998169 z"
       id="path1967" /><path
       style="opacity:0.5;fill:#00320e;stroke-width:0.26;fill-opacity:1"
       d="M 9.8004354,5.2999349 12.800252,8.2997518 H 87.000374 L 90.000191,5.2999349 Z"
       id="path11343" /><path
       id="path11441"
       style="opacity:0.5;fill:#ffffff;stroke-width:0.264583"
       d="m 47.000546,29.000035 a 20,20 0 0 0 -20.000334,20.00033 20,20 0 0 0 20.000334,19.999812 20,20 0 0 0 0.67799,-0.02532 v 0.215491 h 0.50023 V 29.02639 h -0.20257 v -0.0021 A 20,20 0 0 0 47.000546,29 Z m 0,0.500228 a 19.5,19.5 0 0 1 0.67799,0.01705 v 38.9661 a 19.5,19.5 0 0 1 -0.67799,0.01705 A 19.5,19.5 0 0 1 27.500439,49.000365 19.5,19.5 0 0 1 47.000546,29.500263 Z" /><ellipse
       style="opacity:1;fill:#ffff00;stroke:#02fd36;stroke-width:0;stroke-linejoin:bevel;stroke-dasharray:none;stroke-opacity:0.98419"
       id="path1645"
       cx="96.135223"
       cy="46.993137"
       rx="1.1350114"
       ry="0.99313498" /><ellipse
       style="fill:#ffff00;stroke:#02fd36;stroke-width:0;stroke-linejoin:bevel;stroke-dasharray:none;stroke-opacity:0.98419"
       id="path1645-8"
       cx="47.635223"
       cy="43.993137"
       rx="1.1350114"
       ry="0.99313498" /><ellipse
       style="fill:#ffff00;stroke:#02fd36;stroke-width:0;stroke-linejoin:bevel;stroke-dasharray:none;stroke-opacity:0.98419"
       id="path1645-5"
       cx="47.635223"
       cy="68.993134"
       rx="1.1350114"
       ry="0.99313498" /><ellipse
       style="fill:#ffff00;stroke:#02fd36;stroke-width:0;stroke-linejoin:bevel;stroke-dasharray:none;stroke-opacity:0.98419"
       id="path1645-86"
       cx="166.13522"
       cy="46.993137"
       rx="1.1350114"
       ry="0.99313498" /><ellipse
       style="fill:#ffff00;stroke:#02fd36;stroke-width:0;stroke-linejoin:bevel;stroke-dasharray:none;stroke-opacity:0.98419"
       id="path1645-0"
       cx="146.13522"
       cy="46.993137"
       rx="1.1350114"
       ry="0.99313498" /><ellipse
       style="fill:#ffff00;stroke:#02fd36;stroke-width:0;stroke-linejoin:bevel;stroke-dasharray:none;stroke-opacity:0.98419"
       id="path1645-84"
       cx="47.635223"
       cy="28.993135"
       rx="1.1350114"
       ry="0.99313498" /><ellipse
       style="fill:#ffff00;stroke:#02fd36;stroke-width:0;stroke-linejoin:bevel;stroke-dasharray:none;stroke-opacity:0.98419"
       id="path1645-8-1"
       cx="132.12149"
       cy="62.425625"
       rx="1.1350114"
       ry="0.99313498" /><ellipse
       style="fill:#ffff00;stroke:#02fd36;stroke-width:0;stroke-linejoin:bevel;stroke-dasharray:none;stroke-opacity:0.98419"
       id="path1645-8-1-7"
       cx="34.226749"
       cy="55.331806"
       rx="1.1350114"
       ry="0.99313498" /><circle
       style="opacity:1;fill:#ff0b0b;fill-opacity:1;stroke-width:0.26"
       id="path419-7-1-2"
       cx="131.40881"
       cy="62.336407"
       r="3.5" /><circle
       style="fill:#ffffff;fill-opacity:1;stroke-width:0.26"
       id="path419-7-1-2-3"
       cx="34.010502"
       cy="54.831806"
       r="3.5" /><circle
       style="fill:#0000d8;fill-opacity:1;stroke-width:0.26"
       id="path419-7-1-2-8"
       cx="95.325043"
       cy="47"
       r="3.5" /><circle
       style="fill:#000000;fill-opacity:1;stroke-width:0.26"
       id="path419-7-1-2-1"
       cx="165.95558"
       cy="47"
       r="3.5" /><circle
       style="fill:#e4b900;fill-opacity:1;stroke-width:0.26"
       id="path419-7-1-2-30"
       cx="47.5"
       cy="67.316933"
       r="3.5" /><circle
       style="fill:#007900;fill-opacity:1;stroke-width:0.26"
       id="path419-7-1-2-6"
       cx="47.5"
       cy="29.0103"
       r="3.5" /><circle
       style="fill:#824500;fill-opacity:1;stroke-width:0.26"
       id="path419-7-1-2-9"
       cx="47.5"
       cy="43.5"
       r="3.5" /><circle
       style="fill:#ff75ff;fill-opacity:1;stroke-width:0.26"
       id="path419-7-1-2-6-7"
       cx="145.41669"
       cy="47"
       r="3.5" /></g></svg>
