# Created with Anim8or 1.00
# Object "skin":

mtllib S_leg.mtl

g mesh01
# No. points 14:
v -0.66383 0.49155 -0.52159
v -0.66383 0.49155 0.52159
v 0.49955 0.49735 -0.52159
v -0.63670 0.49735 -0.52159
v -0.63670 0.49735 0.52159
v 0.49955 0.49735 0.52159
v 0.49955 -2.49735 -0.52159
v -0.63670 -2.49735 -0.52159
v 0.49955 -2.49735 0.52159
v -0.63670 -2.49735 0.52159
v 0.50264 0.49735 -0.52159
v 0.50264 0.49735 0.52159
v 0.50264 -2.49735 -0.52159
v 0.50264 -2.49735 0.52159

# No. normals 35:
vn 0 1 0
vn 0 0 -1
vn 1 0 0
vn -1 0 0
vn 0 0 1
vn 0 -1 0
vn -1 0 0
vn 0 1 0
vn 1 0 0
vn 0 0 -1
vn 0 1 0
vn -1 0 0
vn 0 0 -1
vn 0 1 0
vn 0 0 1
vn -1 0 0
vn 0 1 0
vn 0 0 1
vn 1 0 0
vn 0 0 -1
vn 0 -1 0
vn 1 0 0
vn 0 0 -1
vn 0 -1 0
vn -1 0 0
vn 1 0 0
vn 0 -1 0
vn 0 0 1
vn -1 0 0
vn 0 -1 0
vn 0 0 1
vn -1 0 0
vn -1 0 0
vn -1 0 0
vn -1 0 0

# No. texture coordinates 28:
vt 0.12456 0.37284
vt 0.12328 0.49573
vt 0.06226 0.49733
vt 0.06354 0.37444
vt 0.25021 0.37049
vt 0.25021 0.00137
vt 0.19064 -0.00131
vt 0.19064 0.36781
vt 0.00081 0.00962
vt 0.00081 0.37773
vt 0.05951 0.37773
vt 0.05951 0.00962
vt 0.00088 0.37336
vt 0.00088 0.01007
vt 0.06299 0.01007
vt 0.06299 0.37336
vt 0.06559 0.37591
vt 0.06538 0.00347
vt 0.12495 0.00334
vt 0.12516 0.37577
vt 0.17907 0.48994
vt 0.13039 0.48673
vt 0.12908 0.39799
vt 0.17776 0.40121
vt -0.00367 0.36814
vt 0.00376 -0.00228
vt 0.06596 -0.00253
vt 0.05853 0.36789

# No. faces 7:

usemtl skin

f 3/1/8 4/2/11 5/3/14 6/4/17
f 3/5/10 7/6/20 8/7/23 4/8/13
f 7/9/22 3/10/9 6/11/19 9/12/26
f 4/13/12 8/14/25 10/15/29 5/16/16
f 5/17/15 10/18/31 9/19/28 6/20/18
f 7/21/21 9/22/27 10/23/30 8/24/24
f 11/25/32 13/26/34 14/27/35 12/28/33

# End of Object "skin"
