# Created with Anim8or 1.00
# Object "parte_ca_nova00":

mtllib parte_ca_nova.mtl

# Shape "mesh01":
g mesh01
# No. points 12:
v -1 1 -1
v -1 -1 -1
v -1 -1 -1
v -1 1 -1
v -1 1 1
v 1 1 1
v 1 1 -1
v 1 -1 -1
v -1 1 1
v 1 -1 1
v -1 -1 1
v -1 -1 1

# No. normals 60:
vn 1 0 0
vn 0 1 0
vn 0 0 -1
vn 1 0 0
vn 0 -1 0
vn 1 0 0
vn -1 0 0
vn 0 0 1
vn 1 0 0
vn 1 0 0
vn 1 0 0
vn 1 0 0
vn 0 0 -1
vn 0 1 0
vn 1 0 0
vn 1 0 0
vn 0 -1 0
vn 0 0 -1
vn 1 0 0
vn -1 0 0
vn 1 0 0
vn 1 0 0
vn -1 0 0
vn 1 0 0
vn 0 1 0
vn 1 0 0
vn 0 0 1
vn 1 0 0
vn 0 1 0
vn 1 0 0
vn 0 0 1
vn 0 1 0
vn 1 0 0
vn 0 0 -1
vn 0 0 -1
vn 1 0 0
vn 0 -1 0
vn 1 0 0
vn 1 0 0
vn -1 0 0
vn 0 -1 0
vn 1 0 0
vn 0 0 1
vn 0 -1 0
vn 1 0 0
vn 0 0 1
vn 1 0 0
vn 1 0 0
vn 1 0 0
vn -1 0 0
vn 1 0 0
vn 0 1 0
vn 0 0 -1
vn 1 0 0
vn 0 -1 0
vn 1 0 0
vn -1 0 0
vn 0 0 1
vn 1 0 0
vn 1 0 0

# No. texture coordinates 26:
vt 0.37667 0.74927
vt 0.37590 0.50349
vt 0.12546 0.75591
vt 0.24915 0.75597
vt 0.24911 0.999932
vt 0.12583 0.999911
vt 0.50066 0.75001
vt 0.50002 0.50252
vt 0.25395 0.76186
vt 0.36922 0.76186
vt 0.36922 0.99181
vt 0.25395 0.99181
vt 1 1
vt 1 0
vt 0.12383 0.50126
vt 0.12418 0.75032
vt 0.00209 0.75348
vt 0.00133 0.50333
vt 0.12569 0.50332
vt 0.25078 0.50329
vt 0.25111 0.74884
vt 0.12624 0.74751
vt 0.24931 0.50422
vt 0.37488 0.50642
vt 0.37493 0.74962
vt 0.25010 0.74726

# No. faces 10:

usemtl skin

f 1/1/11 2/2/15 3/2/19 4/1/22
f 5/3/25 6/4/29 7/5/32 1/6/14
f 1/1/13 7/7/34 8/8/35 2/2/18
f 5/3/28 1/6/12 4/6/24 9/3/38
f 10/9/41 11/10/44 2/11/17 8/12/37
f 2/13/16 11/14/47 12/14/48 3/13/21
f 12/15/50 9/16/40 4/17/23 3/18/20
f 11/19/46 10/20/43 6/21/31 5/22/27
f 11/19/45 5/22/26 9/22/39 12/19/49
f 10/23/42 8/24/36 7/25/33 6/26/30

# End of Object "parte_ca_nova00"
