# Created with Anim8or 1.00
# Object "parte_perna":

mtllib parte_perna.mtl

# Shape "mesh01":
g mesh01
# No. points 8:
v 0.49955 0.49735 -0.52159
v -0.49943 0.49735 -0.52162
v -0.49943 0.49735 0.52156
v 0.49955 0.49735 0.52159
v 0.49900 -2.49735 -0.52155
v -0.50401 -2.50075 -0.52188
v 0.49900 -2.49735 0.52163
v -0.50401 -2.50075 0.52130

# No. normals 38:
vn 0 1 0
vn 0.00032 -0.00001 -1
vn 1 -0.00018 0
vn -0.999999 0.00153 0
vn -0.00032 0.00001 1
vn 0.00339 -0.999994 0
vn 0 1 0
vn 1 -0.00018 0
vn 0.00032 -0.00001 -1
vn 0 1 0
vn -0.999999 0.00153 0
vn 0.00032 -0.00001 -1
vn 0 1 0
vn -0.00032 0.00001 1
vn -0.999999 0.00153 0
vn 0 1 0
vn -0.00032 0.00001 1
vn 1 -0.00018 0
vn 0.00032 -0.00001 -1
vn 0.00339 -0.999994 0
vn 1 -0.00018 0
vn 0.00032 -0.00001 -1
vn 0.00339 -0.999994 0
vn -0.999999 0.00153 0
vn 1 -0.00018 0
vn 0.00339 -0.999994 0
vn -0.00032 0.00001 1
vn -0.999999 0.00153 0
vn 0.00339 -0.999994 0
vn -0.00032 0.00001 1
vn 0 1 0
vn 0.00032 -0.00001 -1
vn 1 -0.00018 0
vn -0.999999 0.00153 0
vn -0.00032 0.00001 1
vn 0.00339 -0.999994 0
vn -0.00032 0.00001 1
vn -0.00032 0.00001 1

# No. texture coordinates 24:
vt 0.12456 0.37284
vt 0.12328 0.49573
vt 0.06226 0.49733
vt 0.06354 0.37444
vt 0.25021 0.37049
vt 0.25021 0.00137
vt 0.19064 -0.00131
vt 0.19064 0.36781
vt 0.00081 0.00962
vt 0.00081 0.37773
vt 0.05951 0.37773
vt 0.05951 0.00962
vt 0.00088 0.37336
vt 0.00088 0.01007
vt 0.06299 0.01007
vt 0.06299 0.37336
vt 0.06559 0.37591
vt 0.06538 0.00347
vt 0.12495 0.00334
vt 0.12516 0.37577
vt 0.17907 0.48994
vt 0.13039 0.48673
vt 0.12908 0.39799
vt 0.17776 0.40121

# No. faces 6:

usemtl skin

f 1/1/7 2/2/10 3/3/13 4/4/16
f 1/5/9 5/6/19 6/7/22 2/8/12
f 5/9/21 1/10/8 4/11/18 7/12/25
f 2/13/11 6/14/24 8/15/28 3/16/15
f 3/17/14 8/18/30 7/19/27 4/20/17
f 5/21/20 7/22/26 8/23/29 6/24/23

# End of Object "parte_perna"
