# Created with Anim8or 1.00
# Object "parte_to":

mtllib parte_to_nova.mtl

# Shape "mesh01":
g mesh01
# No. points 8:
v 0.999524 -0.00050 -0.52263
v -1.00126 0.00070 -0.52198
v -1.00126 0.00070 0.52120
v 0.999524 -0.00050 0.52055
v 1.00564 -3.00589 -0.52122
v -1.00429 -3.00845 -0.52234
v 1.00564 -3.00589 0.52196
v -1.00429 -3.00845 0.52084

# No. normals 30:
vn 0.00060 1 0
vn 0.00056 -0.00047 -1
vn 0.999998 0.00204 0
vn -0.999999 0.00101 0
vn -0.00056 0.00047 1
vn 0.00127 -0.999999 0
vn 0.00060 1 0
vn 0.999998 0.00204 0
vn 0.00056 -0.00047 -1
vn 0.00060 1 0
vn -0.999999 0.00101 0
vn 0.00056 -0.00047 -1
vn 0.00060 1 0
vn -0.00056 0.00047 1
vn -0.999999 0.00101 0
vn 0.00060 1 0
vn -0.00056 0.00047 1
vn 0.999998 0.00204 0
vn 0.00056 -0.00047 -1
vn 0.00127 -0.999999 0
vn 0.999998 0.00204 0
vn 0.00056 -0.00047 -1
vn 0.00127 -0.999999 0
vn -0.999999 0.00101 0
vn 0.999998 0.00204 0
vn 0.00127 -0.999999 0
vn -0.00056 0.00047 1
vn -0.999999 0.00101 0
vn 0.00127 -0.999999 0
vn -0.00056 0.00047 1

# No. texture coordinates 24:
vt 0.43942 0.50107
vt 0.31304 0.49452
vt 0.31459 0.37352
vt 0.44096 0.38007
vt 0.62222 0.37526
vt 0.62550 0.00575
vt 0.50896 0.00051
vt 0.50568 0.37002
vt 0.50000 -0.00517
vt 0.50000 0.37078
vt 0.44121 0.37078
vt 0.44121 -0.00517
vt 0.30916 0.37336
vt 0.30916 -0.00251
vt 0.24963 -0.00251
vt 0.24963 0.37336
vt 0.31274 0.37222
vt 0.31274 0.00024
vt 0.43889 0.00024
vt 0.43889 0.37222
vt 0.18367 0.49436
vt 0.12758 0.49661
vt 0.12933 0.38243
vt 0.18543 0.38018

# No. faces 6:

usemtl skin

f 1/1/7 2/2/10 3/3/13 4/4/16
f 1/5/9 5/6/19 6/7/22 2/8/12
f 5/9/21 1/10/8 4/11/18 7/12/25
f 2/13/11 6/14/24 8/15/28 3/16/15
f 3/17/14 8/18/30 7/19/27 4/20/17
f 5/21/20 7/22/26 8/23/29 6/24/23

# End of Object "parte_to"
