# Created with Anim8or 1.00
# Object "parte_braco":

mtllib parte_braco_nova.mtl

# Shape "mesh01":
g mesh01
# No. points 8:
v -0.50034 -2.50024 -0.54557
v 0.50152 -2.50046 -0.56198
v 0.50136 -2.50029 0.48109
v -0.50050 -2.50027 0.49677
v -0.50015 0.50194 -0.51067
v 0.50313 0.50279 -0.52515
v -0.50030 0.50167 0.53182
v 0.50262 0.50172 0.51790

# No. normals 36:
vn -0.00002 -1 0.00016
vn -0.01445 0.01162 -0.999828
vn -1 0.00006 -0.00016
vn 1 -0.00043 0.00049
vn 0.01388 -0.01168 0.999835
vn -0.00005 1 0.00026
vn -0.00002 -1 0.00016
vn -1 0.00006 -0.00016
vn -0.01445 0.01162 -0.999828
vn -0.00002 -1 0.00016
vn 1 -0.00043 0.00049
vn -0.01445 0.01162 -0.999828
vn -0.00002 -1 0.00016
vn 0.01388 -0.01168 0.999835
vn 1 -0.00043 0.00049
vn -0.00002 -1 0.00016
vn 0.01388 -0.01168 0.999835
vn -1 0.00006 -0.00016
vn -0.01445 0.01162 -0.999828
vn -0.00005 1 0.00026
vn -1 0.00006 -0.00016
vn -0.01445 0.01162 -0.999828
vn -0.00005 1 0.00026
vn 1 -0.00043 0.00049
vn -1 0.00006 -0.00016
vn -0.00005 1 0.00026
vn 0.01388 -0.01168 0.999835
vn 1 -0.00043 0.00049
vn -0.00005 1 0.00026
vn 0.01388 -0.01168 0.999835
vn -0.00002 -1 0.00016
vn -0.01445 0.01162 -0.999828
vn -1 0.00006 -0.00016
vn 1 -0.00043 0.00049
vn 0.01388 -0.01168 0.999835
vn -0.00005 1 0.00026

# No. texture coordinates 24:
vt 0.81075 0.38591
vt 0.81127 0.49973
vt 0.75968 0.49973
vt 0.75915 0.38592
vt 0.74719 0.00197
vt 0.74835 0.36456
vt 0.69304 0.36466
vt 0.69188 0.00208
vt 0.69235 0.37221
vt 0.69712 0.00677
vt 0.75524 0.00703
vt 0.75047 0.37247
vt 0.75223 0.00355
vt 0.75394 0.37240
vt 0.69057 0.37861
vt 0.68885 0.00976
vt 0.75609 0.00696
vt 0.75669 0.36321
vt 0.68955 0.36471
vt 0.68895 0.00846
vt 0.68692 0.37817
vt 0.74993 0.37817
vt 0.74929 0.50074
vt 0.68628 0.50074

# No. faces 6:

usemtl skin

f 1/1/7 2/2/10 3/3/13 4/4/16
f 1/5/9 5/6/19 6/7/22 2/8/12
f 5/9/21 1/10/8 4/11/18 7/12/25
f 2/13/11 6/14/24 8/15/28 3/16/15
f 3/17/14 8/18/30 7/19/27 4/20/17
f 5/21/20 7/22/26 8/23/29 6/24/23

# End of Object "parte_braco"
