# Created with Anim8or 1.00
# Object "skin":

mtllib V_head.mtl

g mesh01
# No. points 16:
v -1.00657 0.97403 -1
v -0.99338 -1.02592 -1
v -0.99338 -1.02592 -1
v -1.00657 0.97403 -1
v -1.00657 0.97403 1
v 0.99338 0.98722 0.999999
v 0.99338 0.98722 -1
v 1.00657 -1.01273 -1
v -1.00657 0.97403 1
v 1.00657 -1.01273 1
v -0.99338 -1.02592 1
v -0.99338 -1.02592 1
v 1.13161 -1.01374 -0.52159
v -1.16383 -1.01374 -0.52159
v -1.16383 -1.01374 0.52159
v 1.13161 -1.01374 0.52159

# No. normals 55:
vn 1 0 0
vn -0.00660 0.999978 0
vn 0 0 -1
vn 1 0 0
vn 0.00659 -0.999978 0
vn 1 0 0
vn -0.999978 -0.00660 0
vn 0 0 1
vn 1 0 0
vn 0.999978 0.00660 0
vn 0 1 0
vn 0 0 1
vn 0 0 1
vn 0 0 -1
vn -0.00660 0.999978 0
vn 0 0 1
vn 0 0 1
vn 0.00659 -0.999978 0
vn 0 0 -1
vn 0 0 1
vn -0.999978 -0.00660 0
vn 0 0 1
vn 0 0 1
vn -0.999978 -0.00660 0
vn 0 0 1
vn -0.00660 0.999978 0
vn 0 0 1
vn 0 0 1
vn 0 0 1
vn -0.00660 0.999978 0
vn 0.999978 0.00660 0
vn 0 0 1
vn -0.00660 0.999978 0
vn 0.999978 0.00660 0
vn 0 0 -1
vn 0 0 -1
vn 0.999978 0.00660 0
vn 0.00659 -0.999978 0
vn 0 0 1
vn 0 0 1
vn -0.999978 -0.00660 0
vn 0.00659 -0.999978 0
vn 0.999978 0.00660 0
vn 0 0 1
vn 0.00659 -0.999978 0
vn 0 0 1
vn 0 0 1
vn 0 0 1
vn 0 0 1
vn 0 0 1
vn -0.999978 -0.00660 0
vn 0 1 0
vn 0 1 0
vn 0 1 0
vn 0 1 0

# No. texture coordinates 30:
vt 0.37667 0.74927
vt 0.37590 0.50349
vt 0.12546 0.75591
vt 0.24915 0.75597
vt 0.24911 0.999932
vt 0.12583 0.999911
vt 0.50066 0.75001
vt 0.50002 0.50252
vt 0.25395 0.76186
vt 0.36922 0.76186
vt 0.36922 0.99181
vt 0.25395 0.99181
vt 1 1
vt 1 0
vt 0.12383 0.50126
vt 0.12418 0.75032
vt 0.00209 0.75348
vt 0.00133 0.50333
vt 0.12569 0.50332
vt 0.25078 0.50329
vt 0.25111 0.74884
vt 0.12624 0.74751
vt 0.24931 0.50422
vt 0.37488 0.50642
vt 0.37493 0.74962
vt 0.25010 0.74726
vt 0.43942 0.50107
vt 0.31304 0.49452
vt 0.31459 0.37352
vt 0.44096 0.38007

# No. faces 11:

usemtl skin

f 1/1/12 2/2/16 3/2/20 4/1/23
f 5/3/26 6/4/30 7/5/33 1/6/15
f 1/1/14 7/7/35 8/8/36 2/2/19
f 5/3/29 1/6/13 4/6/25 9/3/39
f 10/9/42 11/10/45 2/11/18 8/12/38
f 2/13/17 11/14/48 12/14/49 3/13/22
f 12/15/51 9/16/41 4/17/24 3/18/21
f 11/19/47 10/20/44 6/21/32 5/22/28
f 11/19/46 5/22/27 9/22/40 12/19/50
f 10/23/43 8/24/37 7/25/34 6/26/31
f 13/27/52 14/28/53 15/29/54 16/30/55

# End of Object "skin"
