<?xml version="1.0" encoding="utf-8"?>
<!-- Generator: Adobe Illustrator 16.0.0, SVG Export Plug-In . SVG Version: 6.00 Build 0)  -->
<!DOCTYPE svg PUBLIC "-//W3C//DTD SVG 1.1//EN" "http://www.w3.org/Graphics/SVG/1.1/DTD/svg11.dtd">
<svg version="1.1" id="Capa_1" xmlns="http://www.w3.org/2000/svg" xmlns:xlink="http://www.w3.org/1999/xlink" x="0px" y="0px"
	 width="159.387px" height="98.599px" viewBox="0 0 159.387 98.599" enable-background="new 0 0 159.387 98.599"
	 xml:space="preserve">
<g>
	<g>
		<path d="M85.929,98.599c-4.133,0-8.264,0-12.395,0c-0.543-0.079-1.084-0.203-1.629-0.228c-7.574-0.362-15.039-1.498-22.373-3.385
			c-13.379-3.441-25.807-8.825-36.145-18.279C7.495,71.32,3.018,64.99,0.979,57.147C0.567,55.564,0.321,53.936,0,52.33
			c0-2.021,0-4.039,0-6.061c0.421-1.961,0.719-3.957,1.285-5.875c2.67-9.021,8.385-15.9,15.67-21.531
			C31.037,7.979,47.39,2.985,64.785,0.842c2.908-0.357,5.832-0.564,8.75-0.842c4.039,0,8.078,0,12.117,0
			c4.232,0.451,8.479,0.783,12.691,1.375c11.455,1.604,22.42,4.852,32.703,10.213c8.43,4.395,15.939,9.951,21.533,17.77
			c6.301,8.807,8.514,18.484,5.428,29.01c-2.555,8.713-8.105,15.43-15.115,20.953c-14.184,11.176-30.73,16.258-48.357,18.438
			C91.675,98.113,88.798,98.322,85.929,98.599z"/>
	</g>
	<path fill="#F2D836" d="M82.273,94.232C85,94.008,90.4,93.699,95.767,93.092c10.479-1.188,20.578-3.883,30.17-8.299
		c8.803-4.054,16.803-9.262,22.709-17.133c7.162-9.545,8.818-19.86,3.59-30.834c-3.258-6.834-8.518-11.998-14.666-16.267
		c-12.717-8.828-27.086-13.096-42.256-15.044c-9.402-1.207-18.826-1.26-28.265-0.324c-9.891,0.979-19.521,3.063-28.777,6.697
		c-10.055,3.945-19.25,9.239-26.318,17.644c-4.671,5.554-7.626,11.863-7.768,19.232c-0.165,8.646,3.449,15.79,9.162,22.007
		c5.838,6.352,12.986,10.84,20.797,14.324C48.604,91.545,63.868,94.034,82.273,94.232z"/>
	<path d="M107.08,11.162c4.771,1.69,9.576,3.293,14.309,5.092c6.527,2.481,12.773,5.531,18.279,9.908
		c5.646,4.488,9.9,9.953,11.281,17.203c2.162,11.367-0.883,21.076-10.08,28.302c-5.061,3.975-10.617,7.313-15.951,10.94
		c-0.139-0.129-0.279-0.257-0.42-0.387c0.354-0.829,0.693-1.666,1.066-2.486c1.221-2.688,2.248-5.369,1.73-8.457
		c-0.73-4.371-3.699-6.592-8.129-5.91c-3.277,0.506-6.242,1.777-8.959,3.634c-3.422,2.339-4.453,3.638-6.734,8.199
		c-0.627-1.182-1.174-2.431-1.908-3.562c-2.422-3.729-6.057-4.717-10.012-2.658c-4.895,2.547-7.848,6.776-9.738,11.805
		c-0.633,1.682-0.947,3.484-1.451,5.398c-0.176-0.531-0.32-0.967-0.459-1.406c-1.902-6.027-4.963-11.309-9.973-15.303
		c-0.742-0.593-1.6-1.087-2.475-1.461c-2.74-1.17-5.353-0.569-7.074,1.869c-1.217,1.724-2.078,3.697-3.09,5.543
		c-2.045-3.512-4.682-6.72-8.059-9.268c-2.289-1.729-4.766-3.051-7.67-3.463c-5.256-0.747-9.925,3.696-8.604,9.75
		c0.491,2.25,1.911,4.3,2.946,6.422c0.234,0.479,0.631,0.879,0.801,1.633c-1.637-0.586-3.32-1.065-4.902-1.772
		C21.807,76.26,14.24,69.249,10.239,58.943C6,48.021,8.494,38.252,16.247,29.717c4.735-5.214,10.681-8.748,16.974-11.722
		c6.385-3.015,13.073-5.219,19.844-7.181c0.122-0.035,0.263-0.004,0.43-0.004c-4.322,6.029-5.92,12.828-5.779,20.076
		c0.061,3.184,0.822,6.208,2.672,8.947c3.01,4.459,12.594,5.53,15.637-1.574c1.152-2.689,1.876-5.668,2.216-8.58
		c0.676-5.82,0.951-11.688,1.516-17.634c2.328,4.069,5.621,6.489,10.396,6.432c4.701-0.056,8.143-2.269,10.697-6.282
		c0.193,2.719,0.338,5.441,0.592,8.154c0.414,4.419,0.842,8.84,1.387,13.243c0.16,1.296,0.648,2.577,1.146,3.798
		c1.633,3.999,4.506,6.009,8.518,5.965c4.193-0.044,7.141-2.062,8.795-5.889c1.988-4.598,1.887-9.375,0.965-14.174
		C111.414,18.934,109.871,14.862,107.08,11.162z"/>
</g>
</svg>
