<svg xmlns="http://www.w3.org/2000/svg" viewBox="0 0 64 64" width="64px" height="64px"><path fill="#9fddff" d="M27 25H37V41H27z"/><path fill="#c2cde7" d="M51.5 39.74l5.36-13.45A30 30 0 0 0 59 15.18V9a2 2 0 0 0-2-2H39a2 2 0 0 0-2 2V41H49.64A2 2 0 0 0 51.5 39.74zM27 41V9a2 2 0 0 0-2-2H7A2 2 0 0 0 5 9v6.18A30 30 0 0 0 7.13 26.29L12.5 39.74A2 2 0 0 0 14.36 41z"/><path fill="#acb7d0" d="M17.5,39.74,12.13,26.29A30,30,0,0,1,10,15.18V7.72c0-1.1.9-.72,2-.72H7A2,2,0,0,0,5,9v6.18A30,30,0,0,0,7.13,26.29L12.5,39.74A2,2,0,0,0,14.36,41h5A2,2,0,0,1,17.5,39.74Z"/><path fill="#ced8ed" d="M46.5,39.74l5.36-13.45A30,30,0,0,0,54,15.18V7.72c0-1.1-.9-.72-2-.72h5a2,2,0,0,1,2,2v6.18a30,30,0,0,1-2.13,11.11L51.5,39.74A2,2,0,0,1,49.64,41h-5A2,2,0,0,0,46.5,39.74Z"/><path fill="#85cbf8" d="M29,29h8a0,0,0,0,1,0,0V63a0,0,0,0,1,0,0H29a2,2,0,0,1-2-2V31A2,2,0,0,1,29,29Z" transform="rotate(-90 32 46)"/><path fill="#7bbeeb" d="M18,46H46a3,3,0,0,1,3,3v0a2,2,0,0,1-2,2H17a2,2,0,0,1-2-2v0a3,3,0,0,1,3-3Z"/><path fill="#acb7d0" d="M43,41H37V12c-.77-2.95,1.08-5.6,4.37-5H43Z"/><path fill="#ced8ed" d="M21,41h6V12c-.08-4.51-1.08-5.6-4.37-5H21Z"/><path fill="#9fddff" d="M48 3c-5 0-9 1.79-9 4H57C57 4.79 53 3 48 3zM16 3C11 3 7 4.79 7 7H25C25 4.79 21 3 16 3z"/><path fill="#c2cde7" d="M38 50H44V58H38z" transform="rotate(-90 41 54)"/><path fill="#85cbf8" d="M37,57h8a2,2,0,0,1,2,2h0a2,2,0,0,1-2,2H37a2,2,0,0,1-2-2h0A2,2,0,0,1,37,57Z"/><path fill="#c2cde7" d="M20 50H26V58H20z" transform="rotate(-90 23 54)"/><path fill="#85cbf8" d="M19,57h8a2,2,0,0,1,2,2h0a2,2,0,0,1-2,2H19a2,2,0,0,1-2-2h0A2,2,0,0,1,19,57Z"/><path fill="#8d6c9f" d="M57.85,6.14C57.08,3.73,53.11,2,48,2s-9.08,1.73-9.85,4.14A3,3,0,0,0,36,9V24H33V22a1,1,0,0,0,0-2H31a1,1,0,0,0,0,2v2H28V9a3,3,0,0,0-2.15-2.86C25.08,3.73,21.11,2,16,2S6.92,3.73,6.15,6.14A3,3,0,0,0,4,9v6.18A30.86,30.86,0,0,0,6.21,26.66l5.36,13.45A3,3,0,0,0,14,42v7a3,3,0,0,0,3,3h1v4.18A3,3,0,0,0,19,62h8a3,3,0,0,0,1-5.82V52h8v4.18A3,3,0,0,0,37,62h8a3,3,0,0,0,1-5.82V52h1a3,3,0,0,0,3-3V42a3,3,0,0,0,2.43-1.86l5.36-13.45A30.86,30.86,0,0,0,60,15.18V9A3,3,0,0,0,57.85,6.14ZM55.42,6H40.58C41.7,5,44.36,4,48,4S54.3,5,55.42,6ZM39,8H57a1,1,0,0,1,1,1v1H38V9A1,1,0,0,1,39,8ZM36,26V40H28V26ZM23.42,6H8.58C9.7,5,12.36,4,16,4S22.3,5,23.42,6ZM7,8H25a1,1,0,0,1,1,1v1H6V9A1,1,0,0,1,7,8Zm6.43,31.37L8.06,25.92A28.87,28.87,0,0,1,6,15.18V12H26V40H14.36A1,1,0,0,1,13.43,39.37ZM27,60H19a1,1,0,0,1,0-2h8a1,1,0,0,1,0,2Zm-1-4H20V52h6Zm19,4H37a1,1,0,0,1,0-2h8a1,1,0,0,1,0,2Zm-1-4H38V52h6Zm4-7a1,1,0,0,1-1,1H17a1,1,0,0,1-1-1V42H48Zm7.94-23.08L50.57,39.37h0a1,1,0,0,1-.93.63H38V12H58v3.18A28.87,28.87,0,0,1,55.94,25.92Z"/><path fill="#8d6c9f" d="M35 44a1 1 0 0 0-1 1v2a1 1 0 0 0 2 0V45A1 1 0 0 0 35 44zM29 44a1 1 0 0 0-1 1v2a1 1 0 0 0 2 0V45A1 1 0 0 0 29 44zM24 44a1 1 0 0 0-1 1v2a1 1 0 0 0 2 0V45A1 1 0 0 0 24 44zM19 44a1 1 0 0 0-1 1v2a1 1 0 0 0 2 0V45A1 1 0 0 0 19 44zM40 48a1 1 0 0 0 1-1V45a1 1 0 0 0-2 0v2A1 1 0 0 0 40 48zM45 48a1 1 0 0 0 1-1V45a1 1 0 0 0-2 0v2A1 1 0 0 0 45 48z"/></svg>