<svg xmlns="http://www.w3.org/2000/svg" viewBox="0 0 64 64" width="64px" height="64px"><radialGradient id="26gM5QGg5VWjfSyWfmCf6a" cx="33.042" cy="32.085" r="36.142" gradientTransform="matrix(1 0 0 -1 0 66)" gradientUnits="userSpaceOnUse"><stop offset="0" stop-color="#afeeff"/><stop offset=".193" stop-color="#bbf1ff"/><stop offset=".703" stop-color="#d7f8ff"/><stop offset="1" stop-color="#e1faff"/></radialGradient><path fill="url(#26gM5QGg5VWjfSyWfmCf6a)" d="M62.98,59.41C62.77,61.49,60.9,63,58.81,63H4c-2.34,0-4.22-2.03-3.98-4.41	C0.23,56.51,2.1,55,4.19,55H5c1.11,0,2-0.9,2-2c0-0.55-0.22-1.05-0.58-1.41C6.06,51.22,5.56,51,5,51c-1.65,0-3-1.35-3-3s1.35-3,3-3	h17V33H5c-2.34,0-4.22-2.03-3.98-4.41C1.23,26.51,3.1,25,5.19,25H8.5c1.93,0,3.5-1.57,3.5-3.5S10.43,18,8.5,18h-2	c-2.4,0-4.36-1.87-4.49-4.24C2,13.67,2,13.59,2,13.5c0-1.24,0.5-2.37,1.32-3.18C4.13,9.5,5.26,9,6.5,9h13.23	c0-0.01,0.01-0.01,0.01-0.02C20.46,8.86,21,8.25,21,7.5C21,6.67,20.33,6,19.5,6h-4c-1.47,0-2.64-1.26-2.49-2.76	C13.14,1.94,14.34,1,15.64,1H48.5c1.47,0,2.64,1.26,2.49,2.76C50.86,5.06,49.66,6,48.36,6H45.5C44.67,6,44,6.67,44,7.5	S44.67,9,45.5,9h14c1.47,0,2.64,1.26,2.49,2.76c-0.13,1.3-1.33,2.24-2.63,2.24H59c-1.1,0-2,0.9-2,2s0.9,2,2,2h0.81	c2.09,0,3.96,1.51,4.17,3.59C64.22,23.97,62.33,26,60,26H42v7h17c1.65,0,3,1.35,3,3s-1.35,3-3,3h-9c-1.38,0-2.5,1.12-2.5,2.5	S48.62,44,50,44h10.5c1.92,0,3.5,1.58,3.5,3.5S62.42,51,60.5,51H59c-1.1,0-2,0.9-2,2s0.9,2,2,2C61.33,55,63.22,57.03,62.98,59.41z"/><linearGradient id="26gM5QGg5VWjfSyWfmCf6b" x1="32" x2="32" y1="10.14" y2="54.064" gradientTransform="matrix(1 0 0 -1 0 66)" gradientUnits="userSpaceOnUse"><stop offset="0" stop-color="#155cde"/><stop offset="1" stop-color="#2eb5f0"/></linearGradient><path fill="url(#26gM5QGg5VWjfSyWfmCf6b)" d="M45,57H19c-5.5,0-10-4.5-10-10V21c0-5.5,4.5-10,10-10h26c5.5,0,10,4.5,10,10v26	C55,52.5,50.5,57,45,57z"/><circle cx="20" cy="24.5" r="2.5" fill="#fff"/><circle cx="29" cy="24.5" r="3.5" fill="#fff"/><circle cx="40.5" cy="25" r="5" fill="#fff"/><path fill="#fff" d="M40.5,32L40.5,32c4.418,0,8,3.582,8,8v6c0,1.105-0.895,2-2,2h-12c-1.105,0-2-0.895-2-2v-6	C32.5,35.582,36.082,32,40.5,32z"/><path fill="#fff" d="M32.5,44h-7c-1.105,0-2-0.895-2-2v-6.5c0-3.038,2.462-5.5,5.5-5.5l0,0c3.038,0,5.5,2.462,5.5,5.5V42	C34.5,43.105,33.605,44,32.5,44z"/><path fill="#fff" d="M22.5,40h-5c-1.105,0-2-0.895-2-2v-4.5c0-2.485,2.015-4.5,4.5-4.5l0,0c2.485,0,4.5,2.015,4.5,4.5V38	C24.5,39.105,23.605,40,22.5,40z"/></svg>