# Created with Anim8or 1.00
# Object "Simplebed":

mtllib cama138x188.mtl

# Begin Group:
# Shape "cube18":
g cube18
# No. points 8:
v -81.5 0.50000 -72.5
v -81.5 0.50000 72.5
v -81.5 5.5 -72.5
v -81.5 5.5 72.5
v -78.5 0.50000 -72.5
v -78.5 0.50000 72.5
v -78.5 5.5 -72.5
v -78.5 5.5 72.5

# No. normals 30:
vn 0 0 -1
vn 0 0 1
vn -1 0 0
vn 1 0 0
vn 0 1 0
vn 0 -1 0
vn 0 0 -1
vn 0 -1 0
vn -1 0 0
vn 0 0 1
vn 0 -1 0
vn -1 0 0
vn 0 0 -1
vn 0 1 0
vn -1 0 0
vn 0 0 1
vn 0 1 0
vn -1 0 0
vn 0 0 -1
vn 0 -1 0
vn 1 0 0
vn 0 0 1
vn 0 -1 0
vn 1 0 0
vn 0 0 -1
vn 0 1 0
vn 1 0 0
vn 0 0 1
vn 0 1 0
vn 1 0 0

# No. texture coordinates 8:
vt 0 0
vt 0 0
vt 0 1
vt 0 1
vt 1 0
vt 1 0
vt 1 1
vt 1 1

# No. faces 6:

usemtl material02

f 3/3/13 7/7/25 5/5/19 1/1/7
f 6/6/22 8/8/28 4/4/16 2/2/10
f 2/2/12 4/4/18 3/3/15 1/1/9
f 7/7/27 8/8/30 6/6/24 5/5/21
f 4/4/17 8/8/29 7/7/26 3/3/14
f 5/5/20 6/6/23 2/2/11 1/1/8

# Shape "cube19":
g cube19
# No. points 8:
v 78.5 0.75000 -72.5
v 78.5 0.75000 72.5
v 78.5 5.75 -72.5
v 78.5 5.75 72.5
v 81.5 0.75000 -72.5
v 81.5 0.75000 72.5
v 81.5 5.75 -72.5
v 81.5 5.75 72.5

# No. normals 30:
vn 0 0 -1
vn 0 0 1
vn -1 0 0
vn 1 0 0
vn 0 1 0
vn 0 -1 0
vn 0 0 -1
vn 0 -1 0
vn -1 0 0
vn 0 0 1
vn 0 -1 0
vn -1 0 0
vn 0 0 -1
vn 0 1 0
vn -1 0 0
vn 0 0 1
vn 0 1 0
vn -1 0 0
vn 0 0 -1
vn 0 -1 0
vn 1 0 0
vn 0 0 1
vn 0 -1 0
vn 1 0 0
vn 0 0 -1
vn 0 1 0
vn 1 0 0
vn 0 0 1
vn 0 1 0
vn 1 0 0

# No. texture coordinates 8:
vt 0 0
vt 0 0
vt 0 1
vt 0 1
vt 1 0
vt 1 0
vt 1 1
vt 1 1

# No. faces 6:

usemtl material02

f 11/11/43 15/15/55 13/13/49 9/9/37
f 14/14/52 16/16/58 12/12/46 10/10/40
f 10/10/42 12/12/48 11/11/45 9/9/39
f 15/15/57 16/16/60 14/14/54 13/13/51
f 12/12/47 16/16/59 15/15/56 11/11/44
f 13/13/50 14/14/53 10/10/41 9/9/38

# Shape "cube12":
g cube12
# No. points 8:
v -61.5 0.50000 -72.5
v -61.5 0.50000 72.5
v -61.5 5.5 -72.5
v -61.5 5.5 72.5
v -58.5 0.50000 -72.5
v -58.5 0.50000 72.5
v -58.5 5.5 -72.5
v -58.5 5.5 72.5

# No. normals 30:
vn 0 0 -1
vn 0 0 1
vn -1 0 0
vn 1 0 0
vn 0 1 0
vn 0 -1 0
vn 0 0 -1
vn 0 -1 0
vn -1 0 0
vn 0 0 1
vn 0 -1 0
vn -1 0 0
vn 0 0 -1
vn 0 1 0
vn -1 0 0
vn 0 0 1
vn 0 1 0
vn -1 0 0
vn 0 0 -1
vn 0 -1 0
vn 1 0 0
vn 0 0 1
vn 0 -1 0
vn 1 0 0
vn 0 0 -1
vn 0 1 0
vn 1 0 0
vn 0 0 1
vn 0 1 0
vn 1 0 0

# No. texture coordinates 8:
vt 0 0
vt 0 0
vt 0 1
vt 0 1
vt 1 0
vt 1 0
vt 1 1
vt 1 1

# No. faces 6:

usemtl material02

f 19/19/73 23/23/85 21/21/79 17/17/67
f 22/22/82 24/24/88 20/20/76 18/18/70
f 18/18/72 20/20/78 19/19/75 17/17/69
f 23/23/87 24/24/90 22/22/84 21/21/81
f 20/20/77 24/24/89 23/23/86 19/19/74
f 21/21/80 22/22/83 18/18/71 17/17/68

# Shape "cube17":
g cube17
# No. points 8:
v 58.5 0.50000 -72.5
v 58.5 0.50000 72.5
v 58.5 5.5 -72.5
v 58.5 5.5 72.5
v 61.5 0.50000 -72.5
v 61.5 0.50000 72.5
v 61.5 5.5 -72.5
v 61.5 5.5 72.5

# No. normals 30:
vn 0 0 -1
vn 0 0 1
vn -1 0 0
vn 1 0 0
vn 0 1 0
vn 0 -1 0
vn 0 0 -1
vn 0 -1 0
vn -1 0 0
vn 0 0 1
vn 0 -1 0
vn -1 0 0
vn 0 0 -1
vn 0 1 0
vn -1 0 0
vn 0 0 1
vn 0 1 0
vn -1 0 0
vn 0 0 -1
vn 0 -1 0
vn 1 0 0
vn 0 0 1
vn 0 -1 0
vn 1 0 0
vn 0 0 -1
vn 0 1 0
vn 1 0 0
vn 0 0 1
vn 0 1 0
vn 1 0 0

# No. texture coordinates 8:
vt 0 0
vt 0 0
vt 0 1
vt 0 1
vt 1 0
vt 1 0
vt 1 1
vt 1 1

# No. faces 6:

usemtl material02

f 27/27/103 31/31/115 29/29/109 25/25/97
f 30/30/112 32/32/118 28/28/106 26/26/100
f 26/26/102 28/28/108 27/27/105 25/25/99
f 31/31/117 32/32/120 30/30/114 29/29/111
f 28/28/107 32/32/119 31/31/116 27/27/104
f 29/29/110 30/30/113 26/26/101 25/25/98

# Shape "cube16":
g cube16
# No. points 8:
v 38.5 0.50000 -72.5
v 38.5 0.50000 72.5
v 38.5 5.5 -72.5
v 38.5 5.5 72.5
v 41.5 0.50000 -72.5
v 41.5 0.50000 72.5
v 41.5 5.5 -72.5
v 41.5 5.5 72.5

# No. normals 30:
vn 0 0 -1
vn 0 0 1
vn -1 0 0
vn 1 0 0
vn 0 1 0
vn 0 -1 0
vn 0 0 -1
vn 0 -1 0
vn -1 0 0
vn 0 0 1
vn 0 -1 0
vn -1 0 0
vn 0 0 -1
vn 0 1 0
vn -1 0 0
vn 0 0 1
vn 0 1 0
vn -1 0 0
vn 0 0 -1
vn 0 -1 0
vn 1 0 0
vn 0 0 1
vn 0 -1 0
vn 1 0 0
vn 0 0 -1
vn 0 1 0
vn 1 0 0
vn 0 0 1
vn 0 1 0
vn 1 0 0

# No. texture coordinates 8:
vt 0 0
vt 0 0
vt 0 1
vt 0 1
vt 1 0
vt 1 0
vt 1 1
vt 1 1

# No. faces 6:

usemtl material02

f 35/35/133 39/39/145 37/37/139 33/33/127
f 38/38/142 40/40/148 36/36/136 34/34/130
f 34/34/132 36/36/138 35/35/135 33/33/129
f 39/39/147 40/40/150 38/38/144 37/37/141
f 36/36/137 40/40/149 39/39/146 35/35/134
f 37/37/140 38/38/143 34/34/131 33/33/128

# Shape "cube15":
g cube15
# No. points 8:
v 18.5 0.50000 -72.5
v 18.5 0.50000 72.5
v 18.5 5.5 -72.5
v 18.5 5.5 72.5
v 21.5 0.50000 -72.5
v 21.5 0.50000 72.5
v 21.5 5.5 -72.5
v 21.5 5.5 72.5

# No. normals 30:
vn 0 0 -1
vn 0 0 1
vn -1 0 0
vn 1 0 0
vn 0 1 0
vn 0 -1 0
vn 0 0 -1
vn 0 -1 0
vn -1 0 0
vn 0 0 1
vn 0 -1 0
vn -1 0 0
vn 0 0 -1
vn 0 1 0
vn -1 0 0
vn 0 0 1
vn 0 1 0
vn -1 0 0
vn 0 0 -1
vn 0 -1 0
vn 1 0 0
vn 0 0 1
vn 0 -1 0
vn 1 0 0
vn 0 0 -1
vn 0 1 0
vn 1 0 0
vn 0 0 1
vn 0 1 0
vn 1 0 0

# No. texture coordinates 8:
vt 0 0
vt 0 0
vt 0 1
vt 0 1
vt 1 0
vt 1 0
vt 1 1
vt 1 1

# No. faces 6:

usemtl material02

f 43/43/163 47/47/175 45/45/169 41/41/157
f 46/46/172 48/48/178 44/44/166 42/42/160
f 42/42/162 44/44/168 43/43/165 41/41/159
f 47/47/177 48/48/180 46/46/174 45/45/171
f 44/44/167 48/48/179 47/47/176 43/43/164
f 45/45/170 46/46/173 42/42/161 41/41/158

# Shape "cube14":
g cube14
# No. points 8:
v -1.5 0.50000 -72.5
v -1.5 0.50000 72.5
v -1.5 5.5 -72.5
v -1.5 5.5 72.5
v 1.5 0.50000 -72.5
v 1.5 0.50000 72.5
v 1.5 5.5 -72.5
v 1.5 5.5 72.5

# No. normals 30:
vn 0 0 -1
vn 0 0 1
vn -1 0 0
vn 1 0 0
vn 0 1 0
vn 0 -1 0
vn 0 0 -1
vn 0 -1 0
vn -1 0 0
vn 0 0 1
vn 0 -1 0
vn -1 0 0
vn 0 0 -1
vn 0 1 0
vn -1 0 0
vn 0 0 1
vn 0 1 0
vn -1 0 0
vn 0 0 -1
vn 0 -1 0
vn 1 0 0
vn 0 0 1
vn 0 -1 0
vn 1 0 0
vn 0 0 -1
vn 0 1 0
vn 1 0 0
vn 0 0 1
vn 0 1 0
vn 1 0 0

# No. texture coordinates 8:
vt 0 0
vt 0 0
vt 0 1
vt 0 1
vt 1 0
vt 1 0
vt 1 1
vt 1 1

# No. faces 6:

usemtl material02

f 51/51/193 55/55/205 53/53/199 49/49/187
f 54/54/202 56/56/208 52/52/196 50/50/190
f 50/50/192 52/52/198 51/51/195 49/49/189
f 55/55/207 56/56/210 54/54/204 53/53/201
f 52/52/197 56/56/209 55/55/206 51/51/194
f 53/53/200 54/54/203 50/50/191 49/49/188

# Shape "cube13":
g cube13
# No. points 8:
v -21.5 0.50000 -72.5
v -21.5 0.50000 72.5
v -21.5 5.5 -72.5
v -21.5 5.5 72.5
v -18.5 0.50000 -72.5
v -18.5 0.50000 72.5
v -18.5 5.5 -72.5
v -18.5 5.5 72.5

# No. normals 30:
vn 0 0 -1
vn 0 0 1
vn -1 0 0
vn 1 0 0
vn 0 1 0
vn 0 -1 0
vn 0 0 -1
vn 0 -1 0
vn -1 0 0
vn 0 0 1
vn 0 -1 0
vn -1 0 0
vn 0 0 -1
vn 0 1 0
vn -1 0 0
vn 0 0 1
vn 0 1 0
vn -1 0 0
vn 0 0 -1
vn 0 -1 0
vn 1 0 0
vn 0 0 1
vn 0 -1 0
vn 1 0 0
vn 0 0 -1
vn 0 1 0
vn 1 0 0
vn 0 0 1
vn 0 1 0
vn 1 0 0

# No. texture coordinates 8:
vt 0 0
vt 0 0
vt 0 1
vt 0 1
vt 1 0
vt 1 0
vt 1 1
vt 1 1

# No. faces 6:

usemtl material02

f 59/59/223 63/63/235 61/61/229 57/57/217
f 62/62/232 64/64/238 60/60/226 58/58/220
f 58/58/222 60/60/228 59/59/225 57/57/219
f 63/63/237 64/64/240 62/62/234 61/61/231
f 60/60/227 64/64/239 63/63/236 59/59/224
f 61/61/230 62/62/233 58/58/221 57/57/218

# Shape "cube10":
g cube10
# No. points 8:
v -41.5 0.50000 -72.5
v -41.5 0.50000 72.5
v -41.5 5.5 -72.5
v -41.5 5.5 72.5
v -38.5 0.50000 -72.5
v -38.5 0.50000 72.5
v -38.5 5.5 -72.5
v -38.5 5.5 72.5

# No. normals 30:
vn 0 0 -1
vn 0 0 1
vn -1 0 0
vn 1 0 0
vn 0 1 0
vn 0 -1 0
vn 0 0 -1
vn 0 -1 0
vn -1 0 0
vn 0 0 1
vn 0 -1 0
vn -1 0 0
vn 0 0 -1
vn 0 1 0
vn -1 0 0
vn 0 0 1
vn 0 1 0
vn -1 0 0
vn 0 0 -1
vn 0 -1 0
vn 1 0 0
vn 0 0 1
vn 0 -1 0
vn 1 0 0
vn 0 0 -1
vn 0 1 0
vn 1 0 0
vn 0 0 1
vn 0 1 0
vn 1 0 0

# No. texture coordinates 8:
vt 0 0
vt 0 0
vt 0 1
vt 0 1
vt 1 0
vt 1 0
vt 1 1
vt 1 1

# No. faces 6:

usemtl material02

f 67/67/253 71/71/265 69/69/259 65/65/247
f 70/70/262 72/72/268 68/68/256 66/66/250
f 66/66/252 68/68/258 67/67/255 65/65/249
f 71/71/267 72/72/270 70/70/264 69/69/261
f 68/68/257 72/72/269 71/71/266 67/67/254
f 69/69/260 70/70/263 66/66/251 65/65/248

# Begin Group:
# Shape "cube11":
g cube11
# No. points 8:
v 97.5 5.5 -1.5
v -97.5 5.5 -1.5
v 97.5 10.5 -1.5
v -97.5 10.5 -1.5
v 97.5 5.5 1.5
v -97.5 5.5 1.5
v 97.5 10.5 1.5
v -97.5 10.5 1.5

# No. normals 30:
vn 1 0 0
vn -1 0 0
vn 0 0 -1
vn 0 0 1
vn 0 1 0
vn 0 -1 0
vn 1 0 0
vn 0 -1 0
vn 0 0 -1
vn -1 0 0
vn 0 -1 0
vn 0 0 -1
vn 1 0 0
vn 0 1 0
vn 0 0 -1
vn -1 0 0
vn 0 1 0
vn 0 0 -1
vn 1 0 0
vn 0 -1 0
vn 0 0 1
vn -1 0 0
vn 0 -1 0
vn 0 0 1
vn 1 0 0
vn 0 1 0
vn 0 0 1
vn -1 0 0
vn 0 1 0
vn 0 0 1

# No. texture coordinates 8:
vt 0 0
vt 0 0
vt 0 1
vt 0 1
vt 1 0
vt 1 0
vt 1 1
vt 1 1

# No. faces 6:

usemtl material01

f 75/75/283 79/79/295 77/77/289 73/73/277
f 78/78/292 80/80/298 76/76/286 74/74/280
f 74/74/282 76/76/288 75/75/285 73/73/279
f 79/79/297 80/80/300 78/78/294 77/77/291
f 76/76/287 80/80/299 79/79/296 75/75/284
f 77/77/290 78/78/293 74/74/281 73/73/278

# Shape "cube20":
g cube20
# No. points 8:
v 97.5 5.5 23.5
v -97.5 5.5 23.5
v 97.5 10.5 23.5
v -97.5 10.5 23.5
v 97.5 5.5 26.5
v -97.5 5.5 26.5
v 97.5 10.5 26.5
v -97.5 10.5 26.5

# No. normals 30:
vn 1 0 0
vn -1 0 0
vn 0 0 -1
vn 0 0 1
vn 0 1 0
vn 0 -1 0
vn 1 0 0
vn 0 -1 0
vn 0 0 -1
vn -1 0 0
vn 0 -1 0
vn 0 0 -1
vn 1 0 0
vn 0 1 0
vn 0 0 -1
vn -1 0 0
vn 0 1 0
vn 0 0 -1
vn 1 0 0
vn 0 -1 0
vn 0 0 1
vn -1 0 0
vn 0 -1 0
vn 0 0 1
vn 1 0 0
vn 0 1 0
vn 0 0 1
vn -1 0 0
vn 0 1 0
vn 0 0 1

# No. texture coordinates 8:
vt 0 0
vt 0 0
vt 0 1
vt 0 1
vt 1 0
vt 1 0
vt 1 1
vt 1 1

# No. faces 6:

usemtl material01

f 83/83/313 87/87/325 85/85/319 81/81/307
f 86/86/322 88/88/328 84/84/316 82/82/310
f 82/82/312 84/84/318 83/83/315 81/81/309
f 87/87/327 88/88/330 86/86/324 85/85/321
f 84/84/317 88/88/329 87/87/326 83/83/314
f 85/85/320 86/86/323 82/82/311 81/81/308

# Shape "cube21":
g cube21
# No. points 8:
v 97.5 5.5 48.5
v -97.5 5.5 48.5
v 97.5 10.5 48.5
v -97.5 10.5 48.5
v 97.5 5.5 51.5
v -97.5 5.5 51.5
v 97.5 10.5 51.5
v -97.5 10.5 51.5

# No. normals 30:
vn 1 0 0
vn -1 0 0
vn 0 0 -1
vn 0 0 1
vn 0 1 0
vn 0 -1 0
vn 1 0 0
vn 0 -1 0
vn 0 0 -1
vn -1 0 0
vn 0 -1 0
vn 0 0 -1
vn 1 0 0
vn 0 1 0
vn 0 0 -1
vn -1 0 0
vn 0 1 0
vn 0 0 -1
vn 1 0 0
vn 0 -1 0
vn 0 0 1
vn -1 0 0
vn 0 -1 0
vn 0 0 1
vn 1 0 0
vn 0 1 0
vn 0 0 1
vn -1 0 0
vn 0 1 0
vn 0 0 1

# No. texture coordinates 8:
vt 0 0
vt 0 0
vt 0 1
vt 0 1
vt 1 0
vt 1 0
vt 1 1
vt 1 1

# No. faces 6:

usemtl material01

f 91/91/343 95/95/355 93/93/349 89/89/337
f 94/94/352 96/96/358 92/92/346 90/90/340
f 90/90/342 92/92/348 91/91/345 89/89/339
f 95/95/357 96/96/360 94/94/354 93/93/351
f 92/92/347 96/96/359 95/95/356 91/91/344
f 93/93/350 94/94/353 90/90/341 89/89/338

# Shape "cube22":
g cube22
# No. points 8:
v 97.5 5.5 -26.5
v -97.5 5.5 -26.5
v 97.5 10.5 -26.5
v -97.5 10.5 -26.5
v 97.5 5.5 -23.5
v -97.5 5.5 -23.5
v 97.5 10.5 -23.5
v -97.5 10.5 -23.5

# No. normals 30:
vn 1 0 0
vn -1 0 0
vn 0 0 -1
vn 0 0 1
vn 0 1 0
vn 0 -1 0
vn 1 0 0
vn 0 -1 0
vn 0 0 -1
vn -1 0 0
vn 0 -1 0
vn 0 0 -1
vn 1 0 0
vn 0 1 0
vn 0 0 -1
vn -1 0 0
vn 0 1 0
vn 0 0 -1
vn 1 0 0
vn 0 -1 0
vn 0 0 1
vn -1 0 0
vn 0 -1 0
vn 0 0 1
vn 1 0 0
vn 0 1 0
vn 0 0 1
vn -1 0 0
vn 0 1 0
vn 0 0 1

# No. texture coordinates 8:
vt 0 0
vt 0 0
vt 0 1
vt 0 1
vt 1 0
vt 1 0
vt 1 1
vt 1 1

# No. faces 6:

usemtl material01

f 99/99/373 103/103/385 101/101/379 97/97/367
f 102/102/382 104/104/388 100/100/376 98/98/370
f 98/98/372 100/100/378 99/99/375 97/97/369
f 103/103/387 104/104/390 102/102/384 101/101/381
f 100/100/377 104/104/389 103/103/386 99/99/374
f 101/101/380 102/102/383 98/98/371 97/97/368

# Shape "cube23":
g cube23
# No. points 8:
v 97.5 5.5 -51.5
v -97.5 5.5 -51.5
v 97.5 10.5 -51.5
v -97.5 10.5 -51.5
v 97.5 5.5 -48.5
v -97.5 5.5 -48.5
v 97.5 10.5 -48.5
v -97.5 10.5 -48.5

# No. normals 30:
vn 1 0 0
vn -1 0 0
vn 0 0 -1
vn 0 0 1
vn 0 1 0
vn 0 -1 0
vn 1 0 0
vn 0 -1 0
vn 0 0 -1
vn -1 0 0
vn 0 -1 0
vn 0 0 -1
vn 1 0 0
vn 0 1 0
vn 0 0 -1
vn -1 0 0
vn 0 1 0
vn 0 0 -1
vn 1 0 0
vn 0 -1 0
vn 0 0 1
vn -1 0 0
vn 0 -1 0
vn 0 0 1
vn 1 0 0
vn 0 1 0
vn 0 0 1
vn -1 0 0
vn 0 1 0
vn 0 0 1

# No. texture coordinates 8:
vt 0 0
vt 0 0
vt 0 1
vt 0 1
vt 1 0
vt 1 0
vt 1 1
vt 1 1

# No. faces 6:

usemtl material01

f 107/107/403 111/111/415 109/109/409 105/105/397
f 110/110/412 112/112/418 108/108/406 106/106/400
f 106/106/402 108/108/408 107/107/405 105/105/399
f 111/111/417 112/112/420 110/110/414 109/109/411
f 108/108/407 112/112/419 111/111/416 107/107/404
f 109/109/410 110/110/413 106/106/401 105/105/398

# End Group:

# Shape "cube07":
g cube07
# No. points 8:
v 95 -9 -75
v -95 -9 -75
v 95 36 -75
v -95 36 -75
v 95 -9 -70
v -95 -9 -70
v 95 36 -70
v -95 36 -70

# No. normals 30:
vn 1 0 0
vn -1 0 0
vn 0 0 -1
vn 0 0 1
vn 0 1 0
vn 0 -1 0
vn 1 0 0
vn 0 -1 0
vn 0 0 -1
vn -1 0 0
vn 0 -1 0
vn 0 0 -1
vn 1 0 0
vn 0 1 0
vn 0 0 -1
vn -1 0 0
vn 0 1 0
vn 0 0 -1
vn 1 0 0
vn 0 -1 0
vn 0 0 1
vn -1 0 0
vn 0 -1 0
vn 0 0 1
vn 1 0 0
vn 0 1 0
vn 0 0 1
vn -1 0 0
vn 0 1 0
vn 0 0 1

# No. texture coordinates 8:
vt 0 0
vt 0 0
vt 0 1
vt 0 1
vt 1 0
vt 1 0
vt 1 1
vt 1 1

# No. faces 6:

usemtl material04

f 115/115/433 119/119/445 117/117/439 113/113/427
f 118/118/442 120/120/448 116/116/436 114/114/430
f 114/114/432 116/116/438 115/115/435 113/113/429
f 119/119/447 120/120/450 118/118/444 117/117/441
f 116/116/437 120/120/449 119/119/446 115/115/434
f 117/117/440 118/118/443 114/114/431 113/113/428

# Shape "cube09":
g cube09
# No. points 8:
v 95 -9 70
v -95 -9 70
v 95 36 70
v -95 36 70
v 95 -9 75
v -95 -9 75
v 95 36 75
v -95 36 75

# No. normals 30:
vn 1 0 0
vn -1 0 0
vn 0 0 -1
vn 0 0 1
vn 0 1 0
vn 0 -1 0
vn 1 0 0
vn 0 -1 0
vn 0 0 -1
vn -1 0 0
vn 0 -1 0
vn 0 0 -1
vn 1 0 0
vn 0 1 0
vn 0 0 -1
vn -1 0 0
vn 0 1 0
vn 0 0 -1
vn 1 0 0
vn 0 -1 0
vn 0 0 1
vn -1 0 0
vn 0 -1 0
vn 0 0 1
vn 1 0 0
vn 0 1 0
vn 0 0 1
vn -1 0 0
vn 0 1 0
vn 0 0 1

# No. texture coordinates 8:
vt 0 0
vt 0 0
vt 0 1
vt 0 1
vt 1 0
vt 1 0
vt 1 1
vt 1 1

# No. faces 6:

usemtl material04

f 123/123/463 127/127/475 125/125/469 121/121/457
f 126/126/472 128/128/478 124/124/466 122/122/460
f 122/122/462 124/124/468 123/123/465 121/121/459
f 127/127/477 128/128/480 126/126/474 125/125/471
f 124/124/467 128/128/479 127/127/476 123/123/464
f 125/125/470 126/126/473 122/122/461 121/121/458

# Shape "cube02":
g cube02
# No. points 8:
v 94 39 -69
v -94 39 -69
v 94 39 69
v -94 39 69
v 94 11 -69
v -94 11 -69
v 94 11 69
v -94 11 69

# No. normals 30:
vn 1 0 0
vn -1 0 0
vn 0 1 0
vn 0 -1 0
vn 0 0 1
vn 0 0 -1
vn 1 0 0
vn 0 0 -1
vn 0 1 0
vn -1 0 0
vn 0 0 -1
vn 0 1 0
vn 1 0 0
vn 0 0 1
vn 0 1 0
vn -1 0 0
vn 0 0 1
vn 0 1 0
vn 1 0 0
vn 0 0 -1
vn 0 -1 0
vn -1 0 0
vn 0 0 -1
vn 0 -1 0
vn 1 0 0
vn 0 0 1
vn 0 -1 0
vn -1 0 0
vn 0 0 1
vn 0 -1 0

# No. texture coordinates 8:
vt 0 0
vt 0 0
vt 0 1
vt 0 1
vt 1 0
vt 1 0
vt 1 1
vt 1 1

# No. faces 6:

usemtl material03

f 131/131/493 135/135/505 133/133/499 129/129/487
f 134/134/502 136/136/508 132/132/496 130/130/490
f 130/130/492 132/132/498 131/131/495 129/129/489
f 135/135/507 136/136/510 134/134/504 133/133/501
f 132/132/497 136/136/509 135/135/506 131/131/494
f 133/133/500 134/134/503 130/130/491 129/129/488

# Shape "cube04":
g cube04
# No. points 8:
v 90 -49 -70
v 90 -49 -65
v 90 11 -70
v 90 11 -65
v 95 -49 -70
v 95 -49 -65
v 95 11 -70
v 95 11 -65

# No. normals 30:
vn 0 0 -1
vn 0 0 1
vn -1 0 0
vn 1 0 0
vn 0 1 0
vn 0 -1 0
vn 0 0 -1
vn 0 -1 0
vn -1 0 0
vn 0 0 1
vn 0 -1 0
vn -1 0 0
vn 0 0 -1
vn 0 1 0
vn -1 0 0
vn 0 0 1
vn 0 1 0
vn -1 0 0
vn 0 0 -1
vn 0 -1 0
vn 1 0 0
vn 0 0 1
vn 0 -1 0
vn 1 0 0
vn 0 0 -1
vn 0 1 0
vn 1 0 0
vn 0 0 1
vn 0 1 0
vn 1 0 0

# No. texture coordinates 8:
vt 0 0
vt 0 0
vt 0 1
vt 0 1
vt 1 0
vt 1 0
vt 1 1
vt 1 1

# No. faces 6:

usemtl material01

f 139/139/523 143/143/535 141/141/529 137/137/517
f 142/142/532 144/144/538 140/140/526 138/138/520
f 138/138/522 140/140/528 139/139/525 137/137/519
f 143/143/537 144/144/540 142/142/534 141/141/531
f 140/140/527 144/144/539 143/143/536 139/139/524
f 141/141/530 142/142/533 138/138/521 137/137/518

# Shape "cube05":
g cube05
# No. points 8:
v 90 -49 65
v 90 -49 70
v 90 11 65
v 90 11 70
v 95 -49 65
v 95 -49 70
v 95 11 65
v 95 11 70

# No. normals 30:
vn 0 0 -1
vn 0 0 1
vn -1 0 0
vn 1 0 0
vn 0 1 0
vn 0 -1 0
vn 0 0 -1
vn 0 -1 0
vn -1 0 0
vn 0 0 1
vn 0 -1 0
vn -1 0 0
vn 0 0 -1
vn 0 1 0
vn -1 0 0
vn 0 0 1
vn 0 1 0
vn -1 0 0
vn 0 0 -1
vn 0 -1 0
vn 1 0 0
vn 0 0 1
vn 0 -1 0
vn 1 0 0
vn 0 0 -1
vn 0 1 0
vn 1 0 0
vn 0 0 1
vn 0 1 0
vn 1 0 0

# No. texture coordinates 8:
vt 0 0
vt 0 0
vt 0 1
vt 0 1
vt 1 0
vt 1 0
vt 1 1
vt 1 1

# No. faces 6:

usemtl material01

f 147/147/553 151/151/565 149/149/559 145/145/547
f 150/150/562 152/152/568 148/148/556 146/146/550
f 146/146/552 148/148/558 147/147/555 145/145/549
f 151/151/567 152/152/570 150/150/564 149/149/561
f 148/148/557 152/152/569 151/151/566 147/147/554
f 149/149/560 150/150/563 146/146/551 145/145/548

# Shape "cube06":
g cube06
# No. points 8:
v 95 -9 -75
v 95 -9 75
v 95 36 -75
v 95 36 75
v 100 -9 -75
v 100 -9 75
v 100 36 -75
v 100 36 75

# No. normals 30:
vn 0 0 -1
vn 0 0 1
vn -1 0 0
vn 1 0 0
vn 0 1 0
vn 0 -1 0
vn 0 0 -1
vn 0 -1 0
vn -1 0 0
vn 0 0 1
vn 0 -1 0
vn -1 0 0
vn 0 0 -1
vn 0 1 0
vn -1 0 0
vn 0 0 1
vn 0 1 0
vn -1 0 0
vn 0 0 -1
vn 0 -1 0
vn 1 0 0
vn 0 0 1
vn 0 -1 0
vn 1 0 0
vn 0 0 -1
vn 0 1 0
vn 1 0 0
vn 0 0 1
vn 0 1 0
vn 1 0 0

# No. texture coordinates 8:
vt 0 0
vt 0 0
vt 0 1
vt 0 1
vt 1 0
vt 1 0
vt 1 1
vt 1 1

# No. faces 6:

usemtl material04

f 155/155/583 159/159/595 157/157/589 153/153/577
f 158/158/592 160/160/598 156/156/586 154/154/580
f 154/154/582 156/156/588 155/155/585 153/153/579
f 159/159/597 160/160/600 158/158/594 157/157/591
f 156/156/587 160/160/599 159/159/596 155/155/584
f 157/157/590 158/158/593 154/154/581 153/153/578

# Shape "cube08":
g cube08
# No. points 8:
v -100 -9 -75
v -100 -9 75
v -100 36 -75
v -100 36 75
v -95 -9 -75
v -95 -9 75
v -95 36 -75
v -95 36 75

# No. normals 30:
vn 0 0 -1
vn 0 0 1
vn -1 0 0
vn 1 0 0
vn 0 1 0
vn 0 -1 0
vn 0 0 -1
vn 0 -1 0
vn -1 0 0
vn 0 0 1
vn 0 -1 0
vn -1 0 0
vn 0 0 -1
vn 0 1 0
vn -1 0 0
vn 0 0 1
vn 0 1 0
vn -1 0 0
vn 0 0 -1
vn 0 -1 0
vn 1 0 0
vn 0 0 1
vn 0 -1 0
vn 1 0 0
vn 0 0 -1
vn 0 1 0
vn 1 0 0
vn 0 0 1
vn 0 1 0
vn 1 0 0

# No. texture coordinates 8:
vt 0 0
vt 0 0
vt 0 1
vt 0 1
vt 1 0
vt 1 0
vt 1 1
vt 1 1

# No. faces 6:

usemtl material04

f 163/163/613 167/167/625 165/165/619 161/161/607
f 166/166/622 168/168/628 164/164/616 162/162/610
f 162/162/612 164/164/618 163/163/615 161/161/609
f 167/167/627 168/168/630 166/166/624 165/165/621
f 164/164/617 168/168/629 167/167/626 163/163/614
f 165/165/620 166/166/623 162/162/611 161/161/608

# Shape "cube03":
g cube03
# No. points 8:
v -95 -49 65
v -95 -49 70
v -95 11 65
v -95 11 70
v -90 -49 65
v -90 -49 70
v -90 11 65
v -90 11 70

# No. normals 30:
vn 0 0 -1
vn 0 0 1
vn -1 0 0
vn 1 0 0
vn 0 1 0
vn 0 -1 0
vn 0 0 -1
vn 0 -1 0
vn -1 0 0
vn 0 0 1
vn 0 -1 0
vn -1 0 0
vn 0 0 -1
vn 0 1 0
vn -1 0 0
vn 0 0 1
vn 0 1 0
vn -1 0 0
vn 0 0 -1
vn 0 -1 0
vn 1 0 0
vn 0 0 1
vn 0 -1 0
vn 1 0 0
vn 0 0 -1
vn 0 1 0
vn 1 0 0
vn 0 0 1
vn 0 1 0
vn 1 0 0

# No. texture coordinates 8:
vt 0 0
vt 0 0
vt 0 1
vt 0 1
vt 1 0
vt 1 0
vt 1 1
vt 1 1

# No. faces 6:

usemtl material01

f 171/171/643 175/175/655 173/173/649 169/169/637
f 174/174/652 176/176/658 172/172/646 170/170/640
f 170/170/642 172/172/648 171/171/645 169/169/639
f 175/175/657 176/176/660 174/174/654 173/173/651
f 172/172/647 176/176/659 175/175/656 171/171/644
f 173/173/650 174/174/653 170/170/641 169/169/638

# Shape "cube01":
g cube01
# No. points 8:
v -95 -49 -70
v -95 -49 -65
v -95 11 -70
v -95 11 -65
v -90 -49 -70
v -90 -49 -65
v -90 11 -70
v -90 11 -65

# No. normals 30:
vn 0 0 -1
vn 0 0 1
vn -1 0 0
vn 1 0 0
vn 0 1 0
vn 0 -1 0
vn 0 0 -1
vn 0 -1 0
vn -1 0 0
vn 0 0 1
vn 0 -1 0
vn -1 0 0
vn 0 0 -1
vn 0 1 0
vn -1 0 0
vn 0 0 1
vn 0 1 0
vn -1 0 0
vn 0 0 -1
vn 0 -1 0
vn 1 0 0
vn 0 0 1
vn 0 -1 0
vn 1 0 0
vn 0 0 -1
vn 0 1 0
vn 1 0 0
vn 0 0 1
vn 0 1 0
vn 1 0 0

# No. texture coordinates 8:
vt 0 0
vt 0 0
vt 0 1
vt 0 1
vt 1 0
vt 1 0
vt 1 1
vt 1 1

# No. faces 6:

usemtl material01

f 179/179/673 183/183/685 181/181/679 177/177/667
f 182/182/682 184/184/688 180/180/676 178/178/670
f 178/178/672 180/180/678 179/179/675 177/177/669
f 183/183/687 184/184/690 182/182/684 181/181/681
f 180/180/677 184/184/689 183/183/686 179/179/674
f 181/181/680 182/182/683 178/178/671 177/177/668

# End Group:

# End of Object "Simplebed"
