# Blender v3.3.1 OBJ File: ''
# www.blender.org
mtllib sk_pos_ble.mtl
o sk_adj.000
v -1.0 2.5 -1.0
v -1.0 0.5 -1.0
v -1.0 0.5 -1.0
v -1.0 2.5 -1.0
v -1.0 2.5 1.0
v 1.0 2.5 1.0
v 1.0 2.5 -1.0
v 1.0 0.5 -1.0
v -1.0 2.5 1.0
v 1.0 0.5 1.0
v -1.0 0.5 1.0
v -1.0 0.5 1.0
vt 0.37667 0.74927
vt 0.37590 0.50349
vt 0.3759 0.5
vt 0.37667 0.74927
vt 0.12546 0.7559
vt 0.25 0.75597
vt 0.25 1.0
vt 0.12583 1.0
vt 0.5 0.75
vt 0.5 0.5
vt 0.12583 1.0
vt 0.12546 0.75591
vt 0.25395 0.76186
vt 0.36922 0.76186
vt 0.36922 1.0
vt 0.25395 1.0
vt 1.0 1.0
vt 1.0 0.0
vt 1.0 0.0
vt 1.0 1.0
vt 0.12383 0.5
vt 0.12418 0.75032
vt 0.0 0.75348
vt 0.0 0.5
vt 0.12569 0.5
vt 0.25078 0.5
vt 0.2511 0.74884
vt 0.12624 0.7475
vt 0.12624 0.7475
vt 0.12569 0.5
vt 0.25 0.5
vt 0.375 0.5
vt 0.375 0.75
vt 0.25 0.74726
vn 0.0 0.0 0.0
vn 0.0 1.0 0.0
vn 0.0 0.0 -1.0
vn 0.0 -1.0 -0.0
vn -1.0 -0.0 0.0
vn 0.0 -0.0 1.0
vn 1.0 -0.0 0.0
usemtl material01
s 1
f 1/1/1 2/2/1 3/3/1 4/4/1
f 5/5/2 6/6/2 7/7/2 1/8/2
f 1/1/3 7/9/3 8/10/3 2/2/3
f 5/5/1 1/8/1 4/11/1 9/12/1
f 10/13/4 11/14/4 2/15/4 8/16/4
f 2/17/1 11/18/1 12/19/1 3/20/1
f 12/21/5 9/22/5 4/23/5 3/24/5
f 11/25/6 10/26/6 6/27/6 5/28/6
f 11/25/1 5/28/1 9/29/1 12/30/1
f 10/31/7 8/32/7 7/33/7 6/34/7
o sk_adj.001
v 1.0 -2.5 -0.5
v 1.0 0.5 -0.5
v 1.0 0.5 0.5
v 1.0 -2.5 0.5
v -1.0 -2.5 -0.5
v -1.0 0.5 -0.5
v -1.0 0.5 0.5
v -1.0 -2.5 0.5
vt 0.5 -0.0
vt 0.5 0.37078
vt 0.4412 0.37078
vt 0.4412 -0.0
vt 0.62222 0.37526
vt 0.6255 0.0
vt 0.50896 0.051
vt 0.50568 0.37
vt 0.43942 0.5
vt 0.31304 0.49452
vt 0.31459 0.37352
vt 0.44096 0.38
vt 0.31274 0.37222
vt 0.31274 0.024
vt 0.43889 0.024
vt 0.43889 0.37222
vt 0.18367 0.49436
vt 0.12758 0.4966
vt 0.12933 0.38243
vt 0.18543 0.38018
vt 0.30916 0.37336
vt 0.30916 -0.0
vt 0.25 -0.0
vt 0.25 0.37336
vn 1.0 0.0 0.0
vn 0.0 0.0 -1.0
vn 0.0 1.0 0.0
vn 0.0 -0.0 1.0
vn 0.0 -1.0 0.0
vn -1.0 0.0 0.0
usemtl material01
s 1
f 13/35/8 14/36/8 15/37/8 16/38/8
f 14/39/9 13/40/9 17/41/9 18/42/9
f 14/43/10 18/44/10 19/45/10 15/46/10
f 19/47/11 20/48/11 16/49/11 15/50/11
f 13/51/12 16/52/12 20/53/12 17/54/12
f 18/55/13 17/56/13 20/57/13 19/58/13
o sk_adj.002
v 0.5 -2.5 -0.5
v 0.5 0.5 -0.5
v 0.5 0.5 0.5
v 0.5 -2.5 0.5
v -0.5 -2.5 -0.5
v -0.5 0.5 -0.5
v -0.5 0.5 0.5
v -0.5 -2.5 0.5
vt 0.081 0.00962
vt 0.081 0.37773
vt 0.05951 0.37773
vt 0.05951 0.00962
vt 0.25021 0.37049
vt 0.25021 0.00137
vt 0.19064 -0.0
vt 0.19064 0.3678
vt 0.12456 0.37284
vt 0.12328 0.49573
vt 0.06226 0.49733
vt 0.06354 0.37444
vt 0.06559 0.3759
vt 0.06538 0.0
vt 0.125 0.00334
vt 0.12516 0.37577
vt 0.17907 0.48994
vt 0.13039 0.48673
vt 0.12908 0.39799
vt 0.17776 0.4012
vt 0.088 0.37336
vt 0.088 0.0
vt 0.063 0.0
vt 0.063 0.37336
vn 1.0 0.0 0.0
vn 0.0 0.0 -1.0
vn 0.0 1.0 0.0
vn 0.0 -0.0 1.0
vn 0.0 -1.0 0.0
vn -1.0 0.0 0.0
usemtl material01
s 1
f 21/59/14 22/60/14 23/61/14 24/62/14
f 22/63/15 21/64/15 25/65/15 26/66/15
f 22/67/16 26/68/16 27/69/16 23/70/16
f 27/71/17 28/72/17 24/73/17 23/74/17
f 21/75/18 24/76/18 28/77/18 25/78/18
f 26/79/19 25/80/19 28/81/19 27/82/19
o sk_adj.003
v 0.5 0.5 -0.5
v -2.5 0.5 -0.5
v -2.5 0.5 0.5
v 0.5 0.5 0.5
v 0.5 -0.5 -0.5
v -2.5 -0.5 -0.5
v -2.5 -0.5 0.5
v 0.5 -0.5 0.5
vt 0.69235 0.3722
vt 0.69712 0.00677
vt 0.75524 0.00703
vt 0.75047 0.37247
vt 0.74719 0.0
vt 0.74835 0.36456
vt 0.69304 0.36466
vt 0.69188 0.0
vt 0.81075 0.3859
vt 0.81127 0.5
vt 0.75968 0.5
vt 0.75915 0.38592
vt 0.75223 0.0
vt 0.75394 0.37240
vt 0.69057 0.3786
vt 0.68885 0.0
vt 0.75609 0.0
vt 0.75669 0.3632
vt 0.68955 0.3647
vt 0.68895 0.0
vt 0.68692 0.37817
vt 0.75 0.37817
vt 0.74929 0.5
vt 0.68628 0.5
vn 0.0 1.0 0.0
vn 0.0 0.0 -1.0
vn -1.0 -0.0 0.0
vn 0.0 -1.0 -0.0
vn 0.0 -0.0 1.0
vn 1.0 0.0 0.0
usemtl material01
s 1
f 29/83/20 30/84/20 31/85/20 32/86/20
f 30/87/21 29/88/21 33/89/21 34/90/21
f 30/91/22 34/92/22 35/93/22 31/94/22
f 34/95/23 33/96/23 36/97/23 35/98/23
f 35/99/24 36/100/24 32/101/24 31/102/24
f 29/103/25 32/104/25 36/105/25 33/106/25
