<?xml version="1.0" encoding="UTF-8" standalone="no"?>
<!-- Created with Inkscape (http://www.inkscape.org/) -->

<svg
   width="99.99958mm"
   height="100.0001mm"
   viewBox="0 0 99.999581 100.0001"
   version="1.1"
   id="svg575352"
   inkscape:version="1.1 (c68e22c387, 2021-05-23)"
   sodipodi:docname="100x96_C.svg"
   xmlns:inkscape="http://www.inkscape.org/namespaces/inkscape"
   xmlns:sodipodi="http://sodipodi.sourceforge.net/DTD/sodipodi-0.dtd"
   xmlns="http://www.w3.org/2000/svg"
   xmlns:svg="http://www.w3.org/2000/svg">
  <sodipodi:namedview
     id="namedview575354"
     pagecolor="#ffffff"
     bordercolor="#666666"
     borderopacity="1.0"
     inkscape:pageshadow="2"
     inkscape:pageopacity="0.0"
     inkscape:pagecheckerboard="0"
     inkscape:document-units="mm"
     showgrid="false"
     inkscape:zoom="0.5"
     inkscape:cx="365"
     inkscape:cy="435"
     inkscape:window-width="1360"
     inkscape:window-height="705"
     inkscape:window-x="-8"
     inkscape:window-y="-8"
     inkscape:window-maximized="1"
     inkscape:current-layer="layer1" />
  <defs
     id="defs575349" />
  <g
     inkscape:label="Layer 1"
     inkscape:groupmode="layer"
     id="layer1"
     transform="translate(-131.43543,37.456972)">
    <path
       id="path580927"
       style="fill:#ff0000;fill-rule:evenodd;stroke-width:0.1"
       d="m 181.43548,-37.456972 c -1.47603,0 -2.93758,0.05838 -4.38113,0.173116 -1.90452,0.151365 -3.7783,0.400964 -5.61568,0.745174 -1.33614,0.250305 -2.65293,0.55045 -3.94808,0.89917 -1.43703,0.386932 -2.84709,0.833706 -4.22765,1.337903 -1.53817,0.561768 -3.03969,1.195069 -4.49946,1.897041 -1.77633,0.854197 -3.49131,1.809871 -5.13716,2.862358 -1.18607,0.758463 -2.33606,1.567266 -3.44733,2.424141 -1.73785,1.340027 -3.38059,2.797941 -4.91701,4.366659 -1.63248,1.666795 -3.14492,3.458642 -4.52376,5.366597 -1.03511,1.432354 -1.9949,2.930034 -2.87372,4.489649 -0.72417,1.285126 -1.3936,2.612145 -2.00453,3.979084 -0.6254,1.399288 -1.18984,2.840569 -1.68982,4.321185 -0.53085,1.572104 -0.98898,3.188629 -1.37046,4.847249 -0.27107,1.178544 -0.50349,2.378308 -0.69557,3.59823 -0.17707,1.124561 -0.31986,2.266434 -0.42736,3.424597 -0.15975,1.720535 -0.24133,3.477313 -0.24133,5.267894 0,2.448922 0.1761,4.856734 0.51625,7.211446 0.2528,1.749925 0.59612,3.470421 1.02526,5.156793 0.36571,1.437185 0.79336,2.849427 1.28054,4.233849 0.5359,1.522846 1.14335,3.012014 1.8185,4.463293 0.69855,1.50164 1.46955,2.962847 2.30838,4.379061 0.79002,1.333762 1.64043,2.627532 2.54713,3.877799 0.88062,1.214319 1.81455,2.387473 2.79828,3.516067 0.9087,1.042487 1.85996,2.046954 2.85099,3.010667 1.78717,1.7379 3.70371,3.34316 5.73402,4.80022 1.08619,0.77949 2.205,1.51701 3.3538,2.20917 1.0158,0.61202 2.0549,1.18894 3.11609,1.72909 1.46642,0.74644 2.97467,1.4226 4.52013,2.02417 1.30855,0.50935 2.64403,0.96514 4.00338,1.36478 2.0642,0.60685 4.18376,1.08389 6.34948,1.42213 2.53446,0.39585 5.13227,0.60152 7.77782,0.60152 2.64087,0 5.23365,-0.20499 7.76387,-0.59945 2.22063,-0.3462 4.39287,-0.83824 6.50657,-1.46658 2.24575,-0.66759 4.42532,-1.48907 6.52674,-2.45153 1.85236,-0.8484 3.64413,-1.80625 5.3666,-2.86597 1.21828,-0.74957 2.40192,-1.55014 3.5481,-2.39831 0.80457,-0.59537 1.59041,-1.21421 2.35696,-1.8557 0.9658,-0.80822 1.90061,-1.652303 2.80241,-2.530077 1.06052,-1.032256 2.07581,-2.111099 3.04168,-3.233393 0.95016,-1.104035 1.85255,-2.250133 2.70474,-3.434932 0.57255,-0.795996 1.12253,-1.609574 1.64848,-2.439646 0.52326,-0.825836 1.02285,-1.667759 1.4981,-2.525427 1.13883,-2.055238 2.137,-4.199615 2.98173,-6.419247 0.77037,-2.024245 1.41313,-4.111474 1.91823,-6.251813 0.45921,-1.945907 0.80497,-3.935584 1.0294,-5.961911 0.20235,-1.827528 0.30592,-3.684567 0.30592,-5.566069 0,-1.534565 -0.0688,-3.052847 -0.20412,-4.552175 -0.15188,-1.682853 -0.38729,-3.341722 -0.70177,-4.972306 -0.22672,-1.175494 -0.49452,-2.336321 -0.80201,-3.480925 -0.32675,-1.216332 -0.69827,-2.414725 -1.1126,-3.592547 -0.70627,-2.007668 -1.53698,-3.956304 -2.48305,-5.837369 -0.48047,-0.955329 -0.99091,-1.893162 -1.52962,-2.812231 -0.61909,-1.056195 -1.27581,-2.087973 -1.96836,-3.092835 -0.91351,-1.32547 -1.88942,-2.604635 -2.92334,-3.833357 -1.32117,-1.570091 -2.73699,-3.057619 -4.23901,-4.453992 -1.30908,-1.217009 -2.68366,-2.364494 -4.11758,-3.437 -1.52725,-1.142319 -3.12181,-2.199446 -4.77697,-3.164147 -2.1106,-1.230149 -4.31952,-2.310423 -6.612,-3.225643 -1.5694,-0.62655 -3.1778,-1.175915 -4.82089,-1.643311 -2.21665,-0.630555 -4.4963,-1.111646 -6.82698,-1.43247 -2.24954,-0.309646 -4.54658,-0.469739 -6.88123,-0.469739 z m 0,1.999878 c 2.24126,0 4.44624,0.153874 6.6058,0.451135 2.23745,0.307991 4.42562,0.769777 6.5536,1.37511 1.57737,0.4487 3.12203,0.976193 4.62866,1.577681 2.20078,0.878612 4.32124,1.915509 6.34742,3.096452 1.58895,0.926113 3.1196,1.940915 4.58576,3.037541 1.37657,1.029605 2.69601,2.131211 3.95273,3.29954 1.44194,1.340518 2.80171,2.768937 4.07004,4.276225 0.99256,1.179573 1.92906,2.407426 2.80603,3.679878 0.66484,0.964667 1.29548,1.954863 1.88981,2.968811 0.51716,0.882306 1.00686,1.782461 1.46812,2.699578 0.90822,1.805821 1.70582,3.676944 2.38384,5.604309 0.39776,1.130707 0.75447,2.280692 1.06815,3.448367 0.29519,1.09882 0.55233,2.213443 0.76998,3.341915 0.3019,1.565363 0.52753,3.157815 0.67334,4.773353 0.12991,1.439357 0.19637,2.89709 0.19637,4.370274 0,1.806244 -0.0997,3.588917 -0.29404,5.343345 -0.21544,1.945272 -0.54721,3.855614 -0.98805,5.723681 -0.48489,2.054728 -1.10168,4.058422 -1.84123,6.0017 -0.81094,2.130848 -1.7696,4.188867 -2.86288,6.161899 -0.45624,0.82336 -0.93582,1.632371 -1.43815,2.425174 -0.50491,0.796867 -1.03268,1.577819 -1.58233,2.341975 -0.81811,1.137409 -1.68458,2.237084 -2.59674,3.296957 -0.92723,1.077405 -1.90163,2.11324 -2.91972,3.104203 -0.86572,0.842661 -1.76311,1.652902 -2.69028,2.428793 -0.73589,0.615831 -1.49052,1.210258 -2.26291,1.781808 -1.10033,0.81425 -2.23645,1.5826 -3.40599,2.30218 -1.65358,1.01734 -3.37387,1.9373 -5.15214,2.75177 -2.01736,0.92396 -4.10986,1.71194 -6.26577,2.35283 -2.02916,0.60321 -4.11433,1.07583 -6.24613,1.40818 -2.42902,0.37869 -4.91805,0.57568 -7.45329,0.57568 -2.53973,0 -5.03365,-0.19774 -7.46673,-0.57775 -2.07909,-0.32471 -4.11412,-0.78271 -6.09575,-1.36529 -1.30498,-0.38365 -2.58697,-0.82102 -3.84318,-1.31 -1.48364,-0.5775 -2.93098,-1.22697 -4.33875,-1.94354 -1.01875,-0.51856 -2.0169,-1.07231 -2.99206,-1.65985 -1.10285,-0.66448 -2.17671,-1.37198 -3.21945,-2.12029 -1.9491,-1.39878 -3.78888,-2.940128 -5.50457,-4.608501 -0.95139,-0.925163 -1.86495,-1.889474 -2.7373,-2.890263 -0.94438,-1.083448 -1.84074,-2.20976 -2.68614,-3.375504 -0.87043,-1.200258 -1.68639,-2.442361 -2.44481,-3.722769 -0.80528,-1.359567 -1.54578,-2.762306 -2.21641,-4.20388 -0.64813,-1.393227 -1.23115,-2.822562 -1.74563,-4.284491 -0.46768,-1.329047 -0.8783,-2.684655 -1.22938,-4.064351 -0.41198,-1.618917 -0.74174,-3.270676 -0.98443,-4.950603 -0.32654,-2.260526 -0.49558,-4.572127 -0.49558,-6.923093 0,-1.718958 0.0786,-3.405341 0.23203,-5.057055 0.1032,-1.111835 0.24032,-2.208072 0.41031,-3.287654 0.18439,-1.171126 0.40743,-2.322648 0.66766,-3.454054 0.36622,-1.592273 0.80606,-3.144758 1.31568,-4.653978 0.47998,-1.42139 1.02173,-2.80475 1.62212,-4.148066 0.58649,-1.312262 1.2287,-2.586202 1.92392,-3.819923 0.84366,-1.49723 1.7653,-2.935272 2.759,-4.310331 1.32369,-1.831636 2.77571,-3.551501 4.34289,-5.151624 1.47497,-1.505969 3.05179,-2.905566 4.72012,-4.191992 1.06682,-0.8226 2.17126,-1.598865 3.30988,-2.32699 1.58002,-1.010387 3.2262,-1.928124 4.93148,-2.748152 1.40138,-0.673894 2.84247,-1.281781 4.31912,-1.821078 1.32533,-0.484029 2.67963,-0.912704 4.05918,-1.284159 1.24334,-0.334771 2.50726,-0.62322 3.78995,-0.863513 1.76389,-0.330442 3.56254,-0.570408 5.39088,-0.715719 1.38581,-0.110144 2.78896,-0.165881 4.20595,-0.165881 z" />
  </g>
</svg>
