<?xml version="1.0" encoding="UTF-8" standalone="no"?>
<!-- Created with Inkscape (http://www.inkscape.org/) -->

<svg
   width="59.999954mm"
   height="59.999954mm"
   viewBox="0 0 59.999954 59.999954"
   version="1.1"
   id="svg17"
   inkscape:version="1.1 (c68e22c387, 2021-05-23)"
   sodipodi:docname="anel.svg"
   xmlns:inkscape="http://www.inkscape.org/namespaces/inkscape"
   xmlns:sodipodi="http://sodipodi.sourceforge.net/DTD/sodipodi-0.dtd"
   xmlns="http://www.w3.org/2000/svg"
   xmlns:svg="http://www.w3.org/2000/svg">
  <sodipodi:namedview
     id="namedview19"
     pagecolor="#ffffff"
     bordercolor="#666666"
     borderopacity="1.0"
     inkscape:pageshadow="2"
     inkscape:pageopacity="0.0"
     inkscape:pagecheckerboard="0"
     inkscape:document-units="mm"
     showgrid="false"
     inkscape:zoom="0.42582772"
     inkscape:cx="-135.03113"
     inkscape:cy="189.04359"
     inkscape:window-width="1360"
     inkscape:window-height="705"
     inkscape:window-x="-8"
     inkscape:window-y="-8"
     inkscape:window-maximized="1"
     inkscape:current-layer="layer1" />
  <defs
     id="defs14" />
  <g
     inkscape:label="Layer 1"
     inkscape:groupmode="layer"
     id="layer1"
     transform="translate(-50.000048,-50.000048)">
    <path
       id="path580927"
       style="fill:#9fd000;fill-opacity:1;fill-rule:evenodd;stroke-width:1.34448"
       d="m 302.36133,188.97656 c -3.34723,0 -6.66003,0.1324 -9.9336,0.39258 -4.3189,0.34325 -8.56771,0.90888 -12.73437,1.68945 -3.02997,0.56762 -6.01613,1.24827 -8.95313,2.03907 -3.25878,0.87745 -6.45719,1.88982 -9.58789,3.0332 -3.48816,1.27393 -6.89278,2.71086 -10.20312,4.30273 -4.02822,1.93708 -7.91807,4.10545 -11.65039,6.49219 -2.68966,1.71998 -5.29637,3.55295 -7.81641,5.4961 -3.94095,3.0388 -7.66623,6.34493 -11.15039,9.90234 -3.70201,3.77982 -7.13296,7.84323 -10.25976,12.16992 -2.34736,3.24816 -4.52272,6.64487 -6.51563,10.18164 -1.6422,2.91428 -3.16145,5.92362 -4.54687,9.02344 -1.41823,3.17318 -2.69626,6.44121 -3.83008,9.79883 -1.20382,3.56507 -2.24428,7.23091 -3.10938,10.99218 -0.6147,2.67262 -1.14058,5.39374 -1.57617,8.16016 -0.40154,2.5502 -0.72692,5.13923 -0.9707,7.76563 -0.36219,3.90168 -0.54688,7.88477 -0.54688,11.94531 0,5.55345 0.39856,11.01368 1.16992,16.35351 0.57328,3.96832 1.35302,7.87108 2.32618,11.69532 0.82934,3.25912 1.7995,6.46206 2.90429,9.60156 1.21527,3.45335 2.592,6.82999 4.12305,10.12109 1.58415,3.40532 3.33409,6.71811 5.23633,9.92969 1.79153,3.0246 3.71925,5.95967 5.77539,8.79492 1.99699,2.75373 4.11487,5.41331 6.3457,7.97266 2.06068,2.36405 4.21746,4.64269 6.46485,6.82812 4.05278,3.94103 8.39972,7.58059 13.0039,10.88477 2.46316,1.76768 4.99836,3.44016 7.60352,5.00976 2.30354,1.38788 4.66189,2.69502 7.06836,3.91993 3.32545,1.6927 6.74532,3.22761 10.25,4.59179 2.96742,1.1551 5.9955,2.1875 9.07812,3.09375 4.68102,1.37617 9.48721,2.45951 14.39844,3.22657 5.74745,0.89767 11.63736,1.36328 17.63672,1.36328 5.98874,0 11.86961,-0.46484 17.60742,-1.35938 5.03577,-0.78508 9.96255,-1.90125 14.75586,-3.32617 5.09269,-1.51389 10.03536,-3.37599 14.80078,-5.55859 4.20064,-1.92393 8.26386,-4.09687 12.16992,-6.5 2.76272,-1.69981 5.44571,-3.5141 8.04492,-5.4375 1.82453,-1.35013 3.60739,-2.75425 5.34571,-4.20899 2.19016,-1.8328 4.31044,-3.74576 6.35547,-5.73633 2.40495,-2.34085 4.70617,-4.78892 6.89648,-7.33398 2.15471,-2.50364 4.20222,-5.10227 6.13477,-7.78906 1.29838,-1.80511 2.54557,-3.6489 3.73828,-5.53125 1.18662,-1.87276 2.31875,-3.78357 3.39648,-5.72852 2.58255,-4.66069 4.8461,-9.52314 6.76172,-14.55664 1.74697,-4.59042 3.20419,-9.32211 4.34961,-14.17578 1.04137,-4.41279 1.82503,-8.92634 2.33398,-13.52148 0.45888,-4.14433 0.69532,-8.35634 0.69532,-12.62305 0,-3.48 -0.156,-6.9222 -0.46289,-10.32227 -0.34443,-3.81622 -0.87864,-7.57769 -1.5918,-11.27539 -0.51413,-2.6657 -1.12107,-5.2989 -1.81836,-7.89453 -0.74098,-2.7583 -1.58385,-5.47549 -2.52344,-8.14648 -1.60161,-4.55282 -3.48545,-8.97256 -5.63086,-13.23828 -1.08956,-2.16639 -2.24709,-4.29278 -3.46875,-6.37696 -1.4039,-2.39516 -2.89238,-4.73296 -4.46289,-7.01172 -2.07159,-3.00578 -4.28623,-5.90694 -6.63086,-8.69336 -2.99603,-3.56051 -6.20713,-6.93498 -9.61328,-10.10156 -2.96863,-2.75983 -6.08422,-5.36278 -9.33594,-7.79492 -3.46337,-2.59045 -7.08053,-4.98616 -10.83398,-7.17383 -4.78624,-2.78963 -9.79544,-5.23899 -14.99414,-7.31445 -3.55895,-1.42084 -7.20559,-2.66664 -10.93164,-3.72656 -5.02674,-1.42992 -10.19709,-2.52247 -15.48242,-3.25 -5.10131,-0.7022 -10.31115,-1.06446 -15.60547,-1.06446 z m 0,37.79492 c 3.52955,0 7.00343,0.24281 10.40429,0.71094 3.52356,0.48503 6.96916,1.21275 10.32032,2.16602 2.48403,0.70662 4.91642,1.53711 7.28906,2.48437 3.4658,1.38361 6.80527,3.01525 9.99609,4.875 2.50229,1.45845 4.91375,3.05623 7.22266,4.78321 2.16781,1.62141 4.24552,3.35739 6.22461,5.19726 2.27077,2.11106 4.41085,4.36068 6.4082,6.73438 1.56309,1.8576 3.03886,3.79109 4.41992,5.79492 1.04701,1.51918 2.04063,3.07897 2.97657,4.67578 0.81444,1.38947 1.58418,2.80573 2.31054,4.25 1.43028,2.84379 2.68614,5.79098 3.75391,8.82617 0.62639,1.78069 1.18963,3.59279 1.68359,5.43164 0.46486,1.73042 0.86817,3.48459 1.21094,5.26172 0.47542,2.46512 0.83286,4.97339 1.0625,7.51758 0.2047,2.26669 0.30859,4.56091 0.30859,6.88086 0,2.84447 -0.15708,5.6531 -0.46289,8.41601 -0.33928,3.06339 -0.86239,6.0718 -1.55664,9.01368 -0.76362,3.2358 -1.73574,6.39088 -2.90039,9.45117 -1.27706,3.35565 -2.78608,6.59796 -4.50781,9.70508 -0.71846,1.29668 -1.47259,2.56986 -2.26367,3.81835 -0.79514,1.25496 -1.6266,2.4841 -2.49219,3.6875 -1.28836,1.7912 -2.65337,3.52429 -4.08984,5.19336 -1.46021,1.69671 -2.99436,3.32807 -4.59766,4.88868 -1.36335,1.32699 -2.77622,2.60233 -4.23633,3.82422 -1.15888,0.96982 -2.3481,1.90455 -3.56445,2.80468 -1.73281,1.28228 -3.52147,2.49378 -5.36328,3.62696 -2.60404,1.6021 -5.31286,3.04944 -8.11328,4.33203 -3.17695,1.45508 -6.47206,2.69774 -9.86719,3.70703 -3.19555,0.94994 -6.48072,1.69344 -9.83789,2.2168 -3.82521,0.59637 -7.74579,0.90624 -11.73828,0.90624 -3.99958,0 -7.92618,-0.3118 -11.75781,-0.91015 -3.27416,-0.51137 -6.47893,-1.23291 -9.59961,-2.15039 -2.05508,-0.60416 -4.0725,-1.29246 -6.05079,-2.0625 -2.33645,-0.90947 -4.61701,-1.9321 -6.83398,-3.06055 -1.60431,-0.8166 -3.17524,-1.68805 -4.71094,-2.61328 -1.73677,-1.04644 -3.42821,-2.16139 -5.07031,-3.33984 -3.06945,-2.20279 -5.96806,-4.63044 -8.66992,-7.25782 -1.49825,-1.45693 -2.93481,-2.97471 -4.30859,-4.55078 -1.48723,-1.70619 -2.89915,-3.48057 -4.23047,-5.3164 -1.37076,-1.89018 -2.65721,-3.84495 -3.85157,-5.86133 -1.26815,-2.1411 -2.43413,-4.35088 -3.49023,-6.6211 -1.0207,-2.19405 -1.93787,-4.44582 -2.74805,-6.74804 -0.73653,-2.09299 -1.38461,-4.22762 -1.9375,-6.40039 -0.64877,-2.54948 -1.16664,-5.15132 -1.54883,-7.79688 -0.51424,-3.55986 -0.78125,-7.20007 -0.78125,-10.90234 0,-2.70705 0.1238,-5.36175 0.36524,-7.96289 0.16252,-1.75091 0.37879,-3.47763 0.64648,-5.17774 0.29042,-1.84429 0.64098,-3.65771 1.05078,-5.43945 0.57673,-2.50753 1.26973,-4.95141 2.07227,-7.32813 0.75588,-2.23838 1.6092,-4.41772 2.55469,-6.5332 0.92362,-2.06653 1.93644,-4.07276 3.03125,-6.01562 1.3286,-2.35786 2.77885,-4.62163 4.34375,-6.78711 2.08453,-2.88446 4.37184,-5.5934 6.83984,-8.11328 2.32278,-2.37162 4.80629,-4.5757 7.4336,-6.60157 1.68002,-1.29543 3.41783,-2.51739 5.21093,-3.66406 2.48822,-1.59114 5.0821,-3.03673 7.76758,-4.32812 2.20689,-1.06126 4.47534,-2.01985 6.80078,-2.86914 2.08713,-0.76226 4.22005,-1.43649 6.39258,-2.02149 1.958,-0.52721 3.94877,-0.98093 5.96875,-1.35937 2.77778,-0.52037 5.61096,-0.89814 8.49023,-1.12696 2.18238,-0.17348 4.38962,-0.26172 6.6211,-0.26172 z"
       transform="scale(0.26458333)" />
  </g>
</svg>
