<?xml version="1.0" encoding="UTF-8" standalone="no"?>
<!-- Created with Inkscape (http://www.inkscape.org/) -->

<svg
   width="210mm"
   height="297mm"
   viewBox="0 0 210 297"
   version="1.1"
   id="svg5"
   sodipodi:docname="dobra02.svg"
   inkscape:version="1.2.2 (732a01da63, 2022-12-09)"
   xmlns:inkscape="http://www.inkscape.org/namespaces/inkscape"
   xmlns:sodipodi="http://sodipodi.sourceforge.net/DTD/sodipodi-0.dtd"
   xmlns="http://www.w3.org/2000/svg"
   xmlns:svg="http://www.w3.org/2000/svg">
  <sodipodi:namedview
     id="namedview7"
     pagecolor="#ffffff"
     bordercolor="#666666"
     borderopacity="1.0"
     inkscape:showpageshadow="2"
     inkscape:pageopacity="0.0"
     inkscape:pagecheckerboard="0"
     inkscape:deskcolor="#d1d1d1"
     inkscape:document-units="mm"
     showgrid="false"
     inkscape:zoom="0.2973261"
     inkscape:cx="183.30042"
     inkscape:cy="252.24829"
     inkscape:window-width="1360"
     inkscape:window-height="705"
     inkscape:window-x="-8"
     inkscape:window-y="-8"
     inkscape:window-maximized="1"
     inkscape:current-layer="layer1" />
  <defs
     id="defs2" />
  <g
     inkscape:label="Layer 1"
     inkscape:groupmode="layer"
     id="layer1">
    <path
       id="path111"
       style="fill:#ff0000;fill-rule:evenodd;stroke-width:0.132291"
       d="M 0 -30.000236 A 29.999892 30.00002 0 0 0 -30.000236 0 A 29.999892 30.00002 0 0 0 0 30.000236 A 29.999892 30.00002 0 0 0 25.000024 16.560746 L 25.000024 30.000236 L 30.000236 30.000236 L 30.000236 0 A 29.999892 30.00002 0 0 0 0 -30.000236 z M 0 -25.000024 A 24.99991 25.000017 0 0 1 25.000024 0 A 24.99991 25.000017 0 0 1 24.991239 0.20670573 L 25.000024 0.20670573 L 25.000024 16.210897 L 21.517033 12.727905 A 24.99991 25.000017 0 0 1 0 25.000024 A 24.99991 25.000017 0 0 1 -25.000024 0 A 24.99991 25.000017 0 0 1 0 -25.000024 z " />
  </g>
</svg>
