<?xml version="1.0" encoding="UTF-8" standalone="no"?>
<!-- Created with Inkscape (http://www.inkscape.org/) -->

<svg
   width="210mm"
   height="297mm"
   viewBox="0 0 210 297"
   version="1.1"
   id="svg5"
   sodipodi:docname="dobra03.svg"
   inkscape:version="1.2.2 (732a01da63, 2022-12-09)"
   xmlns:inkscape="http://www.inkscape.org/namespaces/inkscape"
   xmlns:sodipodi="http://sodipodi.sourceforge.net/DTD/sodipodi-0.dtd"
   xmlns="http://www.w3.org/2000/svg"
   xmlns:svg="http://www.w3.org/2000/svg">
  <sodipodi:namedview
     id="namedview7"
     pagecolor="#ffffff"
     bordercolor="#666666"
     borderopacity="1.0"
     inkscape:showpageshadow="2"
     inkscape:pageopacity="0.0"
     inkscape:pagecheckerboard="0"
     inkscape:deskcolor="#d1d1d1"
     inkscape:document-units="mm"
     showgrid="false"
     inkscape:zoom="0.2973261"
     inkscape:cx="183.30042"
     inkscape:cy="252.24829"
     inkscape:window-width="1360"
     inkscape:window-height="705"
     inkscape:window-x="-8"
     inkscape:window-y="-8"
     inkscape:window-maximized="1"
     inkscape:current-layer="layer1" />
  <defs
     id="defs2" />
  <g
     inkscape:label="Layer 1"
     inkscape:groupmode="layer"
     id="layer1">
    <path
       id="rect442"
       style="fill:#0000ff;fill-rule:evenodd;stroke:#d90000;stroke-width:0;stroke-linecap:round;paint-order:markers stroke fill"
       d="M -30.000236 0 L -30.000236 200.0002 L 30.000236 200.0002 L 30.000236 0 L -30.000236 0 z M 0 19.999813 A 10 10 0 0 1 9.9999064 30.000236 A 10 10 0 0 1 0 40.000142 A 10 10 0 0 1 -9.9999064 30.000236 A 10 10 0 0 1 0 19.999813 z M 0 90.000191 A 10 10 0 0 1 9.9999064 100.0001 A 10 10 0 0 1 0 110 A 10 10 0 0 1 -9.9999064 100.0001 A 10 10 0 0 1 0 90.000191 z M 0 160.00005 A 10 10 0 0 1 9.9999064 169.99996 A 10 10 0 0 1 0 179.99987 A 10 10 0 0 1 -9.9999064 169.99996 A 10 10 0 0 1 0 160.00005 z " />
  </g>
</svg>
