<?xml version="1.0" encoding="UTF-8" standalone="no"?>
<!-- Created with Inkscape (http://www.inkscape.org/) -->

<svg
   version="1.1"
   id="svg2068"
   width="402"
   height="402"
   viewBox="0 0 402 402"
   sodipodi:docname="hd15m.svg"
   inkscape:version="1.2.2 (732a01da63, 2022-12-09)"
   xmlns:inkscape="http://www.inkscape.org/namespaces/inkscape"
   xmlns:sodipodi="http://sodipodi.sourceforge.net/DTD/sodipodi-0.dtd"
   xmlns="http://www.w3.org/2000/svg"
   xmlns:svg="http://www.w3.org/2000/svg">
  <defs
     id="defs2072" />
  <sodipodi:namedview
     id="namedview2070"
     pagecolor="#ffffff"
     bordercolor="#666666"
     borderopacity="1.0"
     inkscape:showpageshadow="2"
     inkscape:pageopacity="0.0"
     inkscape:pagecheckerboard="0"
     inkscape:deskcolor="#d1d1d1"
     showgrid="false"
     inkscape:zoom="0.58706468"
     inkscape:cx="126.90254"
     inkscape:cy="201"
     inkscape:window-width="1366"
     inkscape:window-height="705"
     inkscape:window-x="-8"
     inkscape:window-y="-8"
     inkscape:window-maximized="1"
     inkscape:current-layer="g2074" />
  <g
     inkscape:groupmode="layer"
     inkscape:label="Image"
     id="g2074">
    <path
       style="fill:#000000"
       d="m -3.5580287,196.50259 c -1.34437,-1.34437 -3.89485,-7.0847 -6.10926,-13.75 -5.3637603,-16.14477 -6.8015903,-19.17537 -11.0592703,-23.31039 -4.35959,-4.23397 -11.2822,-6.63178 -19.14635,-6.63178 -7.82904,0 -11.12426,1.84981 -18.85016,10.58176 -14.91895,16.86165 -16.57383,18.41824 -19.58128,18.41824 -1.57775,0 -3.80576,-0.95082 -4.98034,-2.1254 -1.90815,-1.90815 -2.06195,-2.85362 -1.50476,-9.25 0.34135,-3.91853 0.90927,-12.3095 1.26203,-18.64661 0.58236,-10.46136 0.44856,-11.9 -1.45343,-15.62821 -4.71183,-9.23595 -17.378551,-16.47283 -26.001141,-14.85522 -2.00972,0.37703 -8.38428,2.93173 -14.16567,5.67713 -17.5748,8.34568 -19.39768,8.94664 -21.87485,7.21157 -5.39907,-3.78166 -5.06125,-6.23797 2.6658,-19.38326 8.48306,-14.43142 10.45691,-19.080025 10.33823,-24.347525 -0.12482,-5.54049 -3.38855,-13.45855 -7.60009,-18.4384 -5.22424,-6.17729 -7.1105,-6.66319 -28.00492,-7.21408 l -18.96419,-0.5 -1.43957,-2.56929 c -2.64218,-4.71567 -1.00695,-6.91423 12.89443,-17.33644 16.0894,-12.06264 18.30578,-15.04217 18.82406,-25.30561 0.33787,-6.69077 0.0711,-8.00545 -2.81259,-13.8631396 -3.58124,-7.27453 -5.06716,-8.26082 -24.68763,-16.3865104 -13.8525,-5.73693 -15.81257,-7.7356 -13.20298,-13.46303 1.34421,-2.95022 2.99865,-3.55352 20.50913,-7.4787 7.23606,-1.62205 14.50806,-3.64812 16.16,-4.50237 4.11196,-2.12637 8.81811,-8.07422 10.65563,-13.46704 1.69536,-4.9756 2.02428,-14.7359 0.61715,-18.31277 -0.50092,-1.27331 -6.11329,-7.9401 -12.47194,-14.8151 -12.48504,-13.49888 -13.5719,-15.81512 -9.30285,-19.825685 2.83062,-2.65922 4.72948,-2.67526 16.18555,-0.13671 23.14324,5.128335 27.27787,4.759935 35.99518,-3.20719 6.13946,-5.61112 9.50482,-11.7477 9.50482,-17.3316 0,-2.12836 -2.28287,-10.50547 -5.07303,-18.6158 -2.79017,-8.11033 -4.92767,-16.00017 -4.75,-17.53299 0.39476,-3.40585 4.3856,-5.92761 7.96074,-5.0303 1.37452,0.34498 7.64334,4.27991 13.930711,8.74428 6.28737,4.46437 12.78158,8.82922 14.43158,9.69967 4.56817,2.40991 14.03472,2.06624 19.5,-0.70792 12.5054,-6.3477 14.38631,-9.82768 15.97476,-29.55575 0.61999,-7.7 1.38252,-14.9 1.69452,-16 1.5872,-5.59582 7.5636,-7.31315 11.34081,-3.25879 1.14841,1.23267 4.83634,6.97017 8.1954,12.75 8.01343,13.78843 10.95686,17.42488 16.13193,19.93009 5.8966003,2.8545 17.3572103,2.88904 23.18085,0.0699 5.74194,-2.77963 7.23088,-4.65844 15.44662,-19.49116 3.96033,-7.15 8.03517,-13.8593 9.05519,-14.90955 1.71164,-1.76237 2.14843,-1.79817 5.66725,-0.4645 3.65946,1.38699 3.85901,1.70483 4.96591,7.90955 0.63428,3.55548 1.85479,11.81669 2.71224,18.35825 1.85262,14.13374 3.88573,17.99413 11.88581,22.56832 7.27939,4.16212 14.58722,5.7025 19.73568,4.15999 2.1946,-0.65752 9.33007,-5.17822 15.85661,-10.04599 17.137449,-12.78186 18.785099,-13.37936 22.057269,-7.99871 2.15999,3.55183 2.18144,3.41643 -3.15597,19.92265 -6.52565,20.18087 -5.50629,28.9126 4.36134,37.35892 2.29636,1.9656 6.33117,4.28991 8.96624,5.16514 5.30591,1.762335 5.75121,1.712195 26.64699,-3.00038 6.7207,-1.51571 13.30124,-2.48432 14.62341,-2.15248 1.3842,0.34741 2.91528,1.8378 3.60934,3.51338 1.62065,3.912595 0.28646,6.289435 -9.88805,17.615405 -11.67978,13.0016 -13.15267,15.37528 -13.76398,22.18164 -0.28741,3.2001 -0.0283,7.64499 0.57579,9.87753 1.48445,5.48604 6.55667,12.92853 10.44213,15.32177 1.86897,1.15119 9.78394,3.22176 19.18191,5.01804 12.82621,2.45152 16.34713,3.48109 17.75,5.19037 4.47449,5.45177 1.08108,9.10703 -15.16445,16.33457 -19.92113,8.8627804 -25.09677,14.7457704 -25.07997,28.50758 0.0128,10.47981 3.14755,14.66746 19.49442,26.04218 15.22048,10.59093 16.57147,12.52239 12.25,17.51338 -2.22364,2.56814 -2.4679,2.60707 -20.84846,3.32259 -18.10079,0.70464 -18.71098,0.79847 -22.80346,3.50674 -4.72863,3.12927 -9.60947,10.15534 -11.22662,16.16097 -2.13179,7.91687 -0.87592,11.98661 8.46112,27.418945 4.76708,7.87906 8.66742,14.88995 8.66742,15.57977 0,2.51775 -4.1264,6.52393 -6.7197,6.52393 -1.416,0 -8.24583,-2.41999 -15.17742,-5.37775 -6.93158,-2.95776 -14.33654,-5.93289 -16.45546,-6.6114 -7.50541,-2.40336 -16.691029,0.87048 -24.242309,8.64018 -6.58834,6.7789 -7.09617,9.59779 -4.9834,27.66224 2.18224,18.65839 2.01354,20.72565 -1.84152,22.5653 -4.28144,2.04311 -7.34681,-0.024 -18.50925,-12.48127 -5.18598,-5.78757 -11.39687,-11.67608 -13.80197,-13.08556 -3.93603,-2.30667 -5.15339,-2.51751 -12.18516,-2.11045 -6.34023,0.36703 -8.82706,1.0254 -13.19803,3.4941 -6.62029,3.73911 -8.31497,6.81457 -13.9436,25.30461 -2.2602697,7.425 -4.8166697,14.2875 -5.6808697,15.25 -2.17899,2.42682 -5.91612995,2.18609 -8.66005,-0.55783 z m 11.84334,-73.94217 c 5.5842797,-5.59357 5.5776097,-15.56215 -0.0139,-20.81513 -2.13521,-2.005895 -3.62052,-2.434875 -8.43069995,-2.434875 -4.81018005,0 -6.29549005,0.42898 -8.43067005,2.434875 -5.6176603,5.27751 -5.4181703,16.10955 0.39254,21.31513 2.49693,2.2369 4.01831,2.75 8.15391005,2.75 4.40381995,0 5.51842995,-0.43494 8.32881995,-3.25 z M -52.244099,109.05887 c 7.24252,-3.70789 9.0514,-13.542565 3.54752,-19.287375 -4.09421,-4.27344 -7.77726,-5.48302 -12.4408,-4.08579 -8.74737,2.62078 -12.11457,13.29585 -6.35347,20.142525 4.38648,5.21304 9.32898,6.2603 15.24675,3.23064 z m 118.17328,-1.83321 c 5.96663,-5.71639 5.91079,-13.713755 -0.13127,-18.797805 -4.25862,-3.5834 -8.06219,-4.10694 -13.22988,-1.82102 -13.16868,5.82513 -7.71008,25.404975 6.63426,23.796875 2.42455,-0.27181 4.92786,-1.45447 6.72689,-3.17805 z M 19.074271,72.878555 c 21.54448,-5.51015 39.90758,-20.48316 50.20013,-40.93249 5.46292,-10.85378 7.70072,-20.542 7.76921,-33.6356496 0.0706,-13.5040504 -1.7986,-21.7257704 -7.73002,-34.0000004 -9.60486,-19.87587 -26.06575,-33.97379 -47.47288,-40.65814 -6.39137,-1.99569 -9.56944,-2.33773 -21.49999965,-2.3139 -15.81473035,0.0316 -22.38211035,1.39872 -34.00000035,7.07783 -19.17147,9.37148 -32.92519,25.09089 -40.1552,45.89421 -2.56954,7.3935 -2.78248,9.1751 -2.80875,23.5000004 -0.0265,14.4476196 0.1618,16.0431596 2.77334,23.4999996 7.94157,22.67585 23.60156,39.44808 45.24465,48.45812 8.87309,3.69388 15.24569,4.75539 29.53600035,4.91994 7.53094995,0.0867 12.77196965,-0.4361 18.14351965,-1.80992 z m -114.86934,-5.44696 c 5.18137,-2.16492 7.63578,-6.02737 7.63578,-12.01626 0,-4.13294 -0.50304,-5.66786 -2.59795,-7.92713 -6.62847,-7.14851 -16.749681,-5.78702 -20.825141,2.80137 -3.04574,6.41842 0.0424,14.14051 6.83827,17.09943 3.94149,1.71612 4.932431,1.72084 8.949041,0.0426 z m 202.978599,-1.14875 c 7.76333,-5.43764 7.27564,-16.12899 -0.98412,-21.57454 -7.841499,-5.16981 -18.358699,1.19028 -18.358699,11.10211 0,10.13901 11.17831,16.19108 19.342819,10.47243 z M -110.44236,9.1404554 c 10.31928,-4.89682 9.32457,-19.7267704 -1.55569,-23.1933504 -3.63249,-1.15735 -4.83412,-1.15199 -7.95417,0.0355 -4.81707,1.83341 -8.20707,6.8946804 -8.20707,12.2531904 0,4.74784 1.90454,7.93566 6.36671,10.65656 3.85752,2.3521996 6.78145,2.4161196 11.35022,0.2481 z m 230.64729,0.29114 c 5.12677,-2.1421 7.63578,-6.03783 7.63578,-11.85604 0,-4.29612 -0.45018,-5.41532 -3.34106,-8.3062004 -1.83758,-1.83758 -4.55709,-3.64626 -6.04337,-4.01929 -3.58117,-0.89882 -11.24374,2.06322 -13.24715,5.1208204 -4.1233,6.29296 -1.85437,15.44788 4.63158,18.68798 4.22487,2.1105596 6.04808,2.1761296 10.36422,0.37273 z M -94.021989,-48.760585 c 4.47388,-2.31353 7.28208,-9.15782 5.88548,-14.3444 -1.56971,-5.82947 -5.94096,-9.0846 -12.199511,-9.0846 -4.35602,0 -5.46443,0.44115 -8.34441,3.32113 -10.5264,10.52641 1.44102,26.94286 14.658441,20.10787 z m 200.973419,-0.50784 c 8.58305,-6.11167 7.60946,-17.45775 -1.89275,-22.05769 -4.17754,-2.02231 -4.47764,-2.03602 -8.761089,-0.40015 -6.05129,2.31101 -8.45688,5.60919 -8.45688,11.59481 0,10.20813 11.13866,16.53964 19.110719,10.86303 z m -159.600499,-41.36098 c 8.01429,-3.34859 9.75351,-13.597645 3.41688,-20.135375 -3.82512,-3.94653 -8.6219,-5.20807 -12.96401,-3.40951 -10.49343,4.34652 -10.83611,19.083805 -0.5479,23.563295 3.99782,1.74065 5.89327,1.73719 10.09503,-0.0184 z m 114.17468,0.3762 c 1.54831,-0.58499 4.0526,-2.24418 5.5651,-3.68709 2.24834,-2.14489 2.75,-3.49287 2.75,-7.389325 0,-6.41166 -1.44816,-9.18152 -6.19529,-11.84956 -2.93289,-1.64838 -4.9297,-2.08952 -7.54041,-1.66586 -5.59382,0.90775 -11.2643,7.38726 -11.2643,12.8714 0,3.731185 3.38664,8.985855 7.06166,10.956785 3.92288,2.10387 5.70233,2.24507 9.62324,0.76365 z M 6.9428313,-107.47613 c 6.8055997,-4.57974 7.4927197,-15.31861 1.37178,-21.43954 -2.82954,-2.82954 -3.9557,-3.27391 -8.29716995,-3.27391 -3.93721005,0 -5.68440005,0.5563 -8.08112005,2.57301 -6.0515203,5.09202 -6.3347203,14.91045 -0.60528,20.98542 2.76132,2.92785 3.91516,3.44157 7.72986005,3.44157 3.01400995,0 5.59799995,-0.74961 7.88192995,-2.28655 z"
       id="path2195" />
  </g>
</svg>
