<?xml version="1.0" encoding="UTF-8" standalone="no"?>
<svg
   viewBox="0 0 32.727 32.727"
   fill="none"
   stroke="#000"
   stroke-width="0"
   version="1.1"
   id="svg4"
   sodipodi:docname="svg30c.svg"
   inkscape:version="1.2.2 (732a01da63, 2022-12-09)"
   xmlns:inkscape="http://www.inkscape.org/namespaces/inkscape"
   xmlns:sodipodi="http://sodipodi.sourceforge.net/DTD/sodipodi-0.dtd"
   xmlns="http://www.w3.org/2000/svg"
   xmlns:svg="http://www.w3.org/2000/svg">
  <defs
     id="defs8" />
  <sodipodi:namedview
     id="namedview6"
     pagecolor="#ffffff"
     bordercolor="#666666"
     borderopacity="1.0"
     inkscape:showpageshadow="2"
     inkscape:pageopacity="0.0"
     inkscape:pagecheckerboard="0"
     inkscape:deskcolor="#d1d1d1"
     showgrid="false"
     inkscape:zoom="28.844684"
     inkscape:cx="-0.76270554"
     inkscape:cy="-12.307294"
     inkscape:window-width="1366"
     inkscape:window-height="705"
     inkscape:window-x="-8"
     inkscape:window-y="-8"
     inkscape:window-maximized="1"
     inkscape:current-layer="svg4" />
  <path
     fill="#606060"
     fill-opacity="0.502"
     d="m 15.631035,2.5237461 c 0.281068,-0.020452 0.693745,-0.083771 1.226249,-0.251109 0.04194,-0.3167503 0.07496,-0.634686 0.0992,-0.9533574 -0.486359,-0.2765838 -0.87712,-0.42411368 -1.147722,-0.5042662 -1.025756,-0.0995151 -1.19474,-1.42966852 -9.99e-4,-1.60347496 0.270047,-0.0782805 0.660518,-0.22649684 1.146396,-0.50055704 -0.02467,-0.3189111 -0.05812,-0.63714 -0.10059,-0.9542403 -0.532914,-0.1679922 -0.946229,-0.2322462 -1.227212,-0.2535525 -1.068696,0.1909607 -1.273685,-1.3118242 -0.333738,-1.5691512 0.247883,-0.13322 0.599412,-0.3582403 1.017389,-0.7294605 -0.09018,-0.3066985 -0.188989,-0.610782 -0.296316,-0.9118948 -0.555484,-0.053647 -0.972564,-0.030523 -1.252212,0.00733 -1.016329,0.2671395 -1.601677,-0.8466387 -0.651337,-1.4647444 0.214571,-0.1828659 0.511296,-0.4769309 0.843321,-0.9257827 -0.151771,-0.2816748 -0.311518,-0.5589736 -0.478888,-0.8316598 -0.554822,0.063181 -0.957443,0.173584 -1.222751,0.2685527 -0.605027,0.509145 -1.719262,-0.5616705 -0.941243,-1.2973789 0.171847,-0.2238001 0.400541,-0.5733261 0.631974,-1.0821081 -0.206877,-0.243969 -0.42055,-0.482015 -0.640776,-0.713898 -0.529398,0.178321 -0.899803,0.369226 -1.139592,0.517363 -0.750955,0.716621 -1.8364886,-0.390222 -1.1890253,-1.073162 0.1216243,-0.25484 0.2733033,-0.644667 0.3942833,-1.190891 -0.253038,-0.195328 -0.5113889,-0.383542 -0.7749542,-0.564272 -0.4805384,0.284229 -0.8040892,0.548671 -1.0071096,0.743437 -0.5792346,0.729911 -1.8695649,-0.01761 -1.385955,-0.802722 0.066914,-0.273491 0.1334818,-0.687341 0.1382459,-1.247002 -0.2876938,-0.138376 -0.5792181,-0.268616 -0.8741745,-0.390629 -0.4112674,0.378298 -0.6718028,0.70516 -0.8306801,0.937834 -0.4685042,0.988143 -1.743237,0.347237 -1.521387,-0.496852 0.00787,-0.281919 -0.011603,-0.700628 -0.1233823,-1.249099 -0.3100154,-0.0755 -0.6220577,-0.142141 -0.9357475,-0.20002 -0.3242364,0.456107 -0.5115974,0.82928 -0.6177808,1.090056 -0.1236213,0.649683 -1.3606807,0.667573 -1.59079812,-0.169008 -0.0502777,-0.277372 -0.15674713,-0.681761 -0.38018711,-1.195984 -0.31875554,-0.0093 -0.63767754,-0.0096 -0.95640304,-8.85e-4 -0.22111023,0.513093 -0.32739597,0.918442 -0.37763593,1.195867 0.0761496,0.685961 -1.2298885,0.948879 -1.5904577,0.166317 -0.1075047,-0.26098 -0.295099,-0.635427 -0.6195886,-1.091859 -0.3136264,0.05736 -0.6255725,0.123456 -0.9354513,0.198398 -0.1105318,0.548443 -0.1294754,0.967362 -0.1213511,1.248836 0.071044,0.590024 -1.125234,1.115142 -1.5209423,0.493934 -0.1585174,-0.233187 -0.4205534,-0.559843 -0.8321436,-0.938791 -0.294598,0.12154 -0.5857454,0.251263 -0.8730104,0.389255 0.00587,0.559798 0.072992,0.972851 0.1406296,1.247786 0.3038336,0.777717 -0.6467948,1.501021 -1.3848863,0.799727 -0.2041304,-0.195171 -0.5271464,-0.459776 -1.0082401,-0.745474 -0.2631203,0.180546 -0.5210589,0.368556 -0.7736089,0.563666 0.12167,0.546297 0.2735,0.936228 0.3954744,1.191255 0.4703599,0.843872 -0.5458294,1.640787 -1.1877044,1.071432 -0.238924,-0.148509 -0.610032,-0.341105 -1.139722,-0.519458 -0.220233,0.231446 -0.433831,0.469114 -0.640545,0.712763 0.233487,0.508906 0.462132,0.858795 0.634429,1.0827248 0.83754,0.8087889 -0.05684,1.7511832 -0.938349,1.2959496 -0.264719,-0.095601 -0.667912,-0.205872 -1.223353,-0.2702593 -0.166952,0.2719681 -0.326035,0.5487166 -0.477414,0.8297063 0.332501,0.4508769 0.630011,0.7448908 0.84511,0.9272905 0.928672,0.3067698 0.692336,1.7161478 -0.649337,1.4648224 -0.279227,-0.038224 -0.696739,-0.062195 -1.252569,-0.00992 -0.10682,0.3012291 -0.205036,0.6054753 -0.294738,0.9122859 0.418893,0.3701245 0.770445,0.5970011 1.019423,0.7305933 0.987081,0.2588772 0.713449,1.7843935 -0.331928,1.5682077 -0.280084,0.021716 -0.693748,0.083761 -1.226374,0.2521168 -0.04194,0.316804 -0.07495,0.6347369 -0.0992,0.9534141 0.486456,0.275522 0.878163,0.42423721 1.147799,0.5032504 1.135853,0.031827 1.079796,1.67898264 0.0022,1.60353398 -0.270958,0.0785765 -0.661571,0.22642022 -1.147591,0.50144992 0.02464,0.3186178 0.05825,0.6364704 0.100696,0.9532254 0.532826,0.1690241 0.946238,0.2322248 1.227224,0.2535545 1.122797,-0.2286348 1.327228,1.3282342 0.333736,1.569116 -0.247914,0.1332256 -0.599513,0.3593909 -1.017418,0.7294693 0.09018,0.3066895 0.188987,0.6107743 0.296303,0.9118883 0.55657,0.053751 0.973644,0.030522 1.252239,-0.00734 0.874083,-0.4294166 1.598768,0.9118474 0.651193,1.4658006 -0.214494,0.1817858 -0.510115,0.4760014 -0.84332,0.9257806 0.152168,0.2813771 0.312219,0.5583837 0.480004,0.8307113 0.554827,-0.063221 0.957457,-0.1736196 1.221689,-0.2687668 0.855203,-0.4896466 1.808706,0.686039 0.941089,1.2985307 -0.171733,0.2227417 -0.400435,0.5722487 -0.631987,1.0820967 0.206926,0.243567 0.420587,0.481302 0.640832,0.712838 0.529299,-0.177235 0.899773,-0.36932 1.139595,-0.517362 1.08632,-0.58912 1.7430098,0.419572 1.1899721,1.074282 -0.1225201,0.253699 -0.2731961,0.643606 -0.3941731,1.189841 0.252632,0.195298 0.5106762,0.383424 0.7738266,0.564196 0.4805442,-0.284231 0.8040922,-0.548671 1.0071106,-0.74345 0.5680487,-1.040238 1.9232696,-0.18682 1.3860054,0.80275 -0.065962,0.274692 -0.1334821,0.687371 -0.1382457,1.247024 0.287698,0.138382 0.5791794,0.268699 0.8741719,0.390631 0.4112659,-0.378298 0.6716965,-0.704095 0.8306793,-0.937835 0.3234081,-1.183778 1.755768,-0.797744 1.5213821,0.49685 -0.00794,0.282979 0.012627,0.700736 0.1233923,1.249099 0.3099999,0.0754 0.6220138,0.142236 0.9357411,0.20002 0.3241124,-0.455053 0.5115843,-0.829288 0.6177756,-1.090067 0.2090247,-1.330591 1.80067268,-1.115862 1.59086749,0.168917 0.0502776,0.277371 0.15657502,0.68285 0.380186,1.19598 0.31873928,0.0093 0.63766719,0.0096 0.95639324,8.96e-4 0.22216469,-0.51301 0.32731876,-0.917395 0.37766417,-1.195885 -0.11052594,-1.110889 1.4516228,-1.214604 1.5905339,-0.166359 0.1073378,0.262058 0.2951975,0.635398 0.619601,1.091861 0.3136112,-0.05736 0.6255362,-0.123553 0.9354364,-0.198397 0.1105153,-0.548413 0.1304007,-0.966161 0.121331,-1.248816 -0.3245195,-1.177078 1.1714299,-1.481862 1.520832,-0.493934 0.1585173,0.233185 0.420563,0.559838 0.8321457,0.938791 0.2949568,-0.121466 0.5863898,-0.251335 0.874067,-0.389147 -0.0059,-0.559723 -0.074087,-0.972894 -0.140753,-1.246665 -0.6015438,-1.152697 0.6333715,-1.788222 1.3839177,-0.800851 0.2041285,0.195182 0.5270302,0.460834 1.0082388,0.745472 0.263027,-0.18021 0.5209584,-0.367862 0.7734704,-0.562611 -0.1216,-0.54736 -0.273419,-0.937284 -0.3954765,-1.191264 -0.7606504,-1.275379 0.2781965,-1.95003 1.1876695,-1.072343 0.239939,0.148702 0.611071,0.34125 1.140786,0.51958 0.219673,-0.231272 0.432944,-0.468572 0.639327,-0.711841 -0.232324,-0.509863 -0.462022,-0.85986 -0.634432,-1.0827292 -1.006258,-0.9592936 -0.03787,-1.962446 0.938614,-1.296997 0.265759,0.09572 0.668956,0.2059814 1.22334,0.2702547 C 14.656288,8.6747986 14.815369,8.398052 14.96675,8.1170609 14.634171,7.6672484 14.336776,7.3721651 14.121725,7.1897134 12.928881,6.4251836 13.726229,5.3742615 14.771063,5.7248853 c 0.279226,0.038228 0.696617,0.063284 1.25256,0.00992 0.106701,-0.3008995 0.204908,-0.6047753 0.294603,-0.9112319 -0.418751,-0.3712116 -0.770273,-0.59813 -1.018201,-0.731598 -1.15318,-0.435712 -0.871248,-1.6909079 0.330832,-1.5681985 z"
     id="path2"
     sodipodi:nodetypes="cccccccccccccccccccccccccccccccccccccccccccccccccccccccccccccccccccccccccccccccccccccccccccccccccccccccccccccccccccccccccc"
     style="stroke-width:0" />
</svg>
