<?xml version="1.0" ?><svg width="100px" height="100px" viewBox="0 0 100 100" style="enable-background:new 0 0 100 100;" version="1.1" xml:space="preserve" xmlns="http://www.w3.org/2000/svg" xmlns:xlink="http://www.w3.org/1999/xlink"><g id="tree"/><g id="plant"/><g id="flower"/><g id="flower_pot"/><g id="rose"/><g id="garden"/><g id="fance"/><g id="floral"/><g id="sunflower"/><g id="sprinkle"/><g id="water_hose"/><g id="planting"/><g id="fertilizer"/><g id="bee"/><g id="butterfly"/><g id="shovel"/><g id="ladybug"><g><path d="M88.6,50c-2-4.9-5.1-8.8-9-11.7c3.6-2.3,4.4-5.4,4.4-7.8c0-2.7-1.1-4.9-1.1-4.9c-0.2-0.5-0.8-0.7-1.3-0.4    c-0.5,0.2-0.7,0.8-0.4,1.3c0,0,0.9,1.8,0.9,4.1c0,2.9-1.5,5-4.3,6.5c-2.7-1.7-5.8-2.8-9.1-3.5c0.2-1.1,0.3-2.3,0.3-3.6    c0-7.6-4.5-14.1-11-17.2C58.3,11.4,60,6,68,6c0.6,0,1-0.4,1-1s-0.4-1-1-1c-8.8,0-11.2,5.9-11.8,8.1c-1.9-0.7-4-1.1-6.2-1.1    s-4.2,0.4-6.2,1.1C43.2,9.9,40.8,4,32,4c-0.6,0-1,0.4-1,1s0.4,1,1,1c8,0,9.7,5.4,9.9,6.8C35.5,15.9,31,22.4,31,30    c0,1.2,0.1,2.4,0.3,3.6c-3.3,0.6-6.3,1.8-9,3.5c-6.8-3.5-3.5-10.3-3.4-10.6c0.2-0.5,0-1.1-0.4-1.3c-0.5-0.2-1.1,0-1.3,0.4    c0,0.1-1.1,2.2-1.1,4.9c0,2.3,0.8,5.5,4.4,7.8c-3.9,2.9-7,6.9-9,11.7c-3.4,8.3-3.2,18.4,0.4,27c1.1,2.5,2.4,4.8,3.9,6.8    c-0.9,0.9-2.5,2.9-2.7,5.6c-0.2,2.2,0.5,4.3,2.2,6.3c0.2,0.2,0.5,0.4,0.8,0.4c0.2,0,0.5-0.1,0.6-0.2c0.4-0.4,0.5-1,0.1-1.4    c-1.8-2.2-2.2-4.4-1.3-6.6c0.4-1,1.1-1.8,1.5-2.3c2.9,3.4,6.4,5.9,10.4,7.6c0.1,0,0.2,0.1,0.4,0.1c0.4,0,0.8-0.2,0.9-0.6l1.4-3.5    C35.7,93.5,42.7,96,50,96c7.3,0,14.3-2.5,19.8-7.2l1.4,3.5c0.2,0.4,0.5,0.6,0.9,0.6c0.1,0,0.3,0,0.4-0.1c4-1.6,7.5-4.2,10.4-7.6    c0.7,0.8,1.8,2.3,2,4.2c0.1,1.6-0.4,3.2-1.8,4.8c-0.4,0.4-0.3,1.1,0.1,1.4c0.2,0.2,0.4,0.2,0.6,0.2c0.3,0,0.6-0.1,0.8-0.4    c1.7-2,2.4-4.1,2.2-6.3c-0.2-2.7-1.8-4.7-2.7-5.6c1.5-2,2.8-4.3,3.9-6.8C91.8,68.4,91.9,58.3,88.6,50z M50,13c9.4,0,17,7.6,17,17    c0,1.1-0.1,2.2-0.3,3.3c-5.4-0.7-11.2,0.1-16.7,2.2c-5.6-2.1-11.3-2.9-16.7-2.2c-0.2-1-0.3-2.1-0.3-3.3C33,20.6,40.6,13,50,13z     M27.3,90.7c-5.9-2.7-10.7-7.8-13.6-14.5c-3.4-8.1-3.6-17.6-0.4-25.5c3.5-8.6,10.4-14,19.4-15.4c1.4-0.2,2.9-0.3,4.4-0.3    c3.8,0,7.8,0.7,11.7,2.2l0.1,0.2L28.9,86.8c0,0,0,0,0,0L27.3,90.7z M50,94c-7,0-13.7-2.5-19-7.1l15.8-39L50,40l2.2,5.3l1,2.5    c0,0,0,0,0,0l15.8,39C63.7,91.5,57,94,50,94z M72.7,90.7l-1.6-3.8c0,0,0,0,0,0L51.5,38.3l-0.4-1l0.1-0.2c5.4-2,11-2.6,16.2-1.8    c9,1.4,15.9,6.9,19.4,15.4c3.2,7.8,3,17.4-0.4,25.5C83.5,82.9,78.7,88,72.7,90.7z"/><path d="M35,52c2.8,0,5-2.2,5-5s-2.2-5-5-5s-5,2.2-5,5S32.2,52,35,52z M35,44c1.7,0,3,1.3,3,3s-1.3,3-3,3s-3-1.3-3-3    S33.3,44,35,44z"/><path d="M25,57c0-2.8-2.2-5-5-5s-5,2.2-5,5s2.2,5,5,5S25,59.8,25,57z M17,57c0-1.7,1.3-3,3-3s3,1.3,3,3s-1.3,3-3,3S17,58.7,17,57z    "/><path d="M30,74c0-2.8-2.2-5-5-5s-5,2.2-5,5s2.2,5,5,5S30,76.8,30,74z M25,77c-1.7,0-3-1.3-3-3s1.3-3,3-3s3,1.3,3,3S26.7,77,25,77z    "/><path d="M65,42c-2.8,0-5,2.2-5,5s2.2,5,5,5s5-2.2,5-5S67.8,42,65,42z M65,50c-1.7,0-3-1.3-3-3s1.3-3,3-3s3,1.3,3,3S66.7,50,65,50z    "/><path d="M80,52c-2.8,0-5,2.2-5,5s2.2,5,5,5s5-2.2,5-5S82.8,52,80,52z M80,60c-1.7,0-3-1.3-3-3s1.3-3,3-3s3,1.3,3,3S81.7,60,80,60z    "/><path d="M75,69c-2.8,0-5,2.2-5,5s2.2,5,5,5s5-2.2,5-5S77.8,69,75,69z M75,77c-1.7,0-3-1.3-3-3s1.3-3,3-3s3,1.3,3,3S76.7,77,75,77z    "/></g></g><g id="watering"/><g id="hanging_pot"/><g id="green_house"/></svg>