<?xml version="1.0" encoding="UTF-8" standalone="no"?>
<!-- Created with Inkscape (http://www.inkscape.org/) -->

<svg
   width="210mm"
   height="297mm"
   viewBox="0 0 210 297"
   version="1.1"
   id="svg5"
   inkscape:version="1.2.2 (732a01da63, 2022-12-09)"
   sodipodi:docname="leaf_0.svg"
   xmlns:inkscape="http://www.inkscape.org/namespaces/inkscape"
   xmlns:sodipodi="http://sodipodi.sourceforge.net/DTD/sodipodi-0.dtd"
   xmlns="http://www.w3.org/2000/svg"
   xmlns:svg="http://www.w3.org/2000/svg">
  <sodipodi:namedview
     id="namedview7"
     pagecolor="#ffffff"
     bordercolor="#666666"
     borderopacity="1.0"
     inkscape:showpageshadow="2"
     inkscape:pageopacity="0.0"
     inkscape:pagecheckerboard="0"
     inkscape:deskcolor="#d1d1d1"
     inkscape:document-units="mm"
     showgrid="false"
     inkscape:zoom="2"
     inkscape:cx="62.5"
     inkscape:cy="86"
     inkscape:window-width="1366"
     inkscape:window-height="705"
     inkscape:window-x="-8"
     inkscape:window-y="-8"
     inkscape:window-maximized="1"
     inkscape:current-layer="layer1" />
  <defs
     id="defs2" />
  <g
     inkscape:label="Layer 1"
     inkscape:groupmode="layer"
     id="layer1">
    <path
       id="path591"
       style="fill:#ff0000;fill-rule:evenodd;stroke-width:0.264583"
       d="M -25,0 A 16.344897,13.904907 0 0 0 -12.46444,5 16.344897,13.904907 0 0 0 -1.69e-4,0.0845022 16.344897,13.904907 0 0 0 12.447885,5 16.344897,13.904907 0 0 0 25,0 H 24.94054 A 16.312206,13.877097 0 0 1 12.447885,4.97212 16.312206,13.877097 0 0 1 0.021454,0.0638078 16.344897,13.904907 0 0 0 0.0876745,0 H 0.0282115 A 16.312206,13.877097 0 0 1 -0.0082785,0.035066 16.312206,13.877097 0 0 1 -0.0447685,0 h -0.04291 A 16.344897,13.904907 0 0 0 -0.0299035,0.05576 16.312206,13.877097 0 0 1 -12.464445,4.97212 16.312206,13.877097 0 0 1 -24.957097,0 Z" />
  </g>
</svg>
