<?xml version="1.0" encoding="UTF-8" standalone="no"?>
<!-- Created with Inkscape (http://www.inkscape.org/) -->

<svg
   width="210mm"
   height="297mm"
   viewBox="0 0 210 297"
   version="1.1"
   id="svg5"
   xml:space="preserve"
   inkscape:version="1.2.2 (732a01da63, 2022-12-09)"
   sodipodi:docname="leaf_2.svg"
   xmlns:inkscape="http://www.inkscape.org/namespaces/inkscape"
   xmlns:sodipodi="http://sodipodi.sourceforge.net/DTD/sodipodi-0.dtd"
   xmlns="http://www.w3.org/2000/svg"
   xmlns:svg="http://www.w3.org/2000/svg"><sodipodi:namedview
     id="namedview7"
     pagecolor="#ffffff"
     bordercolor="#666666"
     borderopacity="1.0"
     inkscape:showpageshadow="2"
     inkscape:pageopacity="0.0"
     inkscape:pagecheckerboard="0"
     inkscape:deskcolor="#d1d1d1"
     inkscape:document-units="mm"
     showgrid="false"
     inkscape:zoom="0.2973261"
     inkscape:cx="-153.03063"
     inkscape:cy="561.67286"
     inkscape:window-width="1366"
     inkscape:window-height="705"
     inkscape:window-x="-8"
     inkscape:window-y="-8"
     inkscape:window-maximized="1"
     inkscape:current-layer="layer1" /><defs
     id="defs2" /><g
     inkscape:label="Layer 1"
     inkscape:groupmode="layer"
     id="layer1"><path
       style="fill:#000000;stroke-width:0.999995"
       d="m -45.106449,3.8701085 c -1.224223,-0.36267 -2.23793,-1.11291 -4.161137,-3.07963199 C -49.907417,0.13616551 -50,0.00314951 -50,-0.26177049 c 0,-0.16678 0.02372,-0.303258 0.0527,-0.303258 0.02897,0 0.563171,0.53396 1.187078,1.186576 1.318719,1.37939699 2.068373,2.01369499 2.880216,2.43700099 0.843614,0.439876 1.475369,0.559554 2.224328,0.421368 1.342327,-0.247662 2.389749,-1.039472 5.031757,-3.80380699 2.851352,-2.98337301 3.861826,-3.65575901 5.504116,-3.66253501 1.645939,-0.0068 2.827541,0.788066 5.842203,3.93001901 1.917817,1.99879899 2.493844,2.51992299 3.335782,3.01785299 1.101191,0.651258 2.075377,0.737384 3.198007,0.282742 0.997506,-0.403974 1.828768,-1.091882 3.806858,-3.15035299 1.019082,-1.060492 2.171239,-2.20566201 2.56035,-2.54482401 1.336405,-1.164857 2.614359,-1.677541 3.781925,-1.517221 1.5621154,0.214498 2.4863025,0.870708 5.1773655,3.67614101 2.077429,2.16571899 2.91898,2.90692099 3.831823,3.37490899 1.20540404,0.617978 2.15765005,0.602046 3.3978481,-0.05686 0.977794,-0.519486 1.609804,-1.075174 3.638952,-3.19951499 1.883362,-1.97171201 2.820956,-2.81039901 3.637822,-3.25406501 1.4425924,-0.783518 2.8157344,-0.75027 4.2505994,0.10292 0.844427,0.502108 1.672146,1.245019 3.359649,3.01541701 1.926164,2.02078099 2.357662,2.42659099 3.202563,3.01190099 1.092764,0.75702 2.026078,0.981096 3.030304,0.72753 1.266644,-0.319822 2.248189,-1.082412 4.681243,-3.63699499 1.806005,-1.89620801 2.423016,-2.46171901 3.310923,-3.03455101 1.528861,-0.986346 3.002869,-1.010498 4.555091,-0.07464 0.940209,0.566864 1.596627,1.166355 3.707921,3.38631301 2.822223,2.96747899 4.039752,3.70352699 5.638295,3.40858899 1.166234,-0.215174 2.116645,-0.855238 3.888933,-2.61905599 1.025705,-1.020795 1.103762,-1.080167 1.233554,-0.938205 0.12965,0.14182 0.07437,0.218844 -0.860231,1.19868699 -1.976434,2.072102 -3.316164,2.885858 -4.740915,2.879654 -0.716657,-0.003 -1.148483,-0.12838 -2.001123,-0.5805 -0.992602,-0.526332 -1.77421,-1.214818 -3.871621,-3.41034099 -1.911587,-2.00100801 -2.711022,-2.69340901 -3.661427,-3.17119301 -0.590159,-0.296684 -0.670194,-0.313284 -1.497422,-0.310594 -0.715616,0.0024 -0.962072,0.04058 -1.360436,0.211114 -0.941055,0.40287 -1.888424,1.194941 -3.857947,3.22553301 -2.147275,2.21385699 -2.669538,2.70083699 -3.43777,3.20550899 -0.763363,0.501476 -1.438788,0.75275 -2.1732,0.808476 -0.754114,0.05722 -1.305152,-0.06482 -2.11326,-0.468002 -0.951868,-0.474918 -1.675779,-1.099202 -3.687968,-3.18043899 -1.04977,-1.085786 -2.139153,-2.17317801 -2.420851,-2.41642601 -1.915535,-1.654061 -3.453956,-1.860181 -5.2736974,-0.706581 -0.792362,0.502309 -1.364521,1.032675 -3.289487,3.04921101 -2.350309,2.46210899 -3.382663,3.26627699 -4.634555,3.61015699 -1.31738406,0.361873 -2.6378191,-0.02732 -4.1292011,-1.217098 -0.374006,-0.298366 -1.396502,-1.29553 -2.272213,-2.21592299 -2.534568,-2.66388201 -3.427811,-3.40618501 -4.5516821,-3.78253701 -0.5692904,-0.19064 -1.4421154,-0.222238 -1.9498024,-0.0706 -1.18041,0.352592 -2.179351,1.144015 -4.449208,3.52493701 -0.941268,0.98732699 -1.980525,2.02881099 -2.309458,2.31440899 -1.927254,1.673345 -3.549139,1.992929 -5.350209,1.054224 -0.910221,-0.4744 -1.818886,-1.268298 -3.716736,-3.24730899 -3.070137,-3.20143301 -4.026398,-3.83300501 -5.63958,-3.72471901 -0.579954,0.03892 -0.805226,0.1038 -1.391467,0.400698 -1.011965,0.512503 -1.816829,1.210361 -3.876519,3.36113301 -1.926969,2.01218099 -2.637094,2.64682899 -3.523159,3.14869699 -0.986222,0.558596 -2.10209,0.728299 -3.01351,0.458288 z"
       id="path304" /></g></svg>
