<?xml version="1.0" encoding="UTF-8" standalone="no"?>
<!-- Created with Inkscape (http://www.inkscape.org/) -->

<svg
   width="210mm"
   height="297mm"
   viewBox="0 0 210 297"
   version="1.1"
   id="svg5"
   inkscape:version="1.2.2 (732a01da63, 2022-12-09)"
   sodipodi:docname="taca_31.svg"
   xmlns:inkscape="http://www.inkscape.org/namespaces/inkscape"
   xmlns:sodipodi="http://sodipodi.sourceforge.net/DTD/sodipodi-0.dtd"
   xmlns="http://www.w3.org/2000/svg"
   xmlns:svg="http://www.w3.org/2000/svg">
  <sodipodi:namedview
     id="namedview7"
     pagecolor="#ffffff"
     bordercolor="#cccccc"
     borderopacity="1"
     inkscape:showpageshadow="0"
     inkscape:pageopacity="1"
     inkscape:pagecheckerboard="0"
     inkscape:deskcolor="#d1d1d1"
     inkscape:document-units="mm"
     showgrid="false"
     inkscape:zoom="0.68662169"
     inkscape:cx="78.645928"
     inkscape:cy="-189.33279"
     inkscape:window-width="1360"
     inkscape:window-height="697"
     inkscape:window-x="-8"
     inkscape:window-y="-8"
     inkscape:window-maximized="1"
     inkscape:current-layer="layer1"
     showguides="false" />
  <defs
     id="defs2" />
  <g
     inkscape:label="Layer 1"
     inkscape:groupmode="layer"
     id="layer1">
    <path
       id="rect394"
       style="fill:#0000ff;stroke-width:0.264583"
       inkscape:transform-center-x="-1.9267038"
       d="M -55.008529 -110.231 C -55.251432 -110.00544 -58.351196 -101.15824 -58.924052 -88.4592 C -60.80822 -46.69108 -51.535869 -19.48673 -39.03431 -14.020333 C -30.864901 -10.448199 -9.9154019 -3.6452695 -5.9805135 1.5652791 C -2.3419924 6.3833804 -4.082887 17.030796 -14.592391 23.535514 C -21.603352 27.874856 -48.932414 34.128149 -48.932414 34.128149 C -35.225548 37.94291 -3.2552048 23.766681 0.37155355 34.889343 L 0.20722249 3.0695801 C 1.8656407 -7.6550252 -27.551926 -6.1843148 -42.106474 -17.63665 C -63.802107 -34.707991 -57.377256 -100.7139 -55.03075 -110.01912 C -54.988769 -110.1856 -54.983401 -110.25433 -55.008529 -110.231 z M -56.93916 -74.249731 C -56.75033 -52.603785 -53.403717 -27.843808 -41.297221 -18.317745 C -28.55373 -8.2904444 -4.4240581 -8.167334 0.2723348 -1.0939901 L 0.2723348 -74.249731 L -56.93916 -74.249731 z " />
  </g>
</svg>
