<?xml version="1.0" encoding="UTF-8" standalone="no"?>
<!-- Created with Inkscape (http://www.inkscape.org/) -->

<svg
   width="210mm"
   height="297mm"
   viewBox="0 0 210 297"
   version="1.1"
   id="svg5"
   inkscape:version="1.2.2 (732a01da63, 2022-12-09)"
   sodipodi:docname="terreno.svg"
   xmlns:inkscape="http://www.inkscape.org/namespaces/inkscape"
   xmlns:sodipodi="http://sodipodi.sourceforge.net/DTD/sodipodi-0.dtd"
   xmlns="http://www.w3.org/2000/svg"
   xmlns:svg="http://www.w3.org/2000/svg">
  <sodipodi:namedview
     id="namedview7"
     pagecolor="#ffffff"
     bordercolor="#666666"
     borderopacity="1.0"
     inkscape:showpageshadow="2"
     inkscape:pageopacity="0.0"
     inkscape:pagecheckerboard="0"
     inkscape:deskcolor="#d1d1d1"
     inkscape:document-units="mm"
     showgrid="false"
     inkscape:zoom="2"
     inkscape:cx="181.25"
     inkscape:cy="112.75"
     inkscape:window-width="1902"
     inkscape:window-height="983"
     inkscape:window-x="62"
     inkscape:window-y="18"
     inkscape:window-maximized="0"
     inkscape:current-layer="layer1" />
  <defs
     id="defs2" />
  <g
     inkscape:label="Layer 1"
     inkscape:groupmode="layer"
     id="layer1">
    <path
       id="path234"
       style="fill:#784421;stroke:#000000;stroke-width:0;stroke-linecap:round;stroke-linejoin:bevel;paint-order:markers stroke fill"
       inkscape:transform-center-x="0.72359383"
       inkscape:transform-center-y="1.6591541"
       d="m -32.337638,-5.6737894 c -2.37489,-1.6902432 8.470516,1.9471334 8.526696,-5.5357036 0.03262,-4.34534 -0.832572,-8.389418 5.228752,-8.790507 6.636213,9.897649 14.9919508,8.57483 14.9919508,8.57483 0,0 3.36189499,-6.125897 16.4391382,-6.125897 5.367525,6.51161 -8.047286,11.1670386 -0.923117,12.4693608 7.318439,1.82409 19.40155,0.778233 27.738057,16.5342952 1.589057,3.003331 -2.846702,8.370268 -5.137222,1.594835 C 33.230588,9.213727 24.237344,12.948378 17.211096,11.535993 16.137591,16.484817 4.3941404,5.1453835 3.027861,12.872494 c 0.2927741,5.556575 -10.4232715,7.127505 -10.4232715,7.127505 1.2686874,-7.64029 -18.4671085,-1.666717 -12.1236695,-9.741114 0,0 -8.924349,1.459994 -7.038821,-2.6952279 2.018409,-4.4480618 -27.502834,2.5868339 -4.842972,-5.8939799"
       sodipodi:nodetypes="csccccssccccsc" />
  </g>
</svg>
