<?xml version="1.0" encoding="UTF-8" standalone="no"?>
<!-- Created with Inkscape (http://www.inkscape.org/) -->

<svg
   width="210mm"
   height="297mm"
   viewBox="0 0 210 297"
   version="1.1"
   id="svg5"
   xml:space="preserve"
   inkscape:version="1.2.2 (732a01da63, 2022-12-09)"
   sodipodi:docname="tooth18ff.svg"
   xmlns:inkscape="http://www.inkscape.org/namespaces/inkscape"
   xmlns:sodipodi="http://sodipodi.sourceforge.net/DTD/sodipodi-0.dtd"
   xmlns="http://www.w3.org/2000/svg"
   xmlns:svg="http://www.w3.org/2000/svg"><sodipodi:namedview
     id="namedview7"
     pagecolor="#ffffff"
     bordercolor="#666666"
     borderopacity="1.0"
     inkscape:showpageshadow="2"
     inkscape:pageopacity="0.0"
     inkscape:pagecheckerboard="0"
     inkscape:deskcolor="#d1d1d1"
     inkscape:document-units="mm"
     showgrid="false"
     inkscape:zoom="1.6819304"
     inkscape:cx="33.295076"
     inkscape:cy="-41.618845"
     inkscape:window-width="1366"
     inkscape:window-height="705"
     inkscape:window-x="-8"
     inkscape:window-y="-8"
     inkscape:window-maximized="1"
     inkscape:current-layer="layer1" /><defs
     id="defs2" /><g
     inkscape:label="Layer 1"
     inkscape:groupmode="layer"
     id="layer1"><path
       id="path956"
       style="fill:#ff0000;stroke:#000000;stroke-width:0;stroke-linecap:butt;stroke-linejoin:miter;stroke-opacity:1;stroke-dasharray:none"
       d="m -25.89619,-28.101501 c -1.077368,-0.0103 -2.840674,0.369989 -6.755151,1.231459 -0.371511,0.08176 -0.657577,0.146369 -0.982886,0.218593 l 6.954105,32.5734401 h -0.174667 l 0.02635,0.117307 0.179835,0.02997 0.0031,0.0155 c 0.01884,0.0053 0.03953,0.0112 0.0584,0.01654 l 0.897103,5.0250529 3.799256,16.976348 h 43.883159 l 11.508354,-54.743825 0.0615,0.321946 0.07493,-0.396878 c -0.1317,-0.02902 -0.227596,-0.0507 -0.36587,-0.08113 -3.914471,-0.861468 -5.677782,-1.241756 -6.75515,-1.231458 -0.837954,0.008 -1.261378,0.252369 -1.958539,0.689885 -7.499089,5.818845 -11.562594,11.81587 -12.920674,19.7808478 -0.29874,1.7384981 -0.664004,3.2155651 -1.125513,4.4726271 C 9.2740407,-0.22548604 7.2996185,1.762251 4.7515906,2.748002 3.9895748,3.000368 3.1496318,3.19611 2.2215088,3.344353 2.0054806,3.378853 1.7928053,3.406563 1.5807211,3.431683 0.57595197,3.499903 -0.48696522,3.449583 -1.6020345,3.271485 -3.3600814,2.990696 -4.801247,2.541281 -5.9935024,1.851924 -7.4134979,0.90337398 -8.5860563,-0.43356904 -9.4692632,-2.1271911 c -0.6694808,-1.45777 -1.1636688,-3.26516 -1.5482278,-5.5030621 -1.358077,-7.9649938 -5.42158,-13.9625218 -12.920673,-19.7813648 -0.697161,-0.437523 -1.12007,-0.681875 -1.958022,-0.689886 z" /></g></svg>
