<?xml version="1.0" encoding="UTF-8" standalone="no"?>
<!-- Created with Inkscape (http://www.inkscape.org/) -->

<svg
   width="210mm"
   height="297mm"
   viewBox="0 0 210 297"
   version="1.1"
   id="svg7536"
   xml:space="preserve"
   inkscape:version="1.2.2 (732a01da63, 2022-12-09)"
   sodipodi:docname="tooth18f.svg"
   xmlns:inkscape="http://www.inkscape.org/namespaces/inkscape"
   xmlns:sodipodi="http://sodipodi.sourceforge.net/DTD/sodipodi-0.dtd"
   xmlns="http://www.w3.org/2000/svg"
   xmlns:svg="http://www.w3.org/2000/svg"><sodipodi:namedview
     id="namedview7538"
     pagecolor="#ffffff"
     bordercolor="#666666"
     borderopacity="1.0"
     inkscape:showpageshadow="2"
     inkscape:pageopacity="0.0"
     inkscape:pagecheckerboard="0"
     inkscape:deskcolor="#d1d1d1"
     inkscape:document-units="mm"
     showgrid="false"
     inkscape:zoom="0.70710678"
     inkscape:cx="15.556349"
     inkscape:cy="56.568542"
     inkscape:window-width="1366"
     inkscape:window-height="705"
     inkscape:window-x="-8"
     inkscape:window-y="-8"
     inkscape:window-maximized="1"
     inkscape:current-layer="layer1" /><defs
     id="defs7533" /><g
     inkscape:label="Layer 1"
     inkscape:groupmode="layer"
     id="layer1"><path
       id="path7681"
       style="fill:#000000;stroke-width:1"
       d="m 25.822713,-28.298138 c -0.16123,-0.0088 -0.323713,-0.0077 -0.487309,0.0036 -0.604044,0.0419 -1.220653,0.22862 -1.821594,0.613919 -5.211371,2.401306 -9.453939,10.726002 -10.56473,18.9776191 -2.851491,16.5490631 -22.0311314,17.1190822 -24.914758,-0.1038698 -1.502309,-7.6144973 -6.443177,-13.9506173 -11.029301,-17.9223913 -3.604346,-2.339236 -6.895927,0.786239 -7.235217,1.125519 -0.10447,0.104469 3.678117,22.0837337 9.257316,53.906692 A 120,119.99981 0 0 1 -0.10025228,26.453983 120,119.99981 0 0 1 20.865393,28.304 c 4.948477,-28.06505443 9.250215,-52.518395 9.36377,-53.364103 0.10237,-0.823479 -1.988004,-3.105635 -4.40645,-3.238035 z" /></g></svg>
