<svg xmlns="http://www.w3.org/2000/svg" viewBox="0 0 64 64" width="64px" height="64px"><radialGradient id="TBpNPNTLZ_fBkOfQrQJyqa" cx="31.873" cy="35.569" r="50.261" gradientUnits="userSpaceOnUse" spreadMethod="reflect"><stop offset="0" stop-color="#e9ce8e"/><stop offset="0" stop-color="#eddfb9"/><stop offset=".309" stop-color="#f6e9cb"/><stop offset=".685" stop-color="#fdf2d9"/><stop offset="1" stop-color="#fff5de"/></radialGradient><path fill="url(#TBpNPNTLZ_fBkOfQrQJyqa)" d="M59,16h2c1.848,0,3.319-1.693,2.94-3.605C63.657,10.972,62.32,10,60.869,10H50.5 C49.672,10,49,9.328,49,8.5S49.672,7,50.5,7h5.912c1.139,0,2.202-0.721,2.497-1.821C59.355,3.516,58.096,2,56.5,2H34h-1.5h-24 C6.575,2,5,3.575,5,5.5S6.575,9,8.5,9H10c1.105,0,2,0.895,2,2c0,1.105-0.895,2-2,2l-5.385,0c-1.67,0-3.195,1.122-3.537,2.757 C0.608,18.002,2.332,20,4.5,20H12L9,32l-5.385,0c-1.67,0-3.195,1.122-3.537,2.757C-0.392,37.002,1.332,39,3.5,39H4 c1.105,0,2,0.895,2,2c0,1.105-0.895,2-2,2H3.5c-2.168,0-3.892,1.998-3.422,4.243C0.42,48.878,1.945,50,3.615,50H9 c1.105,0,2,0.895,2,2c0,1.105-0.895,2-2,2l-1.385,0c-1.67,0-3.195,1.122-3.537,2.757C3.608,59.002,5.332,61,7.5,61h23.494H32.5H34 h22c1.657,0,3-1.343,3-3s-1.343-3-3-3h-0.5c-1.381,0-2.5-1.119-2.5-2.5c0-1.381,1.119-2.5,2.5-2.5H60c1.657,0,3-1.343,3-3 s-1.343-3-3-3h-8.377C53.764,40.506,55,36.398,55,32c0-2.441-0.384-4.792-1.088-7h6.501c1.139,0,2.202-0.721,2.497-1.821 C63.355,21.516,62.096,20,60.5,20H59c-1.105,0-2-0.895-2-2C57,16.895,57.895,16,59,16z"/><linearGradient id="TBpNPNTLZ_fBkOfQrQJyqb" x1="32" x2="32" y1="58" y2="6" gradientUnits="userSpaceOnUse" spreadMethod="reflect"><stop offset="0" stop-color="#ff634d"/><stop offset=".204" stop-color="#fe6464"/><stop offset=".521" stop-color="#fc6581"/><stop offset=".794" stop-color="#fa6694"/><stop offset=".989" stop-color="#fa669a"/><stop offset="1" stop-color="#fa669a"/></linearGradient><path fill="url(#TBpNPNTLZ_fBkOfQrQJyqb)" d="M32,6C17.663,6,6,17.664,6,32s11.663,26,26,26s26-11.664,26-26S46.337,6,32,6z M32,13 c3.902,0,7.614,1.167,10.804,3.388L16.388,42.804C14.168,39.614,13,35.902,13,32C13,21.523,21.523,13,32,13z M32,51 c-3.902,0-7.614-1.167-10.804-3.388l26.416-26.416C49.832,24.386,51,28.098,51,32C51,42.477,42.477,51,32,51z"/></svg>