<svg xmlns="http://www.w3.org/2000/svg" viewBox="0 0 64 64" width="512px" height="512px"><radialGradient id="fAfb~ncVjgApaphHwOMJ8a" cx="31.873" cy="35.569" r="50.261" gradientUnits="userSpaceOnUse" spreadMethod="reflect"><stop offset="0" stop-color="#afeeff"/><stop offset=".193" stop-color="#bbf1ff"/><stop offset=".703" stop-color="#d7f8ff"/><stop offset="1" stop-color="#e1faff"/></radialGradient><path fill="url(#fAfb~ncVjgApaphHwOMJ8a)" d="M59,16h2c1.848,0,3.319-1.693,2.94-3.605C63.657,10.972,62.32,10,60.869,10H50.5 C49.672,10,49,9.328,49,8.5S49.672,7,50.5,7h5.912c1.139,0,2.202-0.721,2.497-1.821C59.355,3.516,58.096,2,56.5,2H34h-1.5h-24 C6.575,2,5,3.575,5,5.5S6.575,9,8.5,9H10c1.105,0,2,0.895,2,2c0,1.105-0.895,2-2,2l-5.385,0c-1.67,0-3.195,1.122-3.537,2.757 C0.608,18.002,2.332,20,4.5,20H12L9,32l-5.385,0c-1.67,0-3.195,1.122-3.537,2.757C-0.392,37.002,1.332,39,3.5,39H4 c1.105,0,2,0.895,2,2c0,1.105-0.895,2-2,2H3.5c-2.168,0-3.892,1.998-3.422,4.243C0.42,48.878,1.945,50,3.615,50H9 c1.105,0,2,0.895,2,2c0,1.105-0.895,2-2,2l-1.385,0c-1.67,0-3.195,1.122-3.537,2.757C3.608,59.002,5.332,61,7.5,61h23.494H32.5H34 h22c1.657,0,3-1.343,3-3s-1.343-3-3-3h-0.5c-1.381,0-2.5-1.119-2.5-2.5c0-1.381,1.119-2.5,2.5-2.5H60c1.657,0,3-1.343,3-3 s-1.343-3-3-3h-8.377C53.764,40.506,55,36.398,55,32c0-2.441-0.384-4.792-1.088-7h6.501c1.139,0,2.202-0.721,2.497-1.821 C63.355,21.516,62.096,20,60.5,20H59c-1.105,0-2-0.895-2-2C57,16.895,57.895,16,59,16z"/><linearGradient id="fAfb~ncVjgApaphHwOMJ8b" x1="43.5" x2="43.5" y1="59.034" y2="-21.15" gradientUnits="userSpaceOnUse" spreadMethod="reflect"><stop offset="0" stop-color="#ff634d"/><stop offset=".204" stop-color="#fe6464"/><stop offset=".521" stop-color="#fc6581"/><stop offset=".794" stop-color="#fa6694"/><stop offset=".989" stop-color="#fa669a"/></linearGradient><path fill="url(#fAfb~ncVjgApaphHwOMJ8b)" d="M51.483,15.326l3.937-3.93c1.24-1.25,0.36-3.38-1.4-3.38H42c-1.1,0-2,0.9-2,2v12 c0,1.76,2.13,2.65,3.38,1.4l4.537-4.529C50.532,22.313,52,26.533,52,31c0,11.215-8.565,20-19.5,20c-1.381,0-2.5,1.119-2.5,2.5 s1.119,2.5,2.5,2.5C46.238,56,57,45.019,57,31C57,25.183,55.012,19.699,51.483,15.326z"/><linearGradient id="fAfb~ncVjgApaphHwOMJ8c" x1="20.5" x2="20.5" y1="55.227" y2="-24.844" gradientUnits="userSpaceOnUse" spreadMethod="reflect"><stop offset="0" stop-color="#ff634d"/><stop offset=".204" stop-color="#fe6464"/><stop offset=".521" stop-color="#fc6581"/><stop offset=".794" stop-color="#fa6694"/><stop offset=".989" stop-color="#fa669a"/></linearGradient><path fill="url(#fAfb~ncVjgApaphHwOMJ8c)" d="M20.604,38.58l-4.523,4.53C13.468,39.683,12,35.463,12,31c0-11.215,8.565-20,19.5-20 c1.381,0,2.5-1.119,2.5-2.5S32.881,6,31.5,6C17.762,6,7,16.981,7,31c0,5.815,1.989,11.303,5.52,15.677L8.584,50.62 c-1.25,1.25-0.36,3.38,1.4,3.38h12c1.1,0,2-0.9,2-2V39.98C23.984,38.22,21.854,37.34,20.604,38.58z"/></svg>