# Created with Anim8or 1.00
# Object "heli_tra":

mtllib heli_tra.mtl

# Begin Group:
# Shape "mesh01":
g mesh01
# No. points 58:
v 5.02505 0.12895 3.74246
v 0.36616 0.12895 1.02346
v 4.50215 0.12895 4.43346
v 0.68816 0.12895 0.16646
v -1.98595 0.12895 5.94246
v -0.83984 0.12895 0.67046
v -2.80465 0.12895 5.65746
v 0.07436 0.12895 0.71246
v 5.10005 0.12895 -3.60554
v 1.07415 0.12895 -0.01454
v 5.59505 0.12895 -2.89454
v 0.35896 0.12895 -0.58554
v -0.87714 0.12895 -0.58554
v -6.24483 0.12895 -0.04654
v -0.63414 0.12895 0.29746
v -6.22756 0.12895 -0.91254
v 0.30576 0.12895 -1.00854
v -1.86554 0.12895 -5.94754
v -0.45824 0.12895 -0.50554
v -1.03624 0.12895 -6.19854
v 1.01436 0.09946 0.53946
v 0.09696 0.09946 0.29246
v 0.81426 0.09946 0.81446
v 0.29586 0.09946 0.01546
v -0.22964 0.09946 -0.15154
v -0.22774 0.09946 0.18846
v 0.29586 0.09946 0.01546
v 0.09386 0.09946 -0.25954
v 0.81456 0.09946 -0.78054
v 1.01466 0.09946 -0.50554
v -0.17964 0.09946 1.13746
v -0.50345 0.09946 1.03246
v 0.09696 0.09946 0.29246
v 0.29586 0.09946 0.01546
v -0.22964 0.09946 -0.15154
v -1.11734 0.09946 0.18646
v -0.22774 0.09946 0.18846
v -1.11734 0.09946 -0.15354
v 0.09386 0.09946 -0.25954
v -0.50284 0.09946 -0.99854
v -0.22964 0.09946 -0.15154
v -0.17914 0.09946 -1.10354
v 0.91456 -0.02059 -0.64354
v 0.00576 -0.02059 0.01646
v 0.91426 -0.02059 0.67746
v -0.34154 -0.02059 1.08446
v -0.34104 -0.02059 -1.05154
v -1.11734 -0.02059 0.01646
v 4.40945 -0.14077 3.79546
v 0.70276 -0.14077 0.74046
v -0.13324 -0.14077 -0.97754
v -1.33594 -0.14078 -5.62854
v -2.22705 -0.14077 5.37246
v -0.46624 -0.14077 0.90346
v 4.96006 -0.14077 -3.00354
v 0.90856 -0.14077 -0.42254
v -0.98284 -0.14077 -0.15754
v -5.77788 -0.14078 -0.45154

# No. normals 208:
vn 0 1 0
vn 0 1 0
vn 0 1 0
vn 0 1 0
vn 0 1 0
vn 0 1 0
vn 0 1 0
vn 0 1 0
vn 0 1 0
vn 0 1 0
vn 0 1 0
vn 0 1 0
vn 0 1 0
vn 0 1 0
vn 0 1 0
vn 0 1 0
vn 0 1 0
vn 0 1 0
vn 0 1 0
vn 0 1 0
vn 0 1 0
vn 0 1 0
vn 0 1 0
vn 0.33789 -0.81762 0.46618
vn 0.33942 -0.81631 0.46737
vn -0.34001 -0.81609 0.46732
vn -0.33994 -0.81624 0.46712
vn -0.54821 -0.81694 -0.17909
vn -0.55102 -0.81503 -0.17919
vn 0.55073 -0.81530 -0.17883
vn 0.54875 -0.81693 -0.17750
vn 0.00130 -0.81685 -0.57684
vn 0 -0.81362 -0.58140
vn 0.33741 -0.81921 -0.46374
vn 0.33926 -0.81762 -0.46519
vn -0.33691 -0.81931 -0.46391
vn -0.33846 -0.81623 -0.46819
vn 0.54411 -0.82014 0.17694
vn 0.54746 -0.81742 0.17920
vn -0.54435 -0.82002 0.17676
vn -0.54844 -0.81727 0.17690
vn 0 -0.82002 0.57234
vn -0.00130 -0.81685 0.57684
vn 0.40406 -0.86212 0.30576
vn 0.33663 -0.84853 -0.40826
vn 0.33590 -0.84916 -0.40756
vn -0.33663 -0.84851 0.40830
vn -0.33606 -0.84900 0.40775
vn 0.51202 -0.84871 -0.13240
vn 0.51207 -0.84868 -0.13241
vn 0.49173 -0.84893 0.19371
vn 0.49196 -0.84877 0.19383
vn 0.41589 -0.86209 -0.28954
vn -0.49192 -0.84880 -0.19381
vn -0.49198 -0.84875 -0.19384
vn 0.28404 -0.84884 0.44587
vn 0.28403 -0.84885 0.44585
vn -0.73127 -0.62431 -0.27476
vn -0.28428 -0.84854 -0.44629
vn -0.28419 -0.84867 -0.44610
vn 0.03585 -0.62440 -0.78028
vn -0.48742 -0.62426 0.61051
vn 0.75329 -0.62416 -0.20730
vn 0.42960 -0.62423 0.65252
vn 0.03222 -0.84915 -0.52717
vn 0.03238 -0.84857 -0.52808
vn -0.03237 -0.84869 0.52791
vn -0.03237 -0.84869 0.52790
vn -0.51201 -0.84871 0.13241
vn -0.51204 -0.84870 0.13241
vn -0.50672 -0.86205 -0.01011
vn -0.14683 -0.86203 -0.48512
vn -0.16655 -0.86219 0.47843
vn 0 1 0
vn 0.39674 -0.91629 -0.05490
vn 0 1 0
vn -0.73127 -0.62431 -0.27476
vn -0.33663 -0.84851 0.40830
vn 0 1 0
vn -0.09568 -0.91170 0.39957
vn 0 1 0
vn -0.73127 -0.62431 -0.27476
vn 0.33627 -0.84884 -0.40791
vn 0 1 0
vn 0.17418 -0.91654 0.36002
vn 0 1 0
vn 0.03585 -0.62440 -0.78028
vn -0.49192 -0.84880 -0.19381
vn 0 1 0
vn -0.40973 -0.91164 0.03233
vn 0 1 0
vn 0.03585 -0.62440 -0.78028
vn 0.49184 -0.84885 0.19377
vn 0 1 0
vn 0.07050 -0.91633 -0.39416
vn 0 1 0
vn -0.48742 -0.62426 0.61051
vn 0.28404 -0.84884 0.44587
vn 0 1 0
vn 0.35045 -0.91170 0.21447
vn 0 1 0
vn -0.48742 -0.62426 0.61051
vn -0.28423 -0.84860 -0.44619
vn 0 1 0
vn 0.03222 -0.84915 -0.52717
vn 0.75329 -0.62416 -0.20730
vn 0 1 0
vn -0.28876 -0.91635 0.27736
vn 0 1 0
vn -0.03237 -0.84869 0.52790
vn 0.75329 -0.62416 -0.20730
vn 0 1 0
vn -0.15747 -0.91171 -0.37945
vn 0 1 0
vn 0.42960 -0.62423 0.65252
vn 0.51207 -0.84868 -0.13241
vn 0 1 0
vn -0.35292 -0.91638 -0.18894
vn 0 1 0
vn -0.51202 -0.84870 0.13241
vn 0.42960 -0.62423 0.65252
vn 0 1 0
vn 0.31246 -0.91160 -0.26711
vn 0 1 0
vn 0.33926 -0.81762 -0.46519
vn 0 1 0
vn -0.33997 -0.81616 0.46722
vn 0 1 0
vn -0.33994 -0.81624 0.46712
vn 0 1 0
vn 0.33833 -0.81841 -0.46447
vn 0 1 0
vn 0 1 0
vn 0 1 0
vn 0 1 0
vn -0.54962 -0.81598 -0.17914
vn 0 1 0
vn 0 1 0
vn 0.33866 -0.81697 0.46677
vn 0 1 0
vn -0.33769 -0.81778 -0.46606
vn 0 1 0
vn -0.33846 -0.81623 -0.46819
vn 0 1 0
vn 0.33789 -0.81762 0.46618
vn 0 1 0
vn 0.54746 -0.81742 0.17920
vn 0 1 0
vn -0.54821 -0.81694 -0.17909
vn 0 1 0
vn 0.54579 -0.81878 0.17807
vn 0 1 0
vn 0 1 0
vn 0.00065 -0.81524 -0.57912
vn 0 1 0
vn -0.00130 -0.81685 0.57684
vn 0 1 0
vn -0.00065 -0.81844 0.57459
vn 0 1 0
vn 0.00130 -0.81685 -0.57684
vn 0 1 0
vn 0.54974 -0.81612 -0.17817
vn 0 1 0
vn -0.54844 -0.81727 0.17690
vn 0 1 0
vn -0.54639 -0.81865 0.17683
vn 0 1 0
vn 0.54875 -0.81693 -0.17750
vn 0.33866 -0.81697 0.46677
vn -0.33769 -0.81778 -0.46606
vn 0.33942 -0.81631 0.46737
vn 0 -0.82002 0.57234
vn -0.54435 -0.82002 0.17676
vn 0.54411 -0.82014 0.17694
vn -0.33691 -0.81931 -0.46391
vn 0.33741 -0.81921 -0.46374
vn 0 -0.81362 -0.58140
vn 0.55073 -0.81530 -0.17883
vn -0.55102 -0.81503 -0.17919
vn -0.34001 -0.81609 0.46732
vn -0.33997 -0.81616 0.46722
vn 0.33833 -0.81841 -0.46447
vn -0.54962 -0.81598 -0.17914
vn 0.54579 -0.81878 0.17807
vn 0.54974 -0.81612 -0.17817
vn -0.54639 -0.81865 0.17683
vn 0.00065 -0.81524 -0.57912
vn -0.00065 -0.81844 0.57459
vn 0.21220 -0.97679 -0.02931
vn 0.33590 -0.84916 -0.40756
vn -0.73127 -0.62431 -0.27476
vn -0.33635 -0.84875 0.40803
vn 0.51205 -0.84869 -0.13241
vn -0.51204 -0.84870 0.13241
vn 0.42960 -0.62423 0.65252
vn -0.18883 -0.97679 -0.10109
vn 0.09318 -0.97684 0.19262
vn 0.49196 -0.84877 0.19383
vn 0.03585 -0.62440 -0.78028
vn -0.49195 -0.84877 -0.19383
vn 0.03767 -0.97677 -0.21096
vn 0.28403 -0.84884 0.44586
vn -0.48742 -0.62426 0.61051
vn -0.28419 -0.84867 -0.44610
vn 0.75329 -0.62416 -0.20730
vn -0.03237 -0.84869 0.52790
vn 0.03230 -0.84886 -0.52763
vn -0.15451 -0.97679 0.14836

# No. texture coordinates 58:
vt 0.72012 0.24835
vt 0.74856 0.00178
vt 0.74856 0.24835
vt 0.72012 0.00178
vt 0.72012 0.24835
vt 0.74856 0.00178
vt 0.74856 0.24835
vt 0.72012 0.00178
vt 0.72012 0.24835
vt 0.74856 0.00178
vt 0.74856 0.24835
vt 0.72012 0.00178
vt 0.74856 0.00178
vt 0.72012 0.24835
vt 0.72012 0.00178
vt 0.74856 0.24835
vt 0.74856 0.00178
vt 0.72012 0.24835
vt 0.72012 0.00178
vt 0.74856 0.24835
vt 0.69133 0.00236
vt 0.71738 0.12728
vt 0.71738 0.00236
vt 0.69133 0.12744
vt 0.71738 0.15085
vt 0.71738 0.12727
vt 0.71738 0.12725
vt 0.69133 0.12744
vt 0.69133 0.00236
vt 0.71738 0.00236
vt 0.69133 0.00236
vt 0.71738 0.00236
vt 0.69133 0.12744
vt 0.66528 0.12760
vt 0.71738 0.12727
vt 0.69133 0.00236
vt 0.69133 0.12746
vt 0.71738 0.00236
vt 0.71738 0.12723
vt 0.69133 0.00236
vt 0.69133 0.12747
vt 0.71738 0.00236
vt 0.70200 0.00236
vt 0.70200 0.15085
vt 0.70200 0.00236
vt 0.70200 0.00236
vt 0.70200 0.00236
vt 0.70200 0.00236
vt 0.73503 0.23182
vt 0.73487 0.02120
vt 0.73487 0.02120
vt 0.73503 0.23182
vt 0.73503 0.23182
vt 0.73487 0.02120
vt 0.73503 0.23182
vt 0.73487 0.02120
vt 0.73487 0.02120
vt 0.73503 0.23182

# No. faces 73:

usemtl Body

f 1/1/74 2/2/76 3/3/79
f 4/4/81 2/2/76 1/1/74
f 5/5/84 6/6/86 7/7/89
f 8/8/91 6/6/86 5/5/84
f 9/9/94 10/10/96 11/11/99
f 12/12/101 10/10/96 9/9/94
f 13/13/104 14/14/107 15/15/109
f 16/16/112 14/14/107 13/13/104
f 17/17/114 18/18/117 19/19/119
f 20/20/122 18/18/117 17/17/114
f 21/21/124 22/22/126 23/23/128
f 24/24/130 22/22/126 21/21/124
f 24/24/132 25/25/133 26/26/135
f 27/27/138 28/28/140 25/25/134
f 27/27/138 29/29/142 28/28/140
f 30/30/144 29/29/142 27/27/138
f 31/31/146 26/26/137 32/32/148
f 33/33/150 26/26/137 31/31/146
f 33/33/150 34/34/152 26/26/137
f 35/35/153 36/36/155 37/37/157
f 35/35/153 38/38/159 36/36/155
f 39/39/161 40/40/163 41/41/165
f 39/39/161 42/42/167 40/40/163
f 27/27/139 43/43/169 30/30/145
f 27/27/139 44/44/171 43/43/169
f 45/45/181 22/22/127 44/44/180
f 45/45/181 23/23/129 22/22/127
f 26/26/136 46/46/183 32/32/149
f 26/26/136 44/44/179 46/46/183
f 47/47/185 39/39/162 44/44/178
f 47/47/185 42/42/168 39/39/162
f 35/35/154 48/48/187 38/38/160
f 35/35/154 44/44/177 48/48/187
f 24/24/131 45/45/182 44/44/176
f 24/24/131 21/21/125 45/45/182
f 28/28/141 43/43/170 44/44/175
f 28/28/141 29/29/143 43/43/170
f 33/33/151 46/46/184 44/44/174
f 33/33/151 31/31/147 46/46/184
f 41/41/166 47/47/186 44/44/173
f 41/41/166 40/40/164 47/47/186
f 37/37/158 48/48/188 44/44/172
f 37/37/158 36/36/156 48/48/188
f 3/3/80 49/49/189 1/1/75
f 49/49/189 4/4/83 1/1/75
f 50/50/190 4/4/83 49/49/189
f 50/50/192 3/3/80 2/2/78
f 49/49/189 3/3/80 50/50/192
f 20/20/123 51/51/193 52/52/196
f 17/17/116 51/51/193 20/20/123
f 53/53/197 8/8/93 5/5/85
f 54/54/198 8/8/93 53/53/197
f 11/11/100 55/55/201 9/9/95
f 54/54/200 7/7/90 6/6/88
f 53/53/197 7/7/90 54/54/200
f 56/56/202 11/11/100 10/10/98
f 55/55/201 11/11/100 56/56/202
f 4/4/82 50/50/191 2/2/77
f 55/55/201 12/12/103 9/9/95
f 56/56/204 12/12/103 55/55/201
f 8/8/92 54/54/199 6/6/87
f 12/12/102 56/56/203 10/10/97
f 15/15/111 57/57/205 13/13/106
f 19/19/121 51/51/195 17/17/115
f 57/57/207 16/16/113 13/13/105
f 58/58/208 16/16/113 57/57/207
f 58/58/208 15/15/110 14/14/108
f 57/57/206 15/15/110 58/58/208
f 52/52/196 19/19/120 18/18/118
f 51/51/194 19/19/120 52/52/196
f 16/16/113 58/58/208 14/14/108
f 20/20/123 52/52/196 18/18/118
f 7/7/90 53/53/197 5/5/85

# Shape "cylinder01":
g cylinder01
# No. points 72:
v 0.05211 -0.05891 -0.00103
v 0.05211 -0.03391 -0.00103
v 0.05211 -0.00891 -0.00103
v 0.05211 0.01609 -0.00103
v 0.05211 0.04109 -0.00103
v 0.05211 0.06609 -0.00103
v 0.05211 0.09109 -0.00103
v 0.05211 0.11609 -0.00103
v 0.05211 0.14109 -0.00103
v 0.03747 -0.05891 -0.03638
v 0.03747 -0.03391 -0.03638
v 0.03747 -0.00891 -0.03638
v 0.03747 0.01609 -0.03638
v 0.03747 0.04109 -0.03638
v 0.03747 0.06609 -0.03638
v 0.03747 0.09109 -0.03638
v 0.03747 0.11609 -0.03638
v 0.03747 0.14109 -0.03638
v 0.00211 -0.05891 -0.05103
v 0.00211 -0.03391 -0.05103
v 0.00211 -0.00891 -0.05103
v 0.00211 0.01609 -0.05103
v 0.00211 0.04109 -0.05103
v 0.00211 0.06609 -0.05103
v 0.00211 0.09109 -0.05103
v 0.00211 0.11609 -0.05103
v 0.00211 0.14109 -0.05103
v -0.03324 -0.05891 -0.03638
v -0.03324 -0.03391 -0.03638
v -0.03324 -0.00891 -0.03638
v -0.03324 0.01609 -0.03638
v -0.03324 0.04109 -0.03638
v -0.03324 0.06609 -0.03638
v -0.03324 0.09109 -0.03638
v -0.03324 0.11609 -0.03638
v -0.03324 0.14109 -0.03638
v -0.04789 -0.05891 -0.00103
v -0.04789 -0.03391 -0.00103
v -0.04789 -0.00891 -0.00103
v -0.04789 0.01609 -0.00103
v -0.04789 0.04109 -0.00103
v -0.04789 0.06609 -0.00103
v -0.04789 0.09109 -0.00103
v -0.04789 0.11609 -0.00103
v -0.04789 0.14109 -0.00103
v -0.03324 -0.05891 0.03433
v -0.03324 -0.03391 0.03433
v -0.03324 -0.00891 0.03433
v -0.03324 0.01609 0.03433
v -0.03324 0.04109 0.03433
v -0.03324 0.06609 0.03433
v -0.03324 0.09109 0.03433
v -0.03324 0.11609 0.03433
v -0.03324 0.14109 0.03433
v 0.00211 -0.05891 0.04897
v 0.00211 -0.03391 0.04897
v 0.00211 -0.00891 0.04897
v 0.00211 0.01609 0.04897
v 0.00211 0.04109 0.04897
v 0.00211 0.06609 0.04897
v 0.00211 0.09109 0.04897
v 0.00211 0.11609 0.04897
v 0.00211 0.14109 0.04897
v 0.03747 -0.05891 0.03433
v 0.03747 -0.03391 0.03433
v 0.03747 -0.00891 0.03433
v 0.03747 0.01609 0.03433
v 0.03747 0.04109 0.03433
v 0.03747 0.06609 0.03433
v 0.03747 0.09109 0.03433
v 0.03747 0.11609 0.03433
v 0.03747 0.14109 0.03433

# No. normals 10:
vn 0.70711 0 -0.70711
vn 0 0 -1
vn -0.70711 0 -0.70711
vn -1 0 0
vn -0.70711 0 0.70711
vn 0 0 1
vn 0.70711 0 0.70711
vn 1 0 0
vn 0 1 0
vn 0 -1 0

# No. texture coordinates 81:
vt 0 0
vt 0 0.12500
vt 0 0.25000
vt 0 0.37500
vt 0 0.50000
vt 0 0.62500
vt 0 0.75000
vt 0 0.87500
vt 0 1
vt 0.12500 0
vt 0.12500 0.12500
vt 0.12500 0.25000
vt 0.12500 0.37500
vt 0.12500 0.50000
vt 0.12500 0.62500
vt 0.12500 0.75000
vt 0.12500 0.87500
vt 0.12500 1
vt 0.25000 0
vt 0.25000 0.12500
vt 0.25000 0.25000
vt 0.25000 0.37500
vt 0.25000 0.50000
vt 0.25000 0.62500
vt 0.25000 0.75000
vt 0.25000 0.87500
vt 0.25000 1
vt 0.37500 0
vt 0.37500 0.12500
vt 0.37500 0.25000
vt 0.37500 0.37500
vt 0.37500 0.50000
vt 0.37500 0.62500
vt 0.37500 0.75000
vt 0.37500 0.87500
vt 0.37500 1
vt 0.50000 0
vt 0.50000 0.12500
vt 0.50000 0.25000
vt 0.50000 0.37500
vt 0.50000 0.50000
vt 0.50000 0.62500
vt 0.50000 0.75000
vt 0.50000 0.87500
vt 0.50000 1
vt 0.62500 0
vt 0.62500 0.12500
vt 0.62500 0.25000
vt 0.62500 0.37500
vt 0.62500 0.50000
vt 0.62500 0.62500
vt 0.62500 0.75000
vt 0.62500 0.87500
vt 0.62500 1
vt 0.75000 0
vt 0.75000 0.12500
vt 0.75000 0.25000
vt 0.75000 0.37500
vt 0.75000 0.50000
vt 0.75000 0.62500
vt 0.75000 0.75000
vt 0.75000 0.87500
vt 0.75000 1
vt 0.87500 0
vt 0.87500 0.12500
vt 0.87500 0.25000
vt 0.87500 0.37500
vt 0.87500 0.50000
vt 0.87500 0.62500
vt 0.87500 0.75000
vt 0.87500 0.87500
vt 0.87500 1
vt 1 0
vt 1 0.12500
vt 1 0.25000
vt 1 0.37500
vt 1 0.50000
vt 1 0.62500
vt 1 0.75000
vt 1 0.87500
vt 1 1

# No. faces 66:

usemtl ___default___

f 69/69/209 60/60/216 59/59/216 68/68/209
f 70/70/209 61/61/216 60/60/216 69/69/209
f 71/71/209 62/62/216 61/61/216 70/70/209
f 72/72/209 63/63/216 62/62/216 71/71/209
f 73/73/209 64/64/216 63/63/216 72/72/209
f 74/74/209 65/65/216 64/64/216 73/73/209
f 75/75/209 66/66/216 65/65/216 74/74/209
f 76/76/209 67/67/216 66/66/216 75/75/209
f 78/78/210 69/69/209 68/68/209 77/77/210
f 79/79/210 70/70/209 69/69/209 78/78/210
f 80/80/210 71/71/209 70/70/209 79/79/210
f 81/81/210 72/72/209 71/71/209 80/80/210
f 82/82/210 73/73/209 72/72/209 81/81/210
f 83/83/210 74/74/209 73/73/209 82/82/210
f 84/84/210 75/75/209 74/74/209 83/83/210
f 85/85/210 76/76/209 75/75/209 84/84/210
f 87/87/211 78/78/210 77/77/210 86/86/211
f 88/88/211 79/79/210 78/78/210 87/87/211
f 89/89/211 80/80/210 79/79/210 88/88/211
f 90/90/211 81/81/210 80/80/210 89/89/211
f 91/91/211 82/82/210 81/81/210 90/90/211
f 92/92/211 83/83/210 82/82/210 91/91/211
f 93/93/211 84/84/210 83/83/210 92/92/211
f 94/94/211 85/85/210 84/84/210 93/93/211
f 96/96/212 87/87/211 86/86/211 95/95/212
f 97/97/212 88/88/211 87/87/211 96/96/212
f 98/98/212 89/89/211 88/88/211 97/97/212
f 99/99/212 90/90/211 89/89/211 98/98/212
f 100/100/212 91/91/211 90/90/211 99/99/212
f 101/101/212 92/92/211 91/91/211 100/100/212
f 102/102/212 93/93/211 92/92/211 101/101/212
f 103/103/212 94/94/211 93/93/211 102/102/212
f 105/105/213 96/96/212 95/95/212 104/104/213
f 106/106/213 97/97/212 96/96/212 105/105/213
f 107/107/213 98/98/212 97/97/212 106/106/213
f 108/108/213 99/99/212 98/98/212 107/107/213
f 109/109/213 100/100/212 99/99/212 108/108/213
f 110/110/213 101/101/212 100/100/212 109/109/213
f 111/111/213 102/102/212 101/101/212 110/110/213
f 112/112/213 103/103/212 102/102/212 111/111/213
f 114/114/214 105/105/213 104/104/213 113/113/214
f 115/115/214 106/106/213 105/105/213 114/114/214
f 116/116/214 107/107/213 106/106/213 115/115/214
f 117/117/214 108/108/213 107/107/213 116/116/214
f 118/118/214 109/109/213 108/108/213 117/117/214
f 119/119/214 110/110/213 109/109/213 118/118/214
f 120/120/214 111/111/213 110/110/213 119/119/214
f 121/121/214 112/112/213 111/111/213 120/120/214
f 123/123/215 114/114/214 113/113/214 122/122/215
f 124/124/215 115/115/214 114/114/214 123/123/215
f 125/125/215 116/116/214 115/115/214 124/124/215
f 126/126/215 117/117/214 116/116/214 125/125/215
f 127/127/215 118/118/214 117/117/214 126/126/215
f 128/128/215 119/119/214 118/118/214 127/127/215
f 129/129/215 120/120/214 119/119/214 128/128/215
f 130/130/215 121/121/214 120/120/214 129/129/215
f 60/132/216 123/123/215 122/122/215 59/131/216
f 61/133/216 124/124/215 123/123/215 60/132/216
f 62/134/216 125/125/215 124/124/215 61/133/216
f 63/135/216 126/126/215 125/125/215 62/134/216
f 64/136/216 127/127/215 126/126/215 63/135/216
f 65/137/216 128/128/215 127/127/215 64/136/216
f 66/138/216 129/129/215 128/128/215 65/137/216
f 67/139/216 130/130/215 129/129/215 66/138/216
f 67/67/217 76/76/217 85/85/217 94/94/217 103/103/217 112/112/217 121/121/217 130/130/217
f 122/122/218 113/113/218 104/104/218 95/95/218 86/86/218 77/77/218 68/68/218 59/59/218

# End Group:

# End of Object "heli_tra"
